TwilioSansMono-BoldItalic.ufo
<glyph name="parenleft" format="2">
	<unicode hex="0028"/>
	<advance width="600"/>
	<outline>
		<contour>
			<point x="410" y="-168" type="curve"/>
			<point x="467" y="-48" type="line"/>
			<point x="302" y="20"/>
			<point x="264" y="152"/>
			<point x="290" y="336" type="curve" smooth="yes"/>
			<point x="316" y="518"/>
			<point x="392" y="630"/>
			<point x="572" y="677" type="curve"/>
			<point x="546" y="798" type="line"/>
			<point x="299" y="737"/>
			<point x="187" y="580"/>
			<point x="156" y="346" type="curve" smooth="yes"/>
			<point x="122" y="99"/>
			<point x="196" y="-77"/>
		</contour>
	</outline>
</glyph>
<glyph name="asterisk" format="2">
	<unicode hex="002A"/>
	<advance width="600"/>
	<outline>
		<contour>
			<point x="462" y="139" type="line"/>
			<point x="546" y="257" type="line"/>
			<point x="371" y="321" type="line"/>
			<point x="565" y="385" type="line"/>
			<point x="515" y="503" type="line"/>
			<point x="347" y="374" type="line"/>
			<point x="412" y="567" type="line"/>
			<point x="276" y="567" type="line"/>
			<point x="285" y="375" type="line"/>
			<point x="154" y="503" type="line"/>
			<point x="69" y="386" type="line"/>
			<point x="247" y="321" type="line"/>
			<point x="53" y="257" type="line"/>
			<point x="104" y="140" type="line"/>
			<point x="270" y="267" type="line"/>
			<point x="207" y="75" type="line"/>
			<point x="343" y="75" type="line"/>
			<point x="333" y="265" type="line"/>
		</contour>
	</outline>
</glyph>
<glyph name="plus" format="2">
	<unicode hex="002B"/>
	<advance width="600"/>
	<outline>
		<contour>
			<point x="273" y="530" type="line"/>
			<point x="249" y="357" type="line"/>
			<point x="79" y="357" type="line"/>
			<point x="62" y="233" type="line"/>
			<point x="231" y="233" type="line"/>
			<point x="207" y="60" type="line"/>
			<point x="335" y="60" type="line"/>
			<point x="359" y="233" type="line"/>
			<point x="529" y="233" type="line"/>
			<point x="547" y="357" type="line"/>
			<point x="377" y="357" type="line"/>
			<point x="401" y="530" type="line"/>
		</contour>
	</outline>
</glyph>
<glyph name="hyphen" format="2">
	<unicode hex="002D"/>
	<advance width="600"/>
	<outline>
		<contour>
			<point x="494" y="361" type="line"/>
			<point x="133" y="361" type="line"/>
			<point x="115" y="230" type="line"/>
			<point x="476" y="230" type="line"/>
		</contour>
	</outline>
</glyph>
<glyph name="period" format="2">
	<unicode hex="002E"/>
	<advance width="600"/>
	<outline>
		<contour>
			<point x="268" y="-12" type="curve" smooth="yes"/>
			<point x="335" y="-12"/>
			<point x="369" y="15"/>
			<point x="377" y="75" type="curve" smooth="yes"/>
			<point x="387" y="144"/>
			<point x="354" y="174"/>
			<point x="283" y="174" type="curve" smooth="yes"/>
			<point x="215" y="174"/>
			<point x="181" y="148"/>
			<point x="173" y="88" type="curve" smooth="yes"/>
			<point x="162" y="19"/>
			<point x="195" y="-12"/>
		</contour>
	</outline>
</glyph>
<glyph name="slash" format="2">
	<unicode hex="002F"/>
	<advance width="600"/>
	<outline>
		<contour>
			<point x="471" y="792" type="line"/>
			<point x="-5" y="-163" type="line"/>
			<point x="143" y="-163" type="line"/>
			<point x="620" y="792" type="line"/>
		</contour>
	</outline>
</glyph>
<glyph name="one" format="2">
	<unicode hex="0031"/>
	<advance width="600"/>
	<outline>
		<contour>
			<point x="15" y="0" type="line"/>
			<point x="532" y="0" type="line"/>
			<point x="550" y="130" type="line"/>
			<point x="376" y="130" type="line"/>
			<point x="454" y="684" type="line"/>
			<point x="304" y="684" type="line"/>
			<point x="97" y="534" type="line"/>
			<point x="76" y="388" type="line"/>
			<point x="285" y="535" type="line"/>
			<point x="228" y="130" type="line"/>
			<point x="33" y="130" type="line"/>
		</contour>
	</outline>
</glyph>
<glyph name="two" format="2">
	<unicode hex="0032"/>
	<advance width="600"/>
	<outline>
		<contour>
			<point x="25" y="0" type="line"/>
			<point x="498" y="0" type="line"/>
			<point x="517" y="131" type="line"/>
			<point x="268" y="131" type="line"/>
			<point x="300" y="150" type="line" smooth="yes"/>
			<point x="440" y="234"/>
			<point x="556" y="332"/>
			<point x="556" y="496" type="curve" smooth="yes"/>
			<point x="556" y="621"/>
			<point x="480" y="697"/>
			<point x="334" y="697" type="curve" smooth="yes"/>
			<point x="241" y="697"/>
			<point x="167" y="666"/>
			<point x="114" y="629" type="curve"/>
			<point x="95" y="491" type="line"/>
			<point x="155" y="536"/>
			<point x="224" y="571"/>
			<point x="294" y="571" type="curve" smooth="yes"/>
			<point x="367" y="571"/>
			<point x="405" y="533"/>
			<point x="405" y="469" type="curve" smooth="yes"/>
			<point x="405" y="355"/>
			<point x="294" y="284"/>
			<point x="166" y="197" type="curve" smooth="yes"/>
			<point x="41" y="113" type="line"/>
		</contour>
	</outline>
</glyph>
<glyph name="three" format="2">
	<unicode hex="0033"/>
	<advance width="600"/>
	<outline>
		<contour>
			<point x="252" y="-13" type="curve" smooth="yes"/>
			<point x="423" y="-13"/>
			<point x="533" y="79"/>
			<point x="533" y="244" type="curve" smooth="yes"/>
			<point x="533" y="338"/>
			<point x="486" y="399"/>
			<point x="375" y="415" type="curve"/>
			<point x="566" y="562" type="line"/>
			<point x="583" y="684" type="line"/>
			<point x="121" y="684" type="line"/>
			<point x="104" y="563" type="line"/>
			<point x="380" y="563" type="line"/>
			<point x="165" y="386" type="line"/>
			<point x="151" y="296" type="line"/>
			<point x="180" y="305"/>
			<point x="220" y="311"/>
			<point x="258" y="311" type="curve" smooth="yes"/>
			<point x="350" y="311"/>
			<point x="382" y="279"/>
			<point x="382" y="223" type="curve" smooth="yes"/>
			<point x="382" y="152"/>
			<point x="331" y="109"/>
			<point x="244" y="109" type="curve" smooth="yes"/>
			<point x="181" y="109"/>
			<point x="112" y="131"/>
			<point x="47" y="181" type="curve"/>
			<point x="30" y="56" type="line"/>
			<point x="85" y="16"/>
			<point x="158" y="-13"/>
		</contour>
	</outline>
</glyph>
<glyph name="four" format="2">
	<unicode hex="0034"/>
	<advance width="600"/>
	<outline>
		<contour>
			<point x="308" y="0" type="line"/>
			<point x="454" y="0" type="line"/>
			<point x="472" y="135" type="line"/>
			<point x="540" y="135" type="line"/>
			<point x="556" y="254" type="line"/>
			<point x="490" y="254" type="line"/>
			<point x="551" y="686" type="line"/>
			<point x="323" y="686" type="line"/>
			<point x="27" y="256" type="line"/>
			<point x="10" y="136" type="line"/>
			<point x="327" y="136" type="line"/>
		</contour>
		<contour>
			<point x="169" y="254" type="line"/>
			<point x="389" y="578" type="line"/>
			<point x="344" y="254" type="line"/>
		</contour>
	</outline>
</glyph>
<glyph name="five" format="2">
	<unicode hex="0035"/>
	<advance width="600"/>
	<outline>
		<contour>
			<point x="257" y="-13" type="curve" smooth="yes"/>
			<point x="430" y="-13"/>
			<point x="533" y="87"/>
			<point x="532" y="247" type="curve" smooth="yes"/>
			<point x="531" y="373"/>
			<point x="462" y="428"/>
			<point x="316" y="428" type="curve" smooth="yes"/>
			<point x="289" y="428"/>
			<point x="267" y="426"/>
			<point x="247" y="422" type="curve"/>
			<point x="267" y="563" type="line"/>
			<point x="566" y="563" type="line"/>
			<point x="583" y="684" type="line"/>
			<point x="147" y="684" type="line"/>
			<point x="92" y="290" type="line"/>
			<point x="140" y="304"/>
			<point x="196" y="315"/>
			<point x="253" y="315" type="curve" smooth="yes"/>
			<point x="343" y="315"/>
			<point x="379" y="289"/>
			<point x="380" y="227" type="curve" smooth="yes"/>
			<point x="380" y="154"/>
			<point x="335" y="110"/>
			<point x="252" y="110" type="curve" smooth="yes"/>
			<point x="193" y="110"/>
			<point x="117" y="131"/>
			<point x="51" y="181" type="curve"/>
			<point x="34" y="57" type="line"/>
			<point x="74" y="22"/>
			<point x="154" y="-13"/>
		</contour>
	</outline>
</glyph>
<glyph name="seven" format="2">
	<unicode hex="0037"/>
	<advance width="600"/>
	<outline>
		<contour>
			<point x="94" y="0" type="line"/>
			<point x="261" y="0" type="line"/>
			<point x="594" y="540" type="line"/>
			<point x="614" y="684" type="line"/>
			<point x="109" y="684" type="line"/>
			<point x="75" y="446" type="line"/>
			<point x="207" y="446" type="line"/>
			<point x="226" y="571" type="line"/>
			<point x="452" y="571" type="line"/>
		</contour>
	</outline>
</glyph>
<glyph name="less" format="2">
	<unicode hex="003C"/>
	<advance width="600"/>
	<outline>
		<contour>
			<point x="500" y="17" type="line"/>
			<point x="519" y="154" type="line"/>
			<point x="189" y="292" type="line"/>
			<point x="558" y="430" type="line"/>
			<point x="578" y="575" type="line"/>
			<point x="81" y="375" type="line"/>
			<point x="59" y="214" type="line"/>
		</contour>
	</outline>
</glyph>
<glyph name="question" format="2">
	<unicode hex="003F"/>
	<advance width="600"/>
	<outline>
		<contour>
			<point x="205" y="230" type="curve"/>
			<point x="335" y="230" type="line"/>
			<point x="338" y="253" type="line" smooth="yes"/>
			<point x="349" y="350"/>
			<point x="551" y="352"/>
			<point x="551" y="531" type="curve" smooth="yes"/>
			<point x="551" y="632"/>
			<point x="475" y="698"/>
			<point x="338" y="698" type="curve" smooth="yes"/>
			<point x="256" y="698"/>
			<point x="196" y="677"/>
			<point x="147" y="650" type="curve"/>
			<point x="130" y="520" type="line"/>
			<point x="179" y="552"/>
			<point x="239" y="572"/>
			<point x="301" y="572" type="curve" smooth="yes"/>
			<point x="368" y="572"/>
			<point x="402" y="548"/>
			<point x="402" y="505" type="curve" smooth="yes"/>
			<point x="402" y="415"/>
			<point x="211" y="408"/>
			<point x="202" y="266" type="curve" smooth="yes"/>
			<point x="201" y="250"/>
			<point x="203" y="240"/>
		</contour>
		<contour>
			<point x="243" y="-11" type="curve" smooth="yes"/>
			<point x="305" y="-11"/>
			<point x="336" y="12"/>
			<point x="343" y="64" type="curve" smooth="yes"/>
			<point x="353" y="129"/>
			<point x="321" y="157"/>
			<point x="256" y="157" type="curve" smooth="yes"/>
			<point x="195" y="157"/>
			<point x="164" y="134"/>
			<point x="156" y="82" type="curve" smooth="yes"/>
			<point x="147" y="16"/>
			<point x="179" y="-11"/>
		</contour>
	</outline>
</glyph>
<glyph name="A" format="2">
	<unicode hex="0041"/>
	<advance width="600"/>
	<outline>
		<contour>
			<point x="-27" y="0" type="line"/>
			<point x="129" y="0" type="line"/>
			<point x="182" y="141" type="line"/>
			<point x="387" y="141" type="line"/>
			<point x="401" y="0" type="line"/>
			<point x="553" y="0" type="line"/>
			<point x="465" y="685" type="line"/>
			<point x="253" y="685" type="line"/>
		</contour>
		<contour>
			<point x="227" y="260" type="line"/>
			<point x="345" y="575" type="line"/>
			<point x="376" y="260" type="line"/>
		</contour>
	</outline>
	<anchor name="ogonek" x="553" y="0"/>
	<anchor name="bottom" x="303" y="0"/>
	<anchor name="top" x="359" y="684"/>
</glyph>
<glyph name="E" format="2">
	<unicode hex="0045"/>
	<advance width="600"/>
	<outline>
		<contour>
			<point x="133" y="684" type="line"/>
			<point x="37" y="0" type="line"/>
			<point x="509" y="0" type="line"/>
			<point x="527" y="123" type="line"/>
			<point x="203" y="123" type="line"/>
			<point x="224" y="282" type="line"/>
			<point x="503" y="282" type="line"/>
			<point x="520" y="403" type="line"/>
			<point x="243" y="403" type="line"/>
			<point x="265" y="562" type="line"/>
			<point x="584" y="562" type="line"/>
			<point x="601" y="684" type="line"/>
		</contour>
	</outline>
	<anchor name="ogonek" x="509" y="0"/>
	<anchor name="bottom" x="310" y="0"/>
	<anchor name="top" x="366" y="684"/>
</glyph>
<glyph name="G" format="2">
	<unicode hex="0047"/>
	<advance width="600"/>
	<outline>
		<contour>
			<point x="285" y="-14" type="curve" smooth="yes"/>
			<point x="447" y="-14"/>
			<point x="541" y="79"/>
			<point x="569" y="280" type="curve" smooth="yes"/>
			<point x="586" y="398" type="line"/>
			<point x="308" y="398" type="line"/>
			<point x="291" y="280" type="line"/>
			<point x="422" y="280" type="line"/>
			<point x="421" y="277" type="line"/>
			<point x="409" y="167"/>
			<point x="373" y="109"/>
			<point x="292" y="109" type="curve" smooth="yes"/>
			<point x="203" y="109"/>
			<point x="167" y="185"/>
			<point x="190" y="350" type="curve" smooth="yes"/>
			<point x="191" y="357" type="line" smooth="yes"/>
			<point x="212" y="504"/>
			<point x="263" y="577"/>
			<point x="387" y="577" type="curve" smooth="yes"/>
			<point x="454" y="577"/>
			<point x="519" y="553"/>
			<point x="559" y="522" type="curve"/>
			<point x="577" y="645" type="line"/>
			<point x="538" y="672"/>
			<point x="463" y="698"/>
			<point x="377" y="698" type="curve" smooth="yes"/>
			<point x="178" y="698"/>
			<point x="73" y="575"/>
			<point x="45" y="379" type="curve" smooth="yes"/>
			<point x="43" y="365" type="line" smooth="yes"/>
			<point x="10" y="131"/>
			<point x="80" y="-14"/>
		</contour>
	</outline>
	<anchor name="top" x="379" y="684"/>
	<anchor name="bottom" x="278" y="0"/>
</glyph>
<glyph name="H" format="2">
	<unicode hex="0048"/>
	<advance width="600"/>
	<outline>
		<contour>
			<point x="20" y="0" type="line"/>
			<point x="169" y="0" type="line"/>
			<point x="209" y="286" type="line"/>
			<point x="397" y="286" type="line"/>
			<point x="357" y="0" type="line"/>
			<point x="506" y="0" type="line"/>
			<point x="602" y="684" type="line"/>
			<point x="453" y="684" type="line"/>
			<point x="414" y="409" type="line"/>
			<point x="226" y="409" type="line"/>
			<point x="265" y="684" type="line"/>
			<point x="116" y="684" type="line"/>
		</contour>
	</outline>
	<anchor name="center" x="338" y="535"/>
	<anchor name="bottom" x="296" y="0"/>
	<anchor name="top" x="359" y="684"/>
</glyph>
<glyph name="L" format="2">
	<unicode hex="004C"/>
	<advance width="600"/>
	<outline>
		<contour>
			<point x="47" y="0" type="line"/>
			<point x="516" y="0" type="line"/>
			<point x="536" y="136" type="line"/>
			<point x="215" y="136" type="line"/>
			<point x="292" y="684" type="line"/>
			<point x="143" y="684" type="line"/>
		</contour>
	</outline>
	<anchor name="center" x="173" y="340"/>
	<anchor name="caron" x="399" y="684"/>
	<anchor name="top" x="217" y="684"/>
	<anchor name="bottom" x="282" y="0"/>
</glyph>
<glyph name="M" format="2">
	<unicode hex="004D"/>
	<advance width="600"/>
	<outline>
		<contour>
			<point x="1" y="0" type="line"/>
			<point x="130" y="0" type="line"/>
			<point x="159" y="213" type="line" smooth="yes"/>
			<point x="174" y="322"/>
			<point x="183" y="428"/>
			<point x="186" y="525" type="curve"/>
			<point x="195" y="525" type="line"/>
			<point x="226" y="159" type="line"/>
			<point x="345" y="159" type="line"/>
			<point x="477" y="525" type="line"/>
			<point x="489" y="525" type="line"/>
			<point x="460" y="425"/>
			<point x="441" y="324"/>
			<point x="426" y="214" type="curve" smooth="yes"/>
			<point x="396" y="0" type="line"/>
			<point x="525" y="0" type="line"/>
			<point x="621" y="684" type="line"/>
			<point x="430" y="684" type="line"/>
			<point x="309" y="316" type="line"/>
			<point x="304" y="316" type="line"/>
			<point x="284" y="684" type="line"/>
			<point x="97" y="684" type="line"/>
		</contour>
	</outline>
</glyph>
<glyph name="N" format="2">
	<unicode hex="004E"/>
	<advance width="600"/>
	<outline>
		<contour>
			<point x="19" y="0" type="line"/>
			<point x="151" y="0" type="line"/>
			<point x="187" y="255" type="line" smooth="yes"/>
			<point x="200" y="343"/>
			<point x="198" y="424"/>
			<point x="199" y="516" type="curve"/>
			<point x="207" y="516" type="line"/>
			<point x="333" y="0" type="line"/>
			<point x="507" y="0" type="line"/>
			<point x="603" y="684" type="line"/>
			<point x="471" y="684" type="line"/>
			<point x="435" y="429" type="line" smooth="yes"/>
			<point x="421" y="328"/>
			<point x="421" y="261"/>
			<point x="423" y="168" type="curve"/>
			<point x="414" y="168" type="line"/>
			<point x="289" y="684" type="line"/>
			<point x="115" y="684" type="line"/>
		</contour>
	</outline>
	<anchor name="top" x="383" y="684"/>
	<anchor name="bottom" x="240" y="0"/>
</glyph>
<glyph name="P" format="2">
	<unicode hex="0050"/>
	<advance width="600"/>
	<outline>
		<contour>
			<point x="29" y="0" type="line"/>
			<point x="178" y="0" type="line"/>
			<point x="206" y="202" type="line"/>
			<point x="342" y="202" type="line" smooth="yes"/>
			<point x="492" y="202"/>
			<point x="604" y="301"/>
			<point x="604" y="472" type="curve" smooth="yes"/>
			<point x="604" y="603"/>
			<point x="525" y="684"/>
			<point x="375" y="684" type="curve" smooth="yes"/>
			<point x="125" y="684" type="line"/>
		</contour>
		<contour>
			<point x="345" y="564" type="line" smooth="yes"/>
			<point x="425" y="564"/>
			<point x="453" y="518"/>
			<point x="453" y="458" type="curve" smooth="yes"/>
			<point x="453" y="370"/>
			<point x="406" y="321"/>
			<point x="330" y="321" type="curve" smooth="yes"/>
			<point x="223" y="321" type="line"/>
			<point x="257" y="564" type="line"/>
		</contour>
	</outline>
	<anchor name="top" x="390" y="684"/>
	<anchor name="bottom" x="141" y="0"/>
</glyph>
<glyph name="Q" format="2">
	<unicode hex="0051"/>
	<advance width="600"/>
	<outline>
		<contour>
			<point x="300" y="-75" type="curve" smooth="yes"/>
			<point x="431" y="-125" type="line"/>
			<point x="506" y="-19" type="line"/>
			<point x="354" y="33" type="line"/>
			<point x="464" y="54"/>
			<point x="539" y="138"/>
			<point x="566" y="323" type="curve" smooth="yes"/>
			<point x="568" y="337" type="line" smooth="yes"/>
			<point x="599" y="558"/>
			<point x="531" y="698"/>
			<point x="344" y="698" type="curve" smooth="yes"/>
			<point x="180" y="698"/>
			<point x="87" y="569"/>
			<point x="59" y="375" type="curve" smooth="yes"/>
			<point x="57" y="361" type="line" smooth="yes"/>
			<point x="22" y="119"/>
			<point x="97" y="3"/>
		</contour>
		<contour>
			<point x="286" y="107" type="curve" smooth="yes"/>
			<point x="210" y="107"/>
			<point x="181" y="177"/>
			<point x="206" y="351" type="curve" smooth="yes"/>
			<point x="207" y="358" type="line" smooth="yes"/>
			<point x="230" y="518"/>
			<point x="269" y="579"/>
			<point x="336" y="579" type="curve" smooth="yes"/>
			<point x="411" y="579"/>
			<point x="440" y="508"/>
			<point x="416" y="335" type="curve" smooth="yes"/>
			<point x="415" y="328" type="line" smooth="yes"/>
			<point x="392" y="167"/>
			<point x="353" y="107"/>
		</contour>
	</outline>
	<anchor name="top" x="338" y="684"/>
	<anchor name="bottom" x="248" y="3"/>
</glyph>
<glyph name="R" format="2">
	<unicode hex="0052"/>
	<advance width="600"/>
	<outline>
		<contour>
			<point x="22" y="0" type="line"/>
			<point x="171" y="0" type="line"/>
			<point x="205" y="238" type="line"/>
			<point x="277" y="238" type="line" smooth="yes"/>
			<point x="339" y="238"/>
			<point x="354" y="214"/>
			<point x="361" y="161" type="curve" smooth="yes"/>
			<point x="383" y="0" type="line"/>
			<point x="539" y="0" type="line"/>
			<point x="511" y="184" type="line" smooth="yes"/>
			<point x="501" y="252"/>
			<point x="472" y="288"/>
			<point x="416" y="300" type="curve"/>
			<point x="518" y="316"/>
			<point x="591" y="378"/>
			<point x="591" y="501" type="curve" smooth="yes"/>
			<point x="590" y="613"/>
			<point x="515" y="684"/>
			<point x="383" y="684" type="curve" smooth="yes"/>
			<point x="118" y="684" type="line"/>
		</contour>
		<contour>
			<point x="342" y="566" type="line" smooth="yes"/>
			<point x="410" y="566"/>
			<point x="439" y="529"/>
			<point x="439" y="474" type="curve" smooth="yes"/>
			<point x="439" y="395"/>
			<point x="397" y="355"/>
			<point x="328" y="355" type="curve" smooth="yes"/>
			<point x="221" y="355" type="line"/>
			<point x="250" y="566" type="line"/>
		</contour>
	</outline>
	<anchor name="top" x="340" y="684"/>
	<anchor name="bottom" x="278" y="0"/>
</glyph>
<glyph name="X" format="2">
	<unicode hex="0058"/>
	<advance width="600"/>
	<outline>
		<contour>
			<point x="-23" y="0" type="line"/>
			<point x="147" y="0" type="line"/>
			<point x="299" y="248" type="line"/>
			<point x="387" y="0" type="line"/>
			<point x="549" y="0" type="line"/>
			<point x="410" y="358" type="line"/>
			<point x="632" y="684" type="line"/>
			<point x="463" y="684" type="line"/>
			<point x="325" y="468" type="line"/>
			<point x="246" y="684" type="line"/>
			<point x="86" y="684" type="line"/>
			<point x="216" y="361" type="line"/>
		</contour>
	</outline>
	<anchor name="top" x="375" y="684"/>
	<anchor name="bottom" x="284" y="0"/>
</glyph>
<glyph name="backslash" format="2">
	<unicode hex="005C"/>
	<advance width="600"/>
	<outline>
		<contour>
			<point x="346" y="-163" type="line"/>
			<point x="485" y="-163" type="line"/>
			<point x="269" y="792" type="line"/>
			<point x="130" y="792" type="line"/>
		</contour>
	</outline>
</glyph>
<glyph name="bracketright" format="2">
	<unicode hex="005D"/>
	<advance width="600"/>
	<outline>
		<contour>
			<point x="39" y="-163" type="line"/>
			<point x="374" y="-163" type="line"/>
			<point x="509" y="792" type="line"/>
			<point x="173" y="792" type="line"/>
			<point x="158" y="687" type="line"/>
			<point x="356" y="687" type="line"/>
			<point x="251" y="-58" type="line"/>
			<point x="53" y="-58" type="line"/>
		</contour>
	</outline>
</glyph>
<glyph name="asciicircum" format="2">
	<unicode hex="005E"/>
	<advance width="600"/>
	<outline>
		<contour>
			<point x="55" y="233" type="line"/>
			<point x="185" y="233" type="line"/>
			<point x="332" y="474" type="line"/>
			<point x="411" y="233" type="line"/>
			<point x="537" y="233" type="line"/>
			<point x="411" y="584" type="line"/>
			<point x="278" y="584" type="line"/>
		</contour>
	</outline>
</glyph>
<glyph name="grave" format="2">
	<unicode hex="0060"/>
	<advance width="600"/>
	<outline>
		<contour>
			<point x="242" y="750" type="line"/>
			<point x="325" y="600" type="line"/>
			<point x="437" y="600" type="line"/>
			<point x="401" y="750" type="line"/>
		</contour>
	</outline>
	<anchor name="_top" x="371" y="523"/>
</glyph>
<glyph name="a" format="2">
	<unicode hex="0061"/>
	<advance width="600"/>
	<outline>
		<contour>
			<point x="188" y="-14" type="curve" smooth="yes"/>
			<point x="265" y="-14"/>
			<point x="317" y="28"/>
			<point x="357" y="87" type="curve"/>
			<point x="344" y="0" type="line"/>
			<point x="485" y="0" type="line"/>
			<point x="531" y="324" type="line" smooth="yes"/>
			<point x="552" y="477"/>
			<point x="462" y="537"/>
			<point x="318" y="537" type="curve" smooth="yes"/>
			<point x="243" y="537"/>
			<point x="168" y="520"/>
			<point x="112" y="494" type="curve"/>
			<point x="93" y="370" type="line"/>
			<point x="153" y="404"/>
			<point x="219" y="422"/>
			<point x="287" y="422" type="curve" smooth="yes"/>
			<point x="362" y="422"/>
			<point x="394" y="389"/>
			<point x="385" y="328" type="curve"/>
			<point x="287" y="314" type="line" smooth="yes"/>
			<point x="125" y="292"/>
			<point x="44" y="231"/>
			<point x="44" y="114" type="curve" smooth="yes"/>
			<point x="45" y="38"/>
			<point x="97" y="-14"/>
		</contour>
		<contour>
			<point x="257" y="87" type="curve" smooth="yes"/>
			<point x="213" y="87"/>
			<point x="184" y="110"/>
			<point x="184" y="147" type="curve" smooth="yes"/>
			<point x="184" y="191"/>
			<point x="214" y="219"/>
			<point x="293" y="231" type="curve" smooth="yes"/>
			<point x="373" y="242" type="line"/>
			<point x="364" y="183" type="line" smooth="yes"/>
			<point x="355" y="125"/>
			<point x="315" y="87"/>
		</contour>
	</outline>
	<anchor name="ogonek" x="485" y="0"/>
	<anchor name="bottom" x="264" y="-3"/>
	<anchor name="top" x="338" y="524"/>
</glyph>
<glyph name="b" format="2">
	<unicode hex="0062"/>
	<advance width="600"/>
	<outline>
		<contour>
			<point x="398" y="537" type="curve" smooth="yes"/>
			<point x="334" y="537"/>
			<point x="280" y="503"/>
			<point x="237" y="429" type="curve"/>
			<point x="282" y="750" type="line"/>
			<point x="135" y="750" type="line"/>
			<point x="30" y="0" type="line"/>
			<point x="232" y="0" type="line" smooth="yes"/>
			<point x="416" y="0"/>
			<point x="527" y="96"/>
			<point x="551" y="260" type="curve" smooth="yes"/>
			<point x="553" y="274" type="line" smooth="yes"/>
			<point x="576" y="436"/>
			<point x="515" y="537"/>
		</contour>
		<contour>
			<point x="403" y="272" type="curve" smooth="yes"/>
			<point x="402" y="265" type="line"/>
			<point x="387" y="160"/>
			<point x="337" y="113"/>
			<point x="244" y="113" type="curve" smooth="yes"/>
			<point x="192" y="113" type="line"/>
			<point x="219" y="306" type="line" smooth="yes"/>
			<point x="229" y="379"/>
			<point x="267" y="422"/>
			<point x="325" y="422" type="curve" smooth="yes"/>
			<point x="387" y="422"/>
			<point x="417" y="368"/>
		</contour>
	</outline>
</glyph>
<glyph name="g" format="2">
	<unicode hex="0067"/>
	<advance width="600"/>
	<outline>
		<contour>
			<point x="193" y="-209" type="curve" smooth="yes"/>
			<point x="227" y="-209" type="line" smooth="yes"/>
			<point x="405" y="-209"/>
			<point x="535" y="-139"/>
			<point x="535" y="-14" type="curve" smooth="yes"/>
			<point x="535" y="63"/>
			<point x="476" y="101"/>
			<point x="363" y="101" type="curve" smooth="yes"/>
			<point x="232" y="101" type="line" smooth="yes"/>
			<point x="192" y="101"/>
			<point x="170" y="105"/>
			<point x="170" y="124" type="curve" smooth="yes"/>
			<point x="170" y="149"/>
			<point x="202" y="165"/>
			<point x="250" y="165" type="curve" smooth="yes"/>
			<point x="281" y="165" type="line" smooth="yes"/>
			<point x="410" y="165"/>
			<point x="518" y="230"/>
			<point x="518" y="353" type="curve" smooth="yes"/>
			<point x="518" y="372"/>
			<point x="511" y="394"/>
			<point x="501" y="408" type="curve"/>
			<point x="595" y="408" type="line"/>
			<point x="612" y="523" type="line"/>
			<point x="305" y="523" type="line" smooth="yes"/>
			<point x="171" y="523"/>
			<point x="65" y="451"/>
			<point x="65" y="328" type="curve" smooth="yes"/>
			<point x="65" y="258"/>
			<point x="103" y="206"/>
			<point x="167" y="181" type="curve"/>
			<point x="75" y="160"/>
			<point x="31" y="125"/>
			<point x="31" y="72" type="curve" smooth="yes"/>
			<point x="31" y="33"/>
			<point x="62" y="6"/>
			<point x="123" y="-3" type="curve"/>
			<point x="25" y="-20"/>
			<point x="-26" y="-59"/>
			<point x="-26" y="-108" type="curve" smooth="yes"/>
			<point x="-26" y="-170"/>
			<point x="39" y="-209"/>
		</contour>
		<contour>
			<point x="383" y="351" type="curve" smooth="yes"/>
			<point x="383" y="293"/>
			<point x="348" y="251"/>
			<point x="288" y="251" type="curve" smooth="yes"/>
			<point x="236" y="251"/>
			<point x="205" y="280"/>
			<point x="205" y="333" type="curve" smooth="yes"/>
			<point x="205" y="393"/>
			<point x="240" y="433"/>
			<point x="301" y="433" type="curve" smooth="yes"/>
			<point x="351" y="433"/>
			<point x="383" y="407"/>
		</contour>
		<contour>
			<point x="264" y="-113" type="curve" smooth="yes"/>
			<point x="219" y="-113" type="line"/>
			<point x="152" y="-113"/>
			<point x="117" y="-99"/>
			<point x="117" y="-69" type="curve" smooth="yes"/>
			<point x="117" y="-35"/>
			<point x="166" y="-13"/>
			<point x="227" y="-13" type="curve" smooth="yes"/>
			<point x="311" y="-13" type="line" smooth="yes"/>
			<point x="364" y="-13"/>
			<point x="390" y="-26"/>
			<point x="390" y="-52" type="curve" smooth="yes"/>
			<point x="390" y="-91"/>
			<point x="342" y="-113"/>
		</contour>
	</outline>
	<anchor name="top" x="329" y="523"/>
	<anchor name="bottom" x="252" y="-152"/>
</glyph>
<glyph name="h" format="2">
	<unicode hex="0068"/>
	<advance width="600"/>
	<outline>
		<contour>
			<point x="412" y="537" type="curve" smooth="yes"/>
			<point x="341" y="537"/>
			<point x="285" y="496"/>
			<point x="240" y="426" type="curve"/>
			<point x="285" y="750" type="line"/>
			<point x="138" y="750" type="line"/>
			<point x="33" y="0" type="line"/>
			<point x="180" y="0" type="line"/>
			<point x="225" y="319" type="line" smooth="yes"/>
			<point x="228" y="340"/>
			<point x="235" y="358"/>
			<point x="246" y="374" type="curve" smooth="yes"/>
			<point x="263" y="398"/>
			<point x="288" y="416"/>
			<point x="325" y="416" type="curve" smooth="yes"/>
			<point x="381" y="416"/>
			<point x="406" y="381"/>
			<point x="396" y="307" type="curve" smooth="yes"/>
			<point x="352" y="0" type="line"/>
			<point x="499" y="0" type="line"/>
			<point x="547" y="334" type="line" smooth="yes"/>
			<point x="565" y="462"/>
			<point x="514" y="537"/>
		</contour>
	</outline>
	<anchor name="center" x="237" y="631"/>
	<anchor name="caron" x="333" y="747"/>
	<anchor name="top" x="209" y="731"/>
	<anchor name="bottom" x="265" y="0"/>
</glyph>
<glyph name="i" format="2">
	<unicode hex="0069"/>
	<advance width="600"/>
	<outline>
		<contour>
			<point x="373" y="605" type="curve" smooth="yes"/>
			<point x="436" y="605"/>
			<point x="463" y="628"/>
			<point x="469" y="677" type="curve" smooth="yes"/>
			<point x="474" y="729"/>
			<point x="450" y="753"/>
			<point x="384" y="753" type="curve" smooth="yes"/>
			<point x="322" y="753"/>
			<point x="294" y="731"/>
			<point x="289" y="681" type="curve" smooth="yes"/>
			<point x="283" y="630"/>
			<point x="308" y="605"/>
		</contour>
		<contour>
			<point x="36" y="0" type="line"/>
			<point x="519" y="0" type="line"/>
			<point x="536" y="115" type="line"/>
			<point x="373" y="115" type="line"/>
			<point x="431" y="523" type="line"/>
			<point x="111" y="523" type="line"/>
			<point x="94" y="408" type="line"/>
			<point x="268" y="408" type="line"/>
			<point x="226" y="115" type="line"/>
			<point x="52" y="115" type="line"/>
		</contour>
	</outline>
	<anchor name="ogonek" x="519" y="0"/>
</glyph>
<glyph name="j" format="2">
	<unicode hex="006A"/>
	<advance width="600"/>
	<outline>
		<contour>
			<point x="458" y="605" type="curve" smooth="yes"/>
			<point x="521" y="605"/>
			<point x="548" y="628"/>
			<point x="554" y="677" type="curve" smooth="yes"/>
			<point x="559" y="729"/>
			<point x="535" y="753"/>
			<point x="469" y="753" type="curve" smooth="yes"/>
			<point x="407" y="753"/>
			<point x="380" y="731"/>
			<point x="374" y="681" type="curve" smooth="yes"/>
			<point x="368" y="630"/>
			<point x="393" y="605"/>
		</contour>
		<contour>
			<point x="179" y="-204" type="curve" smooth="yes"/>
			<point x="322" y="-204"/>
			<point x="421" y="-151"/>
			<point x="442" y="-1" type="curve" smooth="yes"/>
			<point x="516" y="523" type="line"/>
			<point x="114" y="523" type="line"/>
			<point x="97" y="408" type="line"/>
			<point x="353" y="408" type="line"/>
			<point x="300" y="30" type="line" smooth="yes"/>
			<point x="288" y="-56"/>
			<point x="241" y="-85"/>
			<point x="154" y="-85" type="curve" smooth="yes"/>
			<point x="105" y="-85"/>
			<point x="61" y="-72"/>
			<point x="30" y="-59" type="curve"/>
			<point x="14" y="-171" type="line"/>
			<point x="50" y="-190"/>
			<point x="111" y="-204"/>
		</contour>
	</outline>
</glyph>
<glyph name="k" format="2">
	<unicode hex="006B"/>
	<advance width="600"/>
	<outline>
		<contour>
			<point x="34" y="0" type="line"/>
			<point x="181" y="0" type="line"/>
			<point x="210" y="210" type="line"/>
			<point x="366" y="0" type="line"/>
			<point x="539" y="0" type="line"/>
			<point x="389" y="193" type="line"/>
			<point x="489" y="211"/>
			<point x="564" y="286"/>
			<point x="564" y="392" type="curve" smooth="yes"/>
			<point x="564" y="475"/>
			<point x="511" y="537"/>
			<point x="419" y="537" type="curve" smooth="yes"/>
			<point x="348" y="537"/>
			<point x="290" y="502"/>
			<point x="242" y="431" type="curve"/>
			<point x="287" y="750" type="line"/>
			<point x="140" y="750" type="line"/>
		</contour>
		<contour>
			<point x="229" y="336" type="line"/>
			<point x="243" y="389"/>
			<point x="278" y="426"/>
			<point x="336" y="426" type="curve" smooth="yes"/>
			<point x="388" y="426"/>
			<point x="415" y="396"/>
			<point x="415" y="354" type="curve" smooth="yes"/>
			<point x="415" y="292"/>
			<point x="369" y="249"/>
			<point x="286" y="249" type="curve" smooth="yes"/>
			<point x="216" y="249" type="line"/>
			<point x="225" y="316" type="line" smooth="yes"/>
			<point x="226" y="323"/>
			<point x="227" y="329"/>
			<point x="229" y="335" type="curve"/>
		</contour>
	</outline>
	<anchor name="bottom" x="270" y="0"/>
</glyph>
<glyph name="o" format="2">
	<unicode hex="006F"/>
	<advance width="600"/>
	<outline>
		<contour>
			<point x="279" y="-14" type="curve" smooth="yes"/>
			<point x="431" y="-14"/>
			<point x="527" y="80"/>
			<point x="549" y="231" type="curve" smooth="yes"/>
			<point x="551" y="245" type="line" smooth="yes"/>
			<point x="576" y="421"/>
			<point x="486" y="537"/>
			<point x="323" y="537" type="curve" smooth="yes"/>
			<point x="175" y="537"/>
			<point x="72" y="442"/>
			<point x="51" y="293" type="curve" smooth="yes"/>
			<point x="49" y="279" type="line" smooth="yes"/>
			<point x="23" y="99"/>
			<point x="114" y="-14"/>
		</contour>
		<contour>
			<point x="285" y="101" type="curve" smooth="yes"/>
			<point x="218" y="101"/>
			<point x="182" y="156"/>
			<point x="198" y="269" type="curve" smooth="yes"/>
			<point x="199" y="276" type="line" smooth="yes"/>
			<point x="214" y="377"/>
			<point x="255" y="423"/>
			<point x="314" y="423" type="curve" smooth="yes"/>
			<point x="381" y="423"/>
			<point x="418" y="370"/>
			<point x="402" y="256" type="curve" smooth="yes"/>
			<point x="401" y="249" type="line" smooth="yes"/>
			<point x="386" y="148"/>
			<point x="345" y="101"/>
		</contour>
	</outline>
	<anchor name="center" x="299" y="265"/>
	<anchor name="bottom" x="257" y="-10"/>
	<anchor name="top" x="331" y="523"/>
</glyph>
<glyph name="q" format="2">
	<unicode hex="0071"/>
	<advance width="600"/>
	<outline>
		<contour>
			<point x="323" y="-194" type="line"/>
			<point x="470" y="-194" type="line"/>
			<point x="571" y="524" type="line"/>
			<point x="368" y="523" type="line" smooth="yes"/>
			<point x="185" y="522"/>
			<point x="73" y="423"/>
			<point x="49" y="260" type="curve" smooth="yes"/>
			<point x="47" y="246" type="line" smooth="yes"/>
			<point x="24" y="84"/>
			<point x="85" y="-14"/>
			<point x="202" y="-14" type="curve" smooth="yes"/>
			<point x="269" y="-14"/>
			<point x="322" y="20"/>
			<point x="364" y="96" type="curve"/>
		</contour>
		<contour>
			<point x="276" y="101" type="curve" smooth="yes"/>
			<point x="212" y="101"/>
			<point x="183" y="157"/>
			<point x="197" y="252" type="curve" smooth="yes"/>
			<point x="198" y="259" type="line" smooth="yes"/>
			<point x="213" y="363"/>
			<point x="265" y="409"/>
			<point x="356" y="409" type="curve" smooth="yes"/>
			<point x="408" y="409" type="line"/>
			<point x="381" y="215" type="line" smooth="yes"/>
			<point x="371" y="145"/>
			<point x="333" y="101"/>
		</contour>
	</outline>
</glyph>
<glyph name="r" format="2">
	<unicode hex="0072"/>
	<advance width="600"/>
	<outline>
		<contour>
			<point x="25" y="0" type="line"/>
			<point x="474" y="0" type="line"/>
			<point x="490" y="115" type="line"/>
			<point x="319" y="115" type="line"/>
			<point x="339" y="262" type="line" smooth="yes"/>
			<point x="350" y="333"/>
			<point x="395" y="389"/>
			<point x="480" y="389" type="curve" smooth="yes"/>
			<point x="516" y="389"/>
			<point x="547" y="382"/>
			<point x="565" y="375" type="curve"/>
			<point x="586" y="521" type="line"/>
			<point x="575" y="527"/>
			<point x="556" y="532"/>
			<point x="532" y="532" type="curve" smooth="yes"/>
			<point x="453" y="532"/>
			<point x="398" y="487"/>
			<point x="350" y="382" type="curve"/>
			<point x="370" y="523" type="line"/>
			<point x="102" y="523" type="line"/>
			<point x="86" y="408" type="line"/>
			<point x="213" y="408" type="line"/>
			<point x="172" y="115" type="line"/>
			<point x="41" y="115" type="line"/>
		</contour>
	</outline>
	<anchor name="top" x="373" y="523"/>
	<anchor name="bottom" x="228" y="0"/>
</glyph>
<glyph name="t" format="2">
	<unicode hex="0074"/>
	<advance width="600"/>
	<outline>
		<contour>
			<point x="352" y="-12" type="curve" smooth="yes"/>
			<point x="410" y="-12"/>
			<point x="456" y="-1"/>
			<point x="481" y="12" type="curve"/>
			<point x="496" y="119" type="line"/>
			<point x="472" y="110"/>
			<point x="440" y="104"/>
			<point x="408" y="104" type="curve" smooth="yes"/>
			<point x="339" y="104"/>
			<point x="309" y="127"/>
			<point x="320" y="205" type="curve" smooth="yes"/>
			<point x="348" y="408" type="line"/>
			<point x="542" y="408" type="line"/>
			<point x="558" y="523" type="line"/>
			<point x="366" y="523" type="line"/>
			<point x="390" y="692" type="line"/>
			<point x="258" y="692" type="line"/>
			<point x="236" y="588" type="line" smooth="yes"/>
			<point x="224" y="528"/>
			<point x="196" y="517"/>
			<point x="154" y="517" type="curve" smooth="yes"/>
			<point x="82" y="517" type="line"/>
			<point x="67" y="408" type="line"/>
			<point x="201" y="408" type="line"/>
			<point x="171" y="188" type="line" smooth="yes"/>
			<point x="151" y="43"/>
			<point x="218" y="-12"/>
		</contour>
	</outline>
	<anchor name="caron" x="510" y="780"/>
	<anchor name="bottom" x="317" y="0"/>
	<anchor name="center" x="279" y="280"/>
</glyph>
<glyph name="u" format="2">
	<unicode hex="0075"/>
	<advance width="600"/>
	<outline>
		<contour>
			<point x="569" y="523" type="line"/>
			<point x="422" y="523" type="line"/>
			<point x="378" y="212" type="line" smooth="yes"/>
			<point x="374" y="183"/>
			<point x="365" y="159"/>
			<point x="350" y="141" type="curve" smooth="yes"/>
			<point x="333" y="118"/>
			<point x="308" y="104"/>
			<point x="276" y="104" type="curve" smooth="yes"/>
			<point x="218" y="104"/>
			<point x="194" y="139"/>
			<point x="204" y="210" type="curve" smooth="yes"/>
			<point x="249" y="523" type="line"/>
			<point x="102" y="523" type="line"/>
			<point x="54" y="186" type="line" smooth="yes"/>
			<point x="37" y="61"/>
			<point x="81" y="-14"/>
			<point x="191" y="-14" type="curve" smooth="yes"/>
			<point x="264" y="-14"/>
			<point x="327" y="29"/>
			<point x="369" y="103" type="curve"/>
			<point x="355" y="0" type="line"/>
			<point x="495" y="0" type="line"/>
		</contour>
	</outline>
	<anchor name="ogonek" x="495" y="0"/>
	<anchor name="bottom" x="274" y="0"/>
	<anchor name="top" x="336" y="523"/>
</glyph>
<glyph name="w" format="2">
	<unicode hex="0077"/>
	<advance width="600"/>
	<outline>
		<contour>
			<point x="104" y="-14" type="curve" smooth="yes"/>
			<point x="159" y="-14"/>
			<point x="202" y="33"/>
			<point x="228" y="92" type="curve"/>
			<point x="240" y="19"/>
			<point x="280" y="-13"/>
			<point x="359" y="-13" type="curve" smooth="yes"/>
			<point x="481" y="-13"/>
			<point x="550" y="90"/>
			<point x="574" y="276" type="curve" smooth="yes"/>
			<point x="586" y="357"/>
			<point x="590" y="445"/>
			<point x="583" y="523" type="curve"/>
			<point x="464" y="523" type="line"/>
			<point x="469" y="447"/>
			<point x="465" y="362"/>
			<point x="454" y="284" type="curve" smooth="yes"/>
			<point x="435" y="152"/>
			<point x="418" y="101"/>
			<point x="376" y="101" type="curve" smooth="yes"/>
			<point x="348" y="101"/>
			<point x="339" y="124"/>
			<point x="344" y="160" type="curve" smooth="yes"/>
			<point x="396" y="523" type="line"/>
			<point x="285" y="523" type="line"/>
			<point x="234" y="166" type="line" smooth="yes"/>
			<point x="229" y="131"/>
			<point x="213" y="101"/>
			<point x="180" y="101" type="curve" smooth="yes"/>
			<point x="152" y="101"/>
			<point x="141" y="122"/>
			<point x="147" y="164" type="curve" smooth="yes"/>
			<point x="198" y="523" type="line"/>
			<point x="76" y="523" type="line"/>
			<point x="19" y="114" type="line" smooth="yes"/>
			<point x="8" y="37"/>
			<point x="32" y="-14"/>
		</contour>
	</outline>
	<anchor name="top" x="342" y="523"/>
</glyph>
<glyph name="y" format="2">
	<unicode hex="0079"/>
	<advance width="600"/>
	<outline>
		<contour>
			<point x="213" y="-204" type="curve" smooth="yes"/>
			<point x="351" y="-204"/>
			<point x="475" y="-145"/>
			<point x="501" y="41" type="curve" smooth="yes"/>
			<point x="567" y="523" type="line"/>
			<point x="421" y="523" type="line"/>
			<point x="382" y="239" type="line" smooth="yes"/>
			<point x="381" y="231"/>
			<point x="379" y="223"/>
			<point x="377" y="216" type="curve"/>
			<point x="377" y="215" type="line"/>
			<point x="372" y="198"/>
			<point x="365" y="181"/>
			<point x="355" y="168" type="curve" smooth="yes"/>
			<point x="338" y="145"/>
			<point x="313" y="131"/>
			<point x="280" y="131" type="curve" smooth="yes"/>
			<point x="222" y="131"/>
			<point x="199" y="167"/>
			<point x="209" y="237" type="curve" smooth="yes"/>
			<point x="250" y="523" type="line"/>
			<point x="102" y="523" type="line"/>
			<point x="57" y="204" type="line" smooth="yes"/>
			<point x="39" y="79"/>
			<point x="102" y="15"/>
			<point x="195" y="15" type="curve" smooth="yes"/>
			<point x="271" y="15"/>
			<point x="320" y="50"/>
			<point x="365" y="119" type="curve"/>
			<point x="357" y="57" type="line" smooth="yes"/>
			<point x="344" y="-43"/>
			<point x="292" y="-89"/>
			<point x="202" y="-89" type="curve" smooth="yes"/>
			<point x="129" y="-89"/>
			<point x="71" y="-62"/>
			<point x="31" y="-32" type="curve"/>
			<point x="14" y="-150" type="line"/>
			<point x="56" y="-178"/>
			<point x="127" y="-204"/>
		</contour>
	</outline>
	<anchor name="top" x="336" y="523"/>
</glyph>
<glyph name="bar" format="2">
	<unicode hex="007C"/>
	<advance width="600"/>
	<outline>
		<contour>
			<point x="306" y="792" type="line"/>
			<point x="172" y="-163" type="line"/>
			<point x="309" y="-163" type="line"/>
			<point x="443" y="792" type="line"/>
		</contour>
	</outline>
</glyph>
<glyph name="asciitilde" format="2">
	<unicode hex="007E"/>
	<advance width="600"/>
	<outline>
		<contour>
			<point x="38" y="185" type="curve"/>
			<point x="149" y="185" type="line"/>
			<point x="157" y="252"/>
			<point x="175" y="294"/>
			<point x="215" y="294" type="curve" smooth="yes"/>
			<point x="274" y="294"/>
			<point x="303" y="181"/>
			<point x="401" y="181" type="curve" smooth="yes"/>
			<point x="491" y="181"/>
			<point x="549" y="243"/>
			<point x="573" y="417" type="curve"/>
			<point x="461" y="416" type="line"/>
			<point x="452" y="349"/>
			<point x="436" y="314"/>
			<point x="400" y="314" type="curve" smooth="yes"/>
			<point x="342" y="314"/>
			<point x="302" y="424"/>
			<point x="205" y="424" type="curve" smooth="yes"/>
			<point x="108" y="424"/>
			<point x="60" y="343"/>
		</contour>
	</outline>
</glyph>
<glyph name="currency" format="2">
	<unicode hex="00A4"/>
	<advance width="600"/>
	<outline>
		<contour>
			<point x="76" y="40" type="line"/>
			<point x="173" y="133" type="line"/>
			<point x="203" y="114"/>
			<point x="240" y="104"/>
			<point x="283" y="104" type="curve" smooth="yes"/>
			<point x="324" y="104"/>
			<point x="363" y="114"/>
			<point x="396" y="132" type="curve"/>
			<point x="470" y="37" type="line"/>
			<point x="559" y="114" type="line"/>
			<point x="481" y="212" type="line"/>
			<point x="505" y="250"/>
			<point x="521" y="296"/>
			<point x="526" y="349" type="curve" smooth="yes"/>
			<point x="531" y="394"/>
			<point x="525" y="434"/>
			<point x="513" y="466" type="curve"/>
			<point x="616" y="563" type="line"/>
			<point x="543" y="640" type="line"/>
			<point x="445" y="549" type="line"/>
			<point x="416" y="566"/>
			<point x="380" y="576"/>
			<point x="339" y="576" type="curve" smooth="yes"/>
			<point x="299" y="576"/>
			<point x="261" y="567"/>
			<point x="228" y="550" type="curve"/>
			<point x="155" y="643" type="line"/>
			<point x="66" y="565" type="line"/>
			<point x="142" y="471" type="line"/>
			<point x="117" y="433"/>
			<point x="100" y="386"/>
			<point x="95" y="331" type="curve" smooth="yes"/>
			<point x="90" y="287"/>
			<point x="95" y="249"/>
			<point x="107" y="217" type="curve"/>
			<point x="3" y="119" type="line"/>
		</contour>
		<contour>
			<point x="297" y="214" type="curve" smooth="yes"/>
			<point x="234" y="214"/>
			<point x="204" y="256"/>
			<point x="210" y="333" type="curve" smooth="yes"/>
			<point x="216" y="418"/>
			<point x="257" y="466"/>
			<point x="325" y="466" type="curve" smooth="yes"/>
			<point x="386" y="466"/>
			<point x="417" y="424"/>
			<point x="411" y="347" type="curve" smooth="yes"/>
			<point x="405" y="262"/>
			<point x="364" y="214"/>
		</contour>
	</outline>
</glyph>
<glyph name="yen" format="2">
	<unicode hex="00A5"/>
	<advance width="600"/>
	<outline>
		<contour>
			<point x="49" y="152" type="line"/>
			<point x="205" y="152" type="line"/>
			<point x="184" y="0" type="line"/>
			<point x="334" y="0" type="line"/>
			<point x="355" y="152" type="line"/>
			<point x="513" y="152" type="line"/>
			<point x="525" y="238" type="line"/>
			<point x="371" y="238" type="line"/>
			<point x="407" y="296" type="line"/>
			<point x="533" y="296" type="line"/>
			<point x="544" y="382" type="line"/>
			<point x="460" y="382" type="line"/>
			<point x="646" y="684" type="line"/>
			<point x="483" y="684" type="line"/>
			<point x="318" y="396" type="line"/>
			<point x="234" y="684" type="line"/>
			<point x="72" y="684" type="line"/>
			<point x="168" y="382" type="line"/>
			<point x="80" y="382" type="line"/>
			<point x="68" y="296" type="line"/>
			<point x="196" y="296" type="line"/>
			<point x="214" y="238" type="line"/>
			<point x="61" y="238" type="line"/>
		</contour>
	</outline>
</glyph>
<glyph name="section" format="2">
	<unicode hex="00A7"/>
	<advance width="600"/>
	<outline>
		<contour>
			<point x="271" y="-85" type="curve" smooth="yes"/>
			<point x="398" y="-85"/>
			<point x="487" y="-12"/>
			<point x="487" y="108" type="curve" smooth="yes"/>
			<point x="487" y="153"/>
			<point x="469" y="193"/>
			<point x="429" y="218" type="curve"/>
			<point x="490" y="237"/>
			<point x="541" y="277"/>
			<point x="541" y="346" type="curve" smooth="yes"/>
			<point x="541" y="427"/>
			<point x="464" y="454"/>
			<point x="355" y="473" type="curve" smooth="yes"/>
			<point x="291" y="484"/>
			<point x="256" y="492"/>
			<point x="256" y="536" type="curve" smooth="yes"/>
			<point x="256" y="575"/>
			<point x="288" y="599"/>
			<point x="345" y="599" type="curve" smooth="yes"/>
			<point x="409" y="599"/>
			<point x="487" y="578"/>
			<point x="537" y="547" type="curve"/>
			<point x="552" y="649" type="line"/>
			<point x="508" y="674"/>
			<point x="439" y="698"/>
			<point x="345" y="698" type="curve" smooth="yes"/>
			<point x="217" y="698"/>
			<point x="125" y="626"/>
			<point x="125" y="510" type="curve" smooth="yes"/>
			<point x="125" y="453"/>
			<point x="149" y="414"/>
			<point x="188" y="389" type="curve"/>
			<point x="123" y="370"/>
			<point x="72" y="334"/>
			<point x="72" y="263" type="curve" smooth="yes"/>
			<point x="72" y="177"/>
			<point x="151" y="157"/>
			<point x="261" y="140" type="curve" smooth="yes"/>
			<point x="321" y="131"/>
			<point x="356" y="117"/>
			<point x="356" y="80" type="curve" smooth="yes"/>
			<point x="356" y="39"/>
			<point x="324" y="16"/>
			<point x="266" y="16" type="curve" smooth="yes"/>
			<point x="203" y="16"/>
			<point x="126" y="39"/>
			<point x="70" y="76" type="curve"/>
			<point x="56" y="-25" type="line"/>
			<point x="105" y="-59"/>
			<point x="182" y="-85"/>
		</contour>
		<contour>
			<point x="336" y="247" type="curve" smooth="yes"/>
			<point x="282" y="253"/>
			<point x="185" y="264"/>
			<point x="185" y="316" type="curve" smooth="yes"/>
			<point x="185" y="345"/>
			<point x="207" y="364"/>
			<point x="245" y="366" type="curve"/>
			<point x="246" y="366" type="line"/>
			<point x="255" y="367"/>
			<point x="264" y="366"/>
			<point x="275" y="365" type="curve" smooth="yes"/>
			<point x="335" y="360"/>
			<point x="429" y="348"/>
			<point x="430" y="298" type="curve" smooth="yes"/>
			<point x="431" y="261"/>
			<point x="399" y="239"/>
		</contour>
	</outline>
</glyph>
<glyph name="dieresis" format="2">
	<unicode hex="00A8"/>
	<advance width="600"/>
	<outline>
		<contour>
			<point x="460" y="608" type="curve" smooth="yes"/>
			<point x="521" y="608"/>
			<point x="540" y="630"/>
			<point x="545" y="678" type="curve" smooth="yes"/>
			<point x="550" y="722"/>
			<point x="530" y="745"/>
			<point x="472" y="745" type="curve" smooth="yes"/>
			<point x="411" y="745"/>
			<point x="392" y="722"/>
			<point x="387" y="675" type="curve" smooth="yes"/>
			<point x="382" y="630"/>
			<point x="402" y="608"/>
		</contour>
		<contour>
			<point x="244" y="608" type="curve" smooth="yes"/>
			<point x="305" y="608"/>
			<point x="325" y="630"/>
			<point x="329" y="678" type="curve" smooth="yes"/>
			<point x="334" y="722"/>
			<point x="314" y="745"/>
			<point x="256" y="745" type="curve" smooth="yes"/>
			<point x="195" y="745"/>
			<point x="176" y="722"/>
			<point x="171" y="675" type="curve" smooth="yes"/>
			<point x="166" y="630"/>
			<point x="186" y="608"/>
		</contour>
	</outline>
	<anchor name="_top" x="337" y="523"/>
</glyph>
<glyph name="guillemetleft" format="2">
	<unicode hex="00AB"/>
	<advance width="600"/>
	<outline>
		<contour>
			<point x="307" y="77" type="line"/>
			<point x="186" y="286" type="line"/>
			<point x="367" y="497" type="line"/>
			<point x="215" y="497" type="line"/>
			<point x="38" y="287" type="line"/>
			<point x="157" y="77" type="line"/>
		</contour>
		<contour>
			<point x="537" y="77" type="line"/>
			<point x="416" y="285" type="line"/>
			<point x="597" y="497" type="line"/>
			<point x="445" y="497" type="line"/>
			<point x="269" y="287" type="line"/>
			<point x="388" y="77" type="line"/>
		</contour>
	</outline>
</glyph>
<glyph name="logicalnot" format="2">
	<unicode hex="00AC"/>
	<advance width="600"/>
	<outline>
		<contour>
			<point x="504" y="45" type="line"/>
			<point x="546" y="356" type="line"/>
			<point x="78" y="356" type="line"/>
			<point x="62" y="233" type="line"/>
			<point x="395" y="233" type="line"/>
			<point x="371" y="45" type="line"/>
		</contour>
	</outline>
</glyph>
<glyph name="macron" format="2">
	<unicode hex="00AF"/>
	<advance width="600"/>
	<outline>
		<contour>
			<point x="194" y="623" type="line"/>
			<point x="507" y="623" type="line"/>
			<point x="519" y="711" type="line"/>
			<point x="207" y="711" type="line"/>
		</contour>
	</outline>
	<anchor name="_top" x="337" y="523"/>
</glyph>
<glyph name="degree" format="2">
	<unicode hex="00B0"/>
	<advance width="600"/>
	<outline>
		<contour>
			<point x="325" y="289" type="curve" smooth="yes"/>
			<point x="445" y="289"/>
			<point x="533" y="387"/>
			<point x="533" y="508" type="curve" smooth="yes"/>
			<point x="533" y="618"/>
			<point x="457" y="696"/>
			<point x="343" y="696" type="curve" smooth="yes"/>
			<point x="221" y="696"/>
			<point x="133" y="604"/>
			<point x="133" y="480" type="curve" smooth="yes"/>
			<point x="133" y="370"/>
			<point x="206" y="289"/>
		</contour>
		<contour>
			<point x="325" y="382" type="curve" smooth="yes"/>
			<point x="267" y="382"/>
			<point x="230" y="426"/>
			<point x="230" y="486" type="curve" smooth="yes"/>
			<point x="230" y="553"/>
			<point x="278" y="602"/>
			<point x="339" y="602" type="curve" smooth="yes"/>
			<point x="401" y="602"/>
			<point x="436" y="561"/>
			<point x="436" y="501" type="curve" smooth="yes"/>
			<point x="436" y="435"/>
			<point x="390" y="382"/>
		</contour>
	</outline>
</glyph>
<glyph name="mu" format="2">
	<unicode hex="00B5"/>
	<advance width="600"/>
	<outline>
		<contour>
			<point x="2" y="-189" type="line"/>
			<point x="148" y="-189" type="line"/>
			<point x="173" y="-13" type="line"/>
			<point x="179" y="-14"/>
			<point x="186" y="-14"/>
			<point x="193" y="-14" type="curve" smooth="yes"/>
			<point x="264" y="-14"/>
			<point x="327" y="29"/>
			<point x="369" y="102" type="curve"/>
			<point x="355" y="0" type="line"/>
			<point x="495" y="0" type="line"/>
			<point x="569" y="523" type="line"/>
			<point x="422" y="523" type="line"/>
			<point x="378" y="212" type="line" smooth="yes"/>
			<point x="374" y="183"/>
			<point x="365" y="159"/>
			<point x="350" y="141" type="curve" smooth="yes"/>
			<point x="333" y="118"/>
			<point x="308" y="104"/>
			<point x="276" y="104" type="curve" smooth="yes"/>
			<point x="218" y="104"/>
			<point x="194" y="139"/>
			<point x="204" y="210" type="curve" smooth="yes"/>
			<point x="249" y="523" type="line"/>
			<point x="102" y="523" type="line"/>
			<point x="54" y="186" type="line" smooth="yes"/>
			<point x="53" y="182"/>
			<point x="53" y="179"/>
			<point x="53" y="175" type="curve"/>
		</contour>
	</outline>
	<anchor name="ogonek" x="524" y="0"/>
	<anchor name="bottom" x="292" y="0"/>
	<anchor name="top" x="358" y="534"/>
</glyph>
<glyph name="paragraph" format="2">
	<unicode hex="00B6"/>
	<advance width="600"/>
	<outline>
		<contour>
			<point x="225" y="0" type="line"/>
			<point x="332" y="0" type="line"/>
			<point x="413" y="580" type="line"/>
			<point x="483" y="580" type="line"/>
			<point x="401" y="0" type="line"/>
			<point x="508" y="0" type="line"/>
			<point x="605" y="684" type="line"/>
			<point x="304" y="684" type="line" smooth="yes"/>
			<point x="145" y="684"/>
			<point x="55" y="582"/>
			<point x="55" y="438" type="curve" smooth="yes"/>
			<point x="55" y="312"/>
			<point x="129" y="241"/>
			<point x="259" y="235" type="curve"/>
		</contour>
	</outline>
</glyph>
<glyph name="ordmasculine" format="2">
	<unicode hex="00BA"/>
	<advance width="600"/>
	<outline>
		<contour>
			<point x="311" y="224" type="curve" smooth="yes"/>
			<point x="445" y="224"/>
			<point x="533" y="310"/>
			<point x="551" y="445" type="curve" smooth="yes"/>
			<point x="571" y="596"/>
			<point x="492" y="696"/>
			<point x="345" y="696" type="curve" smooth="yes"/>
			<point x="210" y="696"/>
			<point x="122" y="612"/>
			<point x="104" y="474" type="curve" smooth="yes"/>
			<point x="85" y="325"/>
			<point x="164" y="224"/>
		</contour>
		<contour>
			<point x="315" y="315" type="curve" smooth="yes"/>
			<point x="239" y="315"/>
			<point x="214" y="379"/>
			<point x="229" y="472" type="curve" smooth="yes"/>
			<point x="242" y="558"/>
			<point x="277" y="605"/>
			<point x="341" y="605" type="curve" smooth="yes"/>
			<point x="416" y="605"/>
			<point x="441" y="543"/>
			<point x="426" y="448" type="curve" smooth="yes"/>
			<point x="413" y="364"/>
			<point x="378" y="315"/>
		</contour>
	</outline>
</glyph>
<glyph name="Oslash" format="2">
	<unicode hex="00D8"/>
	<advance width="600"/>
	<outline>
		<contour>
			<point x="279" y="-14" type="curve" smooth="yes"/>
			<point x="451" y="-14"/>
			<point x="536" y="114"/>
			<point x="564" y="308" type="curve" smooth="yes"/>
			<point x="566" y="322" type="line" smooth="yes"/>
			<point x="582" y="431"/>
			<point x="576" y="517"/>
			<point x="548" y="580" type="curve"/>
			<point x="645" y="708" type="line"/>
			<point x="524" y="708" type="line"/>
			<point x="487" y="658" type="line"/>
			<point x="451" y="685"/>
			<point x="404" y="698"/>
			<point x="346" y="698" type="curve" smooth="yes"/>
			<point x="179" y="698"/>
			<point x="87" y="568"/>
			<point x="59" y="375" type="curve" smooth="yes"/>
			<point x="57" y="361" type="line" smooth="yes"/>
			<point x="42" y="254"/>
			<point x="47" y="168"/>
			<point x="73" y="106" type="curve"/>
			<point x="-24" y="-24" type="line"/>
			<point x="96" y="-24" type="line"/>
			<point x="134" y="27" type="line"/>
			<point x="171" y="0"/>
			<point x="219" y="-14"/>
		</contour>
		<contour>
			<point x="206" y="351" type="curve" smooth="yes"/>
			<point x="207" y="358" type="line" smooth="yes"/>
			<point x="231" y="519"/>
			<point x="271" y="577"/>
			<point x="339" y="577" type="curve" smooth="yes"/>
			<point x="369" y="577"/>
			<point x="392" y="566"/>
			<point x="406" y="540" type="curve"/>
			<point x="197" y="259" type="line"/>
			<point x="198" y="286"/>
			<point x="201" y="316"/>
		</contour>
		<contour>
			<point x="285" y="107" type="curve" smooth="yes"/>
			<point x="253" y="107"/>
			<point x="230" y="119"/>
			<point x="215" y="145" type="curve"/>
			<point x="425" y="428" type="line"/>
			<point x="424" y="401"/>
			<point x="421" y="370"/>
			<point x="416" y="335" type="curve" smooth="yes"/>
			<point x="415" y="328" type="line" smooth="yes"/>
			<point x="392" y="166"/>
			<point x="353" y="107"/>
		</contour>
	</outline>
</glyph>
<glyph name="Thorn" format="2">
	<unicode hex="00DE"/>
	<advance width="600"/>
	<outline>
		<contour>
			<point x="126" y="690" type="line"/>
			<point x="29" y="0" type="line"/>
			<point x="178" y="0" type="line"/>
			<point x="194" y="114" type="line"/>
			<point x="329" y="114" type="line" smooth="yes"/>
			<point x="480" y="114"/>
			<point x="591" y="213"/>
			<point x="591" y="383" type="curve" smooth="yes"/>
			<point x="591" y="515"/>
			<point x="513" y="595"/>
			<point x="362" y="595" type="curve" smooth="yes"/>
			<point x="261" y="595" type="line"/>
			<point x="275" y="690" type="line"/>
		</contour>
		<contour>
			<point x="333" y="476" type="line" smooth="yes"/>
			<point x="413" y="476"/>
			<point x="441" y="430"/>
			<point x="441" y="369" type="curve" smooth="yes"/>
			<point x="441" y="281"/>
			<point x="394" y="233"/>
			<point x="317" y="233" type="curve" smooth="yes"/>
			<point x="211" y="233" type="line"/>
			<point x="245" y="476" type="line"/>
		</contour>
	</outline>
</glyph>
<glyph name="ccedilla" format="2">
	<unicode hex="00E7"/>
	<advance width="600"/>
	<outline>
		<contour>
			<point x="275" y="-230" type="curve" smooth="yes"/>
			<point x="359" y="-230"/>
			<point x="407" y="-189"/>
			<point x="408" y="-122" type="curve" smooth="yes"/>
			<point x="408" y="-75"/>
			<point x="382" y="-50"/>
			<point x="331" y="-46" type="curve"/>
			<point x="352" y="-12" type="line"/>
			<point x="403" y="-12"/>
			<point x="447" y="-4.8125"/>
			<point x="481" y="9" type="curve"/>
			<point x="497" y="124" type="line"/>
			<point x="466" y="111"/>
			<point x="427" y="105"/>
			<point x="391" y="105" type="curve" smooth="yes"/>
			<point x="277" y="105"/>
			<point x="217" y="167"/>
			<point x="233" y="279" type="curve" smooth="yes"/>
			<point x="234" y="286" type="line" smooth="yes"/>
			<point x="247" y="375"/>
			<point x="301" y="418"/>
			<point x="395" y="418" type="curve" smooth="yes"/>
			<point x="457" y="418"/>
			<point x="500" y="405"/>
			<point x="534" y="385" type="curve"/>
			<point x="549" y="498" type="line"/>
			<point x="510" y="521"/>
			<point x="448" y="535"/>
			<point x="378" y="535" type="curve" smooth="yes"/>
			<point x="209" y="535"/>
			<point x="106" y="442"/>
			<point x="86" y="300" type="curve" smooth="yes"/>
			<point x="84" y="286" type="line" smooth="yes"/>
			<point x="62" y="128"/>
			<point x="139" y="23"/>
			<point x="280" y="-5" type="curve"/>
			<point x="229" y="-94" type="line"/>
			<point x="243" y="-92"/>
			<point x="253" y="-91"/>
			<point x="261" y="-91" type="curve" smooth="yes"/>
			<point x="297" y="-91"/>
			<point x="315" y="-101"/>
			<point x="315" y="-124" type="curve" smooth="yes"/>
			<point x="315" y="-148"/>
			<point x="297" y="-160"/>
			<point x="261" y="-160" type="curve" smooth="yes"/>
			<point x="232" y="-160"/>
			<point x="208" y="-153"/>
			<point x="189" y="-143" type="curve"/>
			<point x="181" y="-209" type="line"/>
			<point x="202" y="-221"/>
			<point x="238" y="-230"/>
		</contour>
	</outline>
</glyph>
<glyph name="Aogonek" format="2">
	<unicode hex="0104"/>
	<advance width="600"/>
	<outline>
		<contour>
			<point x="-27" y="0" type="line"/>
			<point x="129" y="0" type="line"/>
			<point x="182" y="141" type="line"/>
			<point x="387" y="141" type="line"/>
			<point x="401" y="0" type="line"/>
			<point x="456" y="0" type="line"/>
			<point x="387" y="-25"/>
			<point x="346" y="-64"/>
			<point x="346" y="-120" type="curve" smooth="yes"/>
			<point x="346" y="-175"/>
			<point x="389" y="-203"/>
			<point x="468" y="-203" type="curve" smooth="yes"/>
			<point x="495" y="-203"/>
			<point x="521" y="-198"/>
			<point x="534" y="-193" type="curve"/>
			<point x="547" y="-103" type="line"/>
			<point x="543" y="-105"/>
			<point x="530" y="-107"/>
			<point x="517" y="-107" type="curve" smooth="yes"/>
			<point x="487" y="-107"/>
			<point x="468" y="-97"/>
			<point x="468" y="-73" type="curve" smooth="yes"/>
			<point x="468" y="-44"/>
			<point x="492" y="-19"/>
			<point x="553" y="0" type="curve"/>
			<point x="465" y="685" type="line"/>
			<point x="253" y="685" type="line"/>
		</contour>
		<contour>
			<point x="227" y="260" type="line"/>
			<point x="345" y="575" type="line"/>
			<point x="376" y="260" type="line"/>
		</contour>
	</outline>
</glyph>
<glyph name="aogonek" format="2">
	<unicode hex="0105"/>
	<advance width="600"/>
	<outline>
		<contour>
			<point x="188" y="-14" type="curve" smooth="yes"/>
			<point x="265" y="-14"/>
			<point x="317" y="28"/>
			<point x="357" y="87" type="curve"/>
			<point x="344" y="0" type="line"/>
			<point x="388" y="0" type="line"/>
			<point x="319" y="-25"/>
			<point x="278" y="-64"/>
			<point x="278" y="-120" type="curve" smooth="yes"/>
			<point x="278" y="-175"/>
			<point x="321" y="-203"/>
			<point x="400" y="-203" type="curve" smooth="yes"/>
			<point x="427" y="-203"/>
			<point x="453" y="-198"/>
			<point x="466" y="-193" type="curve"/>
			<point x="479" y="-103" type="line"/>
			<point x="475" y="-105"/>
			<point x="462" y="-107"/>
			<point x="449" y="-107" type="curve" smooth="yes"/>
			<point x="419" y="-107"/>
			<point x="400" y="-97"/>
			<point x="400" y="-73" type="curve" smooth="yes"/>
			<point x="400" y="-44"/>
			<point x="424" y="-19"/>
			<point x="485" y="0" type="curve"/>
			<point x="531" y="324" type="line" smooth="yes"/>
			<point x="552" y="477"/>
			<point x="462" y="537"/>
			<point x="318" y="537" type="curve" smooth="yes"/>
			<point x="243" y="537"/>
			<point x="168" y="520"/>
			<point x="112" y="494" type="curve"/>
			<point x="93" y="370" type="line"/>
			<point x="153" y="404"/>
			<point x="219" y="422"/>
			<point x="287" y="422" type="curve" smooth="yes"/>
			<point x="362" y="422"/>
			<point x="394" y="389"/>
			<point x="385" y="328" type="curve"/>
			<point x="287" y="314" type="line" smooth="yes"/>
			<point x="125" y="292"/>
			<point x="44" y="231"/>
			<point x="44" y="114" type="curve" smooth="yes"/>
			<point x="45" y="38"/>
			<point x="97" y="-14"/>
		</contour>
		<contour>
			<point x="257" y="87" type="curve" smooth="yes"/>
			<point x="213" y="87"/>
			<point x="184" y="110"/>
			<point x="184" y="147" type="curve" smooth="yes"/>
			<point x="184" y="191"/>
			<point x="214" y="219"/>
			<point x="293" y="231" type="curve" smooth="yes"/>
			<point x="373" y="242" type="line"/>
			<point x="364" y="183" type="line" smooth="yes"/>
			<point x="355" y="125"/>
			<point x="315" y="87"/>
		</contour>
	</outline>
</glyph>
<glyph name="Dcroat" format="2">
	<unicode hex="0110"/>
	<advance width="600"/>
	<outline>
		<contour>
			<point x="18" y="0" type="line"/>
			<point x="275" y="0" type="line" smooth="yes"/>
			<point x="456" y="0"/>
			<point x="548" y="104"/>
			<point x="575" y="302" type="curve" smooth="yes"/>
			<point x="577" y="319" type="line" smooth="yes"/>
			<point x="607" y="539"/>
			<point x="531" y="684"/>
			<point x="338" y="684" type="curve" smooth="yes"/>
			<point x="114" y="684" type="line"/>
			<point x="72" y="388" type="line"/>
			<point x="19" y="388" type="line"/>
			<point x="6" y="291" type="line"/>
			<point x="59" y="291" type="line"/>
		</contour>
		<contour>
			<point x="309" y="564" type="line" smooth="yes"/>
			<point x="405" y="564"/>
			<point x="446" y="500"/>
			<point x="426" y="339" type="curve" smooth="yes"/>
			<point x="425" y="328" type="line" smooth="yes"/>
			<point x="407" y="186"/>
			<point x="361" y="122"/>
			<point x="271" y="122" type="curve" smooth="yes"/>
			<point x="184" y="122" type="line"/>
			<point x="208" y="291" type="line"/>
			<point x="321" y="291" type="line"/>
			<point x="336" y="388" type="line"/>
			<point x="222" y="388" type="line"/>
			<point x="247" y="564" type="line"/>
		</contour>
	</outline>
</glyph>
<glyph name="dcroat" format="2">
	<unicode hex="0111"/>
	<advance width="600"/>
	<outline>
		<contour>
			<point x="201" y="-14" type="curve" smooth="yes"/>
			<point x="269" y="-14"/>
			<point x="328" y="23"/>
			<point x="372" y="105" type="curve"/>
			<point x="356" y="0" type="line"/>
			<point x="497" y="0" type="line"/>
			<point x="580" y="588" type="line"/>
			<point x="634" y="588" type="line"/>
			<point x="646" y="670" type="line"/>
			<point x="592" y="670" type="line"/>
			<point x="603" y="750" type="line"/>
			<point x="456" y="750" type="line"/>
			<point x="445" y="670" type="line"/>
			<point x="296" y="670" type="line"/>
			<point x="285" y="588" type="line"/>
			<point x="433" y="588" type="line"/>
			<point x="424" y="523" type="line"/>
			<point x="368" y="523" type="line" smooth="yes"/>
			<point x="185" y="523"/>
			<point x="73" y="423"/>
			<point x="49" y="260" type="curve" smooth="yes"/>
			<point x="47" y="246" type="line" smooth="yes"/>
			<point x="24" y="84"/>
			<point x="84" y="-14"/>
		</contour>
		<contour>
			<point x="197" y="252" type="curve" smooth="yes"/>
			<point x="198" y="259" type="line"/>
			<point x="213" y="363"/>
			<point x="265" y="409"/>
			<point x="356" y="409" type="curve" smooth="yes"/>
			<point x="408" y="409" type="line"/>
			<point x="381" y="215" type="line" smooth="yes"/>
			<point x="371" y="144"/>
			<point x="333" y="101"/>
			<point x="276" y="101" type="curve" smooth="yes"/>
			<point x="212" y="101"/>
			<point x="183" y="157"/>
		</contour>
	</outline>
</glyph>
<glyph name="Eogonek" format="2">
	<unicode hex="0118"/>
	<advance width="600"/>
	<outline>
		<contour>
			<point x="424" y="-203" type="curve" smooth="yes"/>
			<point x="451" y="-203"/>
			<point x="477" y="-198"/>
			<point x="490" y="-193" type="curve"/>
			<point x="503" y="-103" type="line"/>
			<point x="499" y="-105"/>
			<point x="486" y="-107"/>
			<point x="473" y="-107" type="curve" smooth="yes"/>
			<point x="443" y="-107"/>
			<point x="424" y="-97"/>
			<point x="424" y="-73" type="curve" smooth="yes"/>
			<point x="424" y="-44"/>
			<point x="448" y="-19"/>
			<point x="509" y="0" type="curve"/>
			<point x="527" y="123" type="line"/>
			<point x="203" y="123" type="line"/>
			<point x="224" y="282" type="line"/>
			<point x="503" y="282" type="line"/>
			<point x="520" y="403" type="line"/>
			<point x="243" y="403" type="line"/>
			<point x="265" y="562" type="line"/>
			<point x="584" y="562" type="line"/>
			<point x="601" y="684" type="line"/>
			<point x="133" y="684" type="line"/>
			<point x="37" y="0" type="line"/>
			<point x="412" y="0" type="line"/>
			<point x="343" y="-25"/>
			<point x="302" y="-64"/>
			<point x="302" y="-120" type="curve" smooth="yes"/>
			<point x="302" y="-175"/>
			<point x="345" y="-203"/>
		</contour>
	</outline>
</glyph>
<glyph name="hbar" format="2">
	<unicode hex="0127"/>
	<advance width="600"/>
	<outline>
		<contour>
			<point x="56" y="588" type="line"/>
			<point x="115" y="588" type="line"/>
			<point x="33" y="0" type="line"/>
			<point x="180" y="0" type="line"/>
			<point x="225" y="319" type="line" smooth="yes"/>
			<point x="228" y="340"/>
			<point x="235" y="358"/>
			<point x="246" y="374" type="curve" smooth="yes"/>
			<point x="263" y="398"/>
			<point x="288" y="416"/>
			<point x="325" y="416" type="curve" smooth="yes"/>
			<point x="381" y="416"/>
			<point x="406" y="381"/>
			<point x="396" y="307" type="curve" smooth="yes"/>
			<point x="352" y="0" type="line"/>
			<point x="499" y="0" type="line"/>
			<point x="547" y="334" type="line" smooth="yes"/>
			<point x="565" y="462"/>
			<point x="514" y="537"/>
			<point x="412" y="537" type="curve" smooth="yes"/>
			<point x="341" y="537"/>
			<point x="285" y="496"/>
			<point x="240" y="426" type="curve"/>
			<point x="262" y="588" type="line"/>
			<point x="405" y="588" type="line"/>
			<point x="417" y="670" type="line"/>
			<point x="274" y="670" type="line"/>
			<point x="285" y="750" type="line"/>
			<point x="138" y="750" type="line"/>
			<point x="127" y="670" type="line"/>
			<point x="67" y="670" type="line"/>
		</contour>
	</outline>
</glyph>
<glyph name="ij" format="2">
	<unicode hex="0133"/>
	<advance width="600"/>
	<outline>
		<contour>
			<point x="212" y="605" type="curve" smooth="yes"/>
			<point x="275" y="605"/>
			<point x="302" y="628"/>
			<point x="308" y="677" type="curve" smooth="yes"/>
			<point x="313" y="729"/>
			<point x="289" y="753"/>
			<point x="223" y="753" type="curve" smooth="yes"/>
			<point x="161" y="753"/>
			<point x="133" y="731"/>
			<point x="128" y="681" type="curve" smooth="yes"/>
			<point x="122" y="630"/>
			<point x="147" y="605"/>
		</contour>
		<contour>
			<point x="494" y="605" type="curve" smooth="yes"/>
			<point x="557" y="605"/>
			<point x="584" y="628"/>
			<point x="590" y="677" type="curve" smooth="yes"/>
			<point x="595" y="729"/>
			<point x="571" y="753"/>
			<point x="505" y="753" type="curve" smooth="yes"/>
			<point x="443" y="753"/>
			<point x="415" y="731"/>
			<point x="410" y="681" type="curve" smooth="yes"/>
			<point x="404" y="630"/>
			<point x="429" y="605"/>
		</contour>
		<contour>
			<point x="247" y="-204" type="curve" smooth="yes"/>
			<point x="363" y="-204"/>
			<point x="456" y="-157"/>
			<point x="476" y="-17" type="curve" smooth="yes"/>
			<point x="551" y="523" type="line"/>
			<point x="404" y="523" type="line"/>
			<point x="333" y="12" type="line" smooth="yes"/>
			<point x="323" y="-56"/>
			<point x="287" y="-85"/>
			<point x="222" y="-85" type="curve" smooth="yes"/>
			<point x="175" y="-85"/>
			<point x="138" y="-75"/>
			<point x="111" y="-63" type="curve"/>
			<point x="95" y="-174" type="line"/>
			<point x="126" y="-191"/>
			<point x="185" y="-204"/>
		</contour>
		<contour>
			<point x="48" y="0" type="line"/>
			<point x="195" y="0" type="line"/>
			<point x="269" y="523" type="line"/>
			<point x="122" y="523" type="line"/>
		</contour>
	</outline>
</glyph>
<glyph name="kgreenlandic" format="2">
	<unicode hex="0138"/>
	<advance width="600"/>
	<outline>
		<contour>
			<point x="38" y="0" type="line"/>
			<point x="184" y="0" type="line"/>
			<point x="202" y="121" type="line"/>
			<point x="288" y="219" type="line"/>
			<point x="377" y="0" type="line"/>
			<point x="536" y="0" type="line"/>
			<point x="412" y="303" type="line"/>
			<point x="601" y="524" type="line"/>
			<point x="434" y="524" type="line"/>
			<point x="222" y="272" type="line"/>
			<point x="258" y="524" type="line"/>
			<point x="112" y="524" type="line"/>
		</contour>
	</outline>
</glyph>
<glyph name="Ldot" format="2">
	<unicode hex="013F"/>
	<advance width="600"/>
	<outline>
		<contour>
			<point x="47" y="0" type="line"/>
			<point x="516" y="0" type="line"/>
			<point x="536" y="136" type="line"/>
			<point x="215" y="136" type="line"/>
			<point x="292" y="684" type="line"/>
			<point x="143" y="684" type="line"/>
		</contour>
		<contour>
			<point x="473" y="317" type="curve" smooth="yes"/>
			<point x="539" y="317"/>
			<point x="562" y="353"/>
			<point x="572" y="416" type="curve" smooth="yes"/>
			<point x="582" y="487"/>
			<point x="555" y="526"/>
			<point x="489" y="526" type="curve" smooth="yes"/>
			<point x="422" y="526"/>
			<point x="397" y="491"/>
			<point x="389" y="428" type="curve" smooth="yes"/>
			<point x="379" y="356"/>
			<point x="406" y="317"/>
		</contour>
	</outline>
</glyph>
<glyph name="lslash" format="2">
	<unicode hex="0142"/>
	<advance width="600"/>
	<outline>
		<contour>
			<point x="27" y="0" type="line"/>
			<point x="510" y="0" type="line"/>
			<point x="527" y="115" type="line"/>
			<point x="364" y="115" type="line"/>
			<point x="398" y="352" type="line"/>
			<point x="552" y="407" type="line"/>
			<point x="566" y="511" type="line"/>
			<point x="412" y="456" type="line"/>
			<point x="454" y="750" type="line"/>
			<point x="135" y="750" type="line"/>
			<point x="118" y="635" type="line"/>
			<point x="291" y="635" type="line"/>
			<point x="258" y="400" type="line"/>
			<point x="103" y="345" type="line"/>
			<point x="88" y="241" type="line"/>
			<point x="243" y="296" type="line"/>
			<point x="217" y="115" type="line"/>
			<point x="43" y="115" type="line"/>
		</contour>
	</outline>
</glyph>
<glyph name="eng" format="2">
	<unicode hex="014B"/>
	<advance width="600"/>
	<outline>
		<contour>
			<point x="298" y="-214" type="curve" smooth="yes"/>
			<point x="392" y="-214"/>
			<point x="475" y="-175"/>
			<point x="493" y="-45" type="curve" smooth="yes"/>
			<point x="547" y="334" type="line" smooth="yes"/>
			<point x="565" y="462"/>
			<point x="515" y="537"/>
			<point x="412" y="537" type="curve" smooth="yes"/>
			<point x="336" y="537"/>
			<point x="277" y="492"/>
			<point x="231" y="414" type="curve"/>
			<point x="246" y="523" type="line"/>
			<point x="106" y="523" type="line"/>
			<point x="33" y="0" type="line"/>
			<point x="180" y="0" type="line"/>
			<point x="223" y="309" type="line" smooth="yes"/>
			<point x="227" y="333"/>
			<point x="233" y="355"/>
			<point x="247" y="374" type="curve" smooth="yes"/>
			<point x="264" y="397"/>
			<point x="288" y="416"/>
			<point x="325" y="416" type="curve" smooth="yes"/>
			<point x="381" y="416"/>
			<point x="406" y="381"/>
			<point x="396" y="307" type="curve" smooth="yes"/>
			<point x="349" y="-27" type="line" smooth="yes"/>
			<point x="340" y="-85"/>
			<point x="301" y="-98"/>
			<point x="265" y="-98" type="curve" smooth="yes"/>
			<point x="253" y="-98"/>
			<point x="233" y="-95"/>
			<point x="219" y="-91" type="curve"/>
			<point x="204" y="-199" type="line"/>
			<point x="222" y="-206"/>
			<point x="259" y="-214"/>
		</contour>
	</outline>
</glyph>
<glyph name="OE" format="2">
	<unicode hex="0152"/>
	<advance width="600"/>
	<outline>
		<contour>
			<point x="146" y="-13" type="curve" smooth="yes"/>
			<point x="199" y="-13"/>
			<point x="241" y="23"/>
			<point x="275" y="90" type="curve"/>
			<point x="262" y="0" type="line"/>
			<point x="543" y="0" type="line"/>
			<point x="559" y="119" type="line"/>
			<point x="406" y="119" type="line"/>
			<point x="428" y="283" type="line"/>
			<point x="553" y="283" type="line"/>
			<point x="570" y="401" type="line"/>
			<point x="444" y="401" type="line"/>
			<point x="468" y="566" type="line"/>
			<point x="620" y="566" type="line"/>
			<point x="637" y="684" type="line"/>
			<point x="320" y="684" type="line"/>
			<point x="159" y="684"/>
			<point x="77" y="570"/>
			<point x="44" y="340" type="curve" smooth="yes"/>
			<point x="42" y="326" type="line" smooth="yes"/>
			<point x="11" y="108"/>
			<point x="45" y="-13"/>
		</contour>
		<contour>
			<point x="220" y="109" type="curve" smooth="yes"/>
			<point x="167" y="109"/>
			<point x="153" y="178"/>
			<point x="173" y="324" type="curve" smooth="yes"/>
			<point x="174" y="331" type="line" smooth="yes"/>
			<point x="195" y="479"/>
			<point x="223" y="566"/>
			<point x="312" y="566" type="curve" smooth="yes"/>
			<point x="339" y="566" type="line"/>
			<point x="287" y="197" type="line" smooth="yes"/>
			<point x="280" y="142"/>
			<point x="255" y="109"/>
		</contour>
	</outline>
</glyph>
<glyph name="tcaron" format="2">
	<unicode hex="0165"/>
	<advance width="600"/>
	<outline>
		<contour>
			<point x="483" y="618" type="line"/>
			<point x="560" y="618" type="line"/>
			<point x="655" y="780" type="line"/>
			<point x="514" y="780" type="line"/>
		</contour>
		<contour>
			<point x="352" y="-12" type="curve" smooth="yes"/>
			<point x="410" y="-12"/>
			<point x="456" y="-1"/>
			<point x="481" y="12" type="curve"/>
			<point x="496" y="119" type="line"/>
			<point x="472" y="110"/>
			<point x="440" y="104"/>
			<point x="408" y="104" type="curve" smooth="yes"/>
			<point x="339" y="104"/>
			<point x="309" y="127"/>
			<point x="320" y="205" type="curve" smooth="yes"/>
			<point x="348" y="408" type="line"/>
			<point x="542" y="408" type="line"/>
			<point x="558" y="523" type="line"/>
			<point x="366" y="523" type="line"/>
			<point x="390" y="692" type="line"/>
			<point x="258" y="692" type="line"/>
			<point x="236" y="588" type="line" smooth="yes"/>
			<point x="224" y="528"/>
			<point x="196" y="517"/>
			<point x="154" y="517" type="curve" smooth="yes"/>
			<point x="82" y="517" type="line"/>
			<point x="67" y="408" type="line"/>
			<point x="201" y="408" type="line"/>
			<point x="171" y="188" type="line" smooth="yes"/>
			<point x="151" y="43"/>
			<point x="218" y="-12"/>
		</contour>
	</outline>
</glyph>
<glyph name="Uogonek" format="2">
	<unicode hex="0172"/>
	<advance width="600"/>
	<outline>
		<contour>
			<point x="288" y="-203" type="curve" smooth="yes"/>
			<point x="315" y="-203"/>
			<point x="341" y="-198"/>
			<point x="354" y="-193" type="curve"/>
			<point x="367" y="-103" type="line"/>
			<point x="363" y="-105"/>
			<point x="350" y="-107"/>
			<point x="337" y="-107" type="curve" smooth="yes"/>
			<point x="307" y="-107"/>
			<point x="288" y="-97"/>
			<point x="288" y="-73" type="curve" smooth="yes"/>
			<point x="288" y="-44"/>
			<point x="312" y="-19"/>
			<point x="373" y="0" type="curve"/>
			<point x="372" y="0" type="line"/>
			<point x="468" y="29"/>
			<point x="523" y="105"/>
			<point x="540" y="227" type="curve" smooth="yes"/>
			<point x="604" y="684" type="line"/>
			<point x="455" y="684" type="line"/>
			<point x="391" y="227" type="line" smooth="yes"/>
			<point x="381" y="156"/>
			<point x="348" y="110"/>
			<point x="285" y="110" type="curve" smooth="yes"/>
			<point x="219" y="110"/>
			<point x="190" y="158"/>
			<point x="200" y="233" type="curve" smooth="yes"/>
			<point x="264" y="684" type="line"/>
			<point x="114" y="684" type="line"/>
			<point x="52" y="241" type="line" smooth="yes"/>
			<point x="29" y="80"/>
			<point x="102" y="-5"/>
			<point x="245" y="-13" type="curve"/>
			<point x="194" y="-39"/>
			<point x="166" y="-73"/>
			<point x="166" y="-120" type="curve" smooth="yes"/>
			<point x="166" y="-175"/>
			<point x="209" y="-203"/>
		</contour>
	</outline>
</glyph>
<glyph name="uogonek" format="2">
	<unicode hex="0173"/>
	<advance width="600"/>
	<outline>
		<contour>
			<point x="410" y="-203" type="curve" smooth="yes"/>
			<point x="437" y="-203"/>
			<point x="463" y="-198"/>
			<point x="476" y="-193" type="curve"/>
			<point x="489" y="-103" type="line"/>
			<point x="485" y="-105"/>
			<point x="472" y="-107"/>
			<point x="459" y="-107" type="curve" smooth="yes"/>
			<point x="429" y="-107"/>
			<point x="410" y="-97"/>
			<point x="410" y="-73" type="curve" smooth="yes"/>
			<point x="410" y="-44"/>
			<point x="434" y="-19"/>
			<point x="495" y="0" type="curve"/>
			<point x="569" y="523" type="line"/>
			<point x="422" y="523" type="line"/>
			<point x="378" y="212" type="line" smooth="yes"/>
			<point x="374" y="183"/>
			<point x="365" y="159"/>
			<point x="350" y="141" type="curve" smooth="yes"/>
			<point x="333" y="118"/>
			<point x="308" y="104"/>
			<point x="276" y="104" type="curve" smooth="yes"/>
			<point x="218" y="104"/>
			<point x="194" y="139"/>
			<point x="204" y="210" type="curve" smooth="yes"/>
			<point x="249" y="523" type="line"/>
			<point x="102" y="523" type="line"/>
			<point x="54" y="186" type="line" smooth="yes"/>
			<point x="37" y="61"/>
			<point x="81" y="-14"/>
			<point x="191" y="-14" type="curve" smooth="yes"/>
			<point x="264" y="-14"/>
			<point x="327" y="29"/>
			<point x="369" y="103" type="curve"/>
			<point x="355" y="0" type="line"/>
			<point x="398" y="0" type="line"/>
			<point x="329" y="-25"/>
			<point x="288" y="-64"/>
			<point x="288" y="-120" type="curve" smooth="yes"/>
			<point x="288" y="-175"/>
			<point x="331" y="-203"/>
		</contour>
	</outline>
</glyph>
<glyph name="dotlessj" format="2">
	<unicode hex="0237"/>
	<advance width="600"/>
	<outline>
		<contour>
			<point x="179" y="-204" type="curve" smooth="yes"/>
			<point x="322" y="-204"/>
			<point x="421" y="-151"/>
			<point x="442" y="-1" type="curve" smooth="yes"/>
			<point x="516" y="523" type="line"/>
			<point x="114" y="523" type="line"/>
			<point x="97" y="408" type="line"/>
			<point x="353" y="408" type="line"/>
			<point x="300" y="30" type="line" smooth="yes"/>
			<point x="288" y="-56"/>
			<point x="241" y="-85"/>
			<point x="154" y="-85" type="curve" smooth="yes"/>
			<point x="105" y="-85"/>
			<point x="61" y="-72"/>
			<point x="30" y="-59" type="curve"/>
			<point x="14" y="-171" type="line"/>
			<point x="50" y="-190"/>
			<point x="111" y="-204"/>
		</contour>
	</outline>
	<anchor name="top" x="443" y="523"/>
</glyph>
<glyph name="circumflex" format="2">
	<unicode hex="02C6"/>
	<advance width="600"/>
	<outline>
		<contour>
			<point x="157" y="600" type="line"/>
			<point x="288" y="600" type="line"/>
			<point x="363" y="690" type="line"/>
			<point x="411" y="600" type="line"/>
			<point x="538" y="600" type="line"/>
			<point x="447" y="750" type="line"/>
			<point x="289" y="750" type="line"/>
		</contour>
	</outline>
	<anchor name="_top" x="340" y="523"/>
</glyph>
<glyph name="breve" format="2">
	<unicode hex="02D8"/>
	<advance width="600"/>
	<outline>
		<contour>
			<point x="350" y="590" type="curve" smooth="yes"/>
			<point x="466" y="590"/>
			<point x="519" y="634"/>
			<point x="535" y="750" type="curve"/>
			<point x="428" y="750" type="line"/>
			<point x="421" y="697"/>
			<point x="410" y="670"/>
			<point x="361" y="670" type="curve" smooth="yes"/>
			<point x="311" y="670"/>
			<point x="303" y="697"/>
			<point x="310" y="750" type="curve"/>
			<point x="203" y="750" type="line"/>
			<point x="187" y="637"/>
			<point x="237" y="590"/>
		</contour>
	</outline>
	<anchor name="_top" x="338" y="523"/>
</glyph>
<glyph name="dotaccent" format="2">
	<unicode hex="02D9"/>
	<advance width="600"/>
	<outline>
		<contour>
			<point x="351" y="601" type="curve" smooth="yes"/>
			<point x="415" y="601"/>
			<point x="442" y="624"/>
			<point x="448" y="673" type="curve" smooth="yes"/>
			<point x="454" y="725"/>
			<point x="429" y="748"/>
			<point x="366" y="748" type="curve" smooth="yes"/>
			<point x="301" y="748"/>
			<point x="274" y="726"/>
			<point x="268" y="677" type="curve" smooth="yes"/>
			<point x="262" y="626"/>
			<point x="287" y="601"/>
		</contour>
	</outline>
	<anchor name="_top" x="337" y="523"/>
</glyph>
<glyph name="ring" format="2">
	<unicode hex="02DA"/>
	<advance width="600"/>
	<outline>
		<contour>
			<point x="356" y="588" type="curve" smooth="yes"/>
			<point x="447" y="588"/>
			<point x="500" y="641"/>
			<point x="500" y="724" type="curve" smooth="yes"/>
			<point x="500" y="796"/>
			<point x="458" y="839"/>
			<point x="371" y="839" type="curve" smooth="yes"/>
			<point x="281" y="839"/>
			<point x="228" y="787"/>
			<point x="228" y="705" type="curve" smooth="yes"/>
			<point x="228" y="632"/>
			<point x="269" y="588"/>
		</contour>
		<contour>
			<point x="360" y="653" type="curve" smooth="yes"/>
			<point x="320" y="653"/>
			<point x="304" y="674"/>
			<point x="304" y="708" type="curve" smooth="yes"/>
			<point x="304" y="751"/>
			<point x="325" y="775"/>
			<point x="368" y="775" type="curve" smooth="yes"/>
			<point x="409" y="775"/>
			<point x="424" y="754"/>
			<point x="424" y="721" type="curve" smooth="yes"/>
			<point x="424" y="678"/>
			<point x="403" y="653"/>
		</contour>
	</outline>
	<anchor name="_top" x="336" y="523"/>
</glyph>
<glyph name="ogonek" format="2">
	<unicode hex="02DB"/>
	<advance width="600"/>
	<outline>
		<contour>
			<point x="267" y="-203" type="curve" smooth="yes"/>
			<point x="294" y="-203"/>
			<point x="320" y="-198"/>
			<point x="333" y="-193" type="curve"/>
			<point x="346" y="-103" type="line"/>
			<point x="342" y="-105"/>
			<point x="329" y="-107"/>
			<point x="316" y="-107" type="curve" smooth="yes"/>
			<point x="286" y="-107"/>
			<point x="267" y="-97"/>
			<point x="267" y="-73" type="curve" smooth="yes"/>
			<point x="267" y="-44"/>
			<point x="291" y="-19"/>
			<point x="352" y="0" type="curve"/>
			<point x="258" y="1" type="line"/>
			<point x="186" y="-25"/>
			<point x="145" y="-64"/>
			<point x="145" y="-120" type="curve" smooth="yes"/>
			<point x="145" y="-175"/>
			<point x="188" y="-203"/>
		</contour>
	</outline>
	<anchor name="_ogonek" x="352" y="0"/>
</glyph>
<glyph name="hungarumlaut" format="2">
	<unicode hex="02DD"/>
	<advance width="600"/>
	<outline>
		<contour>
			<point x="357" y="600" type="line"/>
			<point x="458" y="600" type="line"/>
			<point x="566" y="750" type="line"/>
			<point x="429" y="750" type="line"/>
		</contour>
		<contour>
			<point x="162" y="600" type="line"/>
			<point x="264" y="600" type="line"/>
			<point x="371" y="750" type="line"/>
			<point x="234" y="750" type="line"/>
		</contour>
	</outline>
	<anchor name="_top" x="300" y="523"/>
</glyph>
<glyph name="emdash" format="2">
	<unicode hex="2014"/>
	<advance width="600"/>
	<outline>
		<contour>
			<point x="614" y="361" type="line"/>
			<point x="14" y="361" type="line"/>
			<point x="-5" y="227" type="line"/>
			<point x="594" y="227" type="line"/>
		</contour>
	</outline>
</glyph>
<glyph name="quoteleft" format="2">
	<unicode hex="2018"/>
	<advance width="600"/>
	<outline>
		<contour>
			<point x="382" y="446" type="line"/>
			<point x="469" y="750" type="line"/>
			<point x="372" y="750" type="line"/>
			<point x="214" y="446" type="line"/>
		</contour>
	</outline>
</glyph>
<glyph name="quotesinglbase" format="2">
	<unicode hex="201A"/>
	<advance width="600"/>
	<outline>
		<contour>
			<point x="230" y="158" type="line"/>
			<point x="143" y="-147" type="line"/>
			<point x="240" y="-147" type="line"/>
			<point x="398" y="158" type="line"/>
		</contour>
	</outline>
</glyph>
<glyph name="quotedblright" format="2">
	<unicode hex="201D"/>
	<advance width="600"/>
	<outline>
		<contour>
			<point x="213" y="750" type="line"/>
			<point x="127" y="446" type="line"/>
			<point x="222" y="446" type="line"/>
			<point x="377" y="750" type="line"/>
		</contour>
		<contour>
			<point x="432" y="750" type="line"/>
			<point x="347" y="446" type="line"/>
			<point x="442" y="446" type="line"/>
			<point x="597" y="750" type="line"/>
		</contour>
	</outline>
</glyph>
<glyph name="dagger" format="2">
	<unicode hex="2020"/>
	<advance width="600"/>
	<outline>
		<contour>
			<point x="100" y="570" type="line"/>
			<point x="82" y="439" type="line"/>
			<point x="252" y="439" type="line"/>
			<point x="171" y="-143" type="line"/>
			<point x="315" y="-143" type="line"/>
			<point x="397" y="439" type="line"/>
			<point x="567" y="439" type="line"/>
			<point x="586" y="570" type="line"/>
			<point x="416" y="570" type="line"/>
			<point x="443" y="765" type="line"/>
			<point x="298" y="765" type="line"/>
			<point x="271" y="570" type="line"/>
		</contour>
	</outline>
</glyph>
<glyph name="daggerdbl" format="2">
	<unicode hex="2021"/>
	<advance width="600"/>
	<outline>
		<contour>
			<point x="51" y="221" type="line"/>
			<point x="34" y="95" type="line"/>
			<point x="205" y="95" type="line"/>
			<point x="171" y="-143" type="line"/>
			<point x="316" y="-143" type="line"/>
			<point x="349" y="95" type="line"/>
			<point x="519" y="95" type="line"/>
			<point x="537" y="221" type="line"/>
			<point x="367" y="221" type="line"/>
			<point x="401" y="462" type="line"/>
			<point x="570" y="462" type="line"/>
			<point x="589" y="588" type="line"/>
			<point x="418" y="588" type="line"/>
			<point x="443" y="765" type="line"/>
			<point x="299" y="765" type="line"/>
			<point x="274" y="588" type="line"/>
			<point x="103" y="588" type="line"/>
			<point x="85" y="462" type="line"/>
			<point x="256" y="462" type="line"/>
			<point x="222" y="221" type="line"/>
		</contour>
	</outline>
</glyph>
<glyph name="bullet" format="2">
	<unicode hex="2022"/>
	<advance width="600"/>
	<outline>
		<contour>
			<point x="294" y="132" type="curve" smooth="yes"/>
			<point x="395" y="132"/>
			<point x="438" y="179"/>
			<point x="450" y="282" type="curve" smooth="yes"/>
			<point x="462" y="380"/>
			<point x="426" y="441"/>
			<point x="314" y="441" type="curve" smooth="yes"/>
			<point x="213" y="441"/>
			<point x="168" y="393"/>
			<point x="157" y="291" type="curve" smooth="yes"/>
			<point x="145" y="193"/>
			<point x="181" y="132"/>
		</contour>
	</outline>
</glyph>
<glyph name="ellipsis" format="2">
	<unicode hex="2026"/>
	<advance width="600"/>
	<outline>
		<contour>
			<point x="70" y="-12" type="curve" smooth="yes"/>
			<point x="120" y="-12"/>
			<point x="139" y="21"/>
			<point x="147" y="73" type="curve" smooth="yes"/>
			<point x="156" y="133"/>
			<point x="138" y="168"/>
			<point x="87" y="168" type="curve" smooth="yes"/>
			<point x="36" y="168"/>
			<point x="17" y="136"/>
			<point x="10" y="83" type="curve" smooth="yes"/>
			<point x="1" y="22"/>
			<point x="19" y="-12"/>
		</contour>
		<contour>
			<point x="266" y="-12" type="curve" smooth="yes"/>
			<point x="317" y="-12"/>
			<point x="335" y="21"/>
			<point x="343" y="73" type="curve" smooth="yes"/>
			<point x="351" y="133"/>
			<point x="333" y="168"/>
			<point x="283" y="168" type="curve" smooth="yes"/>
			<point x="232" y="168"/>
			<point x="213" y="136"/>
			<point x="205" y="83" type="curve" smooth="yes"/>
			<point x="197" y="22"/>
			<point x="215" y="-12"/>
		</contour>
		<contour>
			<point x="462" y="-12" type="curve" smooth="yes"/>
			<point x="512" y="-12"/>
			<point x="531" y="21"/>
			<point x="538" y="73" type="curve" smooth="yes"/>
			<point x="547" y="133"/>
			<point x="529" y="168"/>
			<point x="479" y="168" type="curve" smooth="yes"/>
			<point x="428" y="168"/>
			<point x="409" y="136"/>
			<point x="401" y="83" type="curve" smooth="yes"/>
			<point x="393" y="22"/>
			<point x="411" y="-12"/>
		</contour>
	</outline>
</glyph>
<glyph name="Euro" format="2">
	<unicode hex="20AC"/>
	<advance width="600"/>
	<outline>
		<contour>
			<point x="16" y="228" type="line"/>
			<point x="104" y="228" type="line"/>
			<point x="126" y="85"/>
			<point x="221" y="-12"/>
			<point x="395" y="-12" type="curve" smooth="yes"/>
			<point x="448" y="-12"/>
			<point x="491" y="-2"/>
			<point x="524" y="12" type="curve"/>
			<point x="540" y="139" type="line"/>
			<point x="501" y="122"/>
			<point x="462" y="115"/>
			<point x="419" y="115" type="curve" smooth="yes"/>
			<point x="334" y="115"/>
			<point x="283" y="158"/>
			<point x="263" y="228" type="curve"/>
			<point x="464" y="228" type="line"/>
			<point x="476" y="313" type="line"/>
			<point x="254" y="313" type="line"/>
			<point x="255" y="331"/>
			<point x="256" y="350"/>
			<point x="259" y="369" type="curve" smooth="yes"/>
			<point x="260" y="374" type="line"/>
			<point x="485" y="374" type="line"/>
			<point x="497" y="459" type="line"/>
			<point x="281" y="459" type="line"/>
			<point x="312" y="537"/>
			<point x="369" y="572"/>
			<point x="450" y="572" type="curve" smooth="yes"/>
			<point x="503" y="572"/>
			<point x="552" y="560"/>
			<point x="596" y="533" type="curve"/>
			<point x="613" y="655" type="line"/>
			<point x="576" y="677"/>
			<point x="518" y="695"/>
			<point x="442" y="695" type="curve" smooth="yes"/>
			<point x="273" y="695"/>
			<point x="165" y="606"/>
			<point x="122" y="459" type="curve"/>
			<point x="49" y="459" type="line"/>
			<point x="37" y="374" type="line"/>
			<point x="105" y="374" type="line"/>
			<point x="102" y="355"/>
			<point x="100" y="334"/>
			<point x="99" y="313" type="curve"/>
			<point x="28" y="313" type="line"/>
		</contour>
	</outline>
</glyph>
<glyph name="published" format="2">
	<unicode hex="2117"/>
	<advance width="600"/>
	<outline>
		<contour>
			<point x="302" y="103" type="curve" smooth="yes"/>
			<point x="440" y="103"/>
			<point x="552" y="186"/>
			<point x="574" y="340" type="curve" smooth="yes"/>
			<point x="576" y="354" type="line" smooth="yes"/>
			<point x="603" y="539"/>
			<point x="496" y="657"/>
			<point x="331" y="657" type="curve" smooth="yes"/>
			<point x="192" y="657"/>
			<point x="81" y="574"/>
			<point x="59" y="422" type="curve" smooth="yes"/>
			<point x="57" y="408" type="line" smooth="yes"/>
			<point x="30" y="222"/>
			<point x="138" y="103"/>
		</contour>
		<contour>
			<point x="307" y="165" type="curve" smooth="yes"/>
			<point x="174" y="165"/>
			<point x="102" y="258"/>
			<point x="123" y="407" type="curve" smooth="yes"/>
			<point x="124" y="414" type="line" smooth="yes"/>
			<point x="141" y="531"/>
			<point x="214" y="595"/>
			<point x="326" y="595" type="curve" smooth="yes"/>
			<point x="460" y="595"/>
			<point x="531" y="503"/>
			<point x="510" y="354" type="curve" smooth="yes"/>
			<point x="509" y="347" type="line" smooth="yes"/>
			<point x="492" y="230"/>
			<point x="418" y="165"/>
		</contour>
		<contour>
			<point x="202" y="251" type="line"/>
			<point x="269" y="251" type="line"/>
			<point x="280" y="326" type="line"/>
			<point x="328" y="326" type="line" smooth="yes"/>
			<point x="396" y="326"/>
			<point x="444" y="363"/>
			<point x="444" y="427" type="curve" smooth="yes"/>
			<point x="444" y="479"/>
			<point x="409" y="512"/>
			<point x="340" y="512" type="curve" smooth="yes"/>
			<point x="239" y="512" type="line"/>
		</contour>
		<contour>
			<point x="331" y="461" type="line" smooth="yes"/>
			<point x="362" y="461"/>
			<point x="375" y="446"/>
			<point x="375" y="422" type="curve" smooth="yes"/>
			<point x="375" y="396"/>
			<point x="358" y="378"/>
			<point x="326" y="378" type="curve" smooth="yes"/>
			<point x="288" y="378" type="line"/>
			<point x="299" y="461" type="line"/>
		</contour>
	</outline>
</glyph>
<glyph name="servicemark" format="2">
	<unicode hex="2120"/>
	<advance width="600"/>
	<outline>
		<contour>
			<point x="152" y="337" type="curve" smooth="yes"/>
			<point x="233" y="337"/>
			<point x="284" y="387"/>
			<point x="284" y="457" type="curve" smooth="yes"/>
			<point x="284" y="518"/>
			<point x="248" y="531"/>
			<point x="193" y="548" type="curve" smooth="yes"/>
			<point x="154" y="560"/>
			<point x="139" y="567"/>
			<point x="139" y="589" type="curve" smooth="yes"/>
			<point x="139" y="615"/>
			<point x="157" y="628"/>
			<point x="189" y="628" type="curve" smooth="yes"/>
			<point x="234" y="628"/>
			<point x="273" y="612"/>
			<point x="297" y="592" type="curve"/>
			<point x="307" y="660" type="line"/>
			<point x="291" y="672"/>
			<point x="249" y="689"/>
			<point x="195" y="689" type="curve" smooth="yes"/>
			<point x="106" y="689"/>
			<point x="63" y="638"/>
			<point x="63" y="571" type="curve" smooth="yes"/>
			<point x="63" y="505"/>
			<point x="107" y="492"/>
			<point x="159" y="478" type="curve" smooth="yes"/>
			<point x="190" y="470"/>
			<point x="207" y="462"/>
			<point x="207" y="440" type="curve" smooth="yes"/>
			<point x="207" y="414"/>
			<point x="188" y="399"/>
			<point x="154" y="399" type="curve" smooth="yes"/>
			<point x="118" y="399"/>
			<point x="77" y="414"/>
			<point x="48" y="437" type="curve"/>
			<point x="38" y="370" type="line"/>
			<point x="57" y="356"/>
			<point x="97" y="337"/>
		</contour>
		<contour>
			<point x="302" y="342" type="line"/>
			<point x="367" y="342" type="line"/>
			<point x="384" y="458" type="line" smooth="yes"/>
			<point x="391" y="513"/>
			<point x="395" y="559"/>
			<point x="396" y="608" type="curve"/>
			<point x="401" y="608" type="line"/>
			<point x="422" y="429" type="line"/>
			<point x="482" y="429" type="line"/>
			<point x="555" y="608" type="line"/>
			<point x="559" y="608" type="line"/>
			<point x="546" y="556"/>
			<point x="537" y="511"/>
			<point x="530" y="459" type="curve" smooth="yes"/>
			<point x="514" y="342" type="line"/>
			<point x="580" y="342" type="line"/>
			<point x="628" y="684" type="line"/>
			<point x="528" y="684" type="line"/>
			<point x="463" y="505" type="line"/>
			<point x="461" y="505" type="line"/>
			<point x="445" y="684" type="line"/>
			<point x="350" y="684" type="line"/>
		</contour>
	</outline>
</glyph>
<glyph name="trademark" format="2">
	<unicode hex="2122"/>
	<advance width="600"/>
	<outline>
		<contour>
			<point x="302" y="342" type="line"/>
			<point x="367" y="342" type="line"/>
			<point x="384" y="458" type="line" smooth="yes"/>
			<point x="391" y="512"/>
			<point x="395" y="562"/>
			<point x="396" y="608" type="curve"/>
			<point x="401" y="608" type="line"/>
			<point x="422" y="429" type="line"/>
			<point x="482" y="429" type="line"/>
			<point x="555" y="608" type="line"/>
			<point x="559" y="608" type="line"/>
			<point x="547" y="560"/>
			<point x="538" y="515"/>
			<point x="530" y="459" type="curve" smooth="yes"/>
			<point x="514" y="342" type="line"/>
			<point x="580" y="342" type="line"/>
			<point x="628" y="684" type="line"/>
			<point x="528" y="684" type="line"/>
			<point x="463" y="505" type="line"/>
			<point x="461" y="505" type="line"/>
			<point x="445" y="684" type="line"/>
			<point x="350" y="684" type="line"/>
		</contour>
		<contour>
			<point x="109" y="342" type="line"/>
			<point x="187" y="342" type="line"/>
			<point x="225" y="619" type="line"/>
			<point x="311" y="619" type="line"/>
			<point x="320" y="684" type="line"/>
			<point x="71" y="684" type="line"/>
			<point x="62" y="619" type="line"/>
			<point x="148" y="619" type="line"/>
		</contour>
	</outline>
</glyph>
<glyph name="ohm" format="2">
	<unicode hex="2126"/>
	<advance width="600"/>
	<outline>
		<contour>
			<point x="3" y="0" type="line"/>
			<point x="243" y="0" type="line"/>
			<point x="259" y="124" type="line"/>
			<point x="213" y="202"/>
			<point x="200" y="304"/>
			<point x="214" y="403" type="curve" smooth="yes"/>
			<point x="215" y="410" type="line" smooth="yes"/>
			<point x="231" y="524"/>
			<point x="271" y="576"/>
			<point x="338" y="576" type="curve" smooth="yes"/>
			<point x="423" y="576"/>
			<point x="443" y="507"/>
			<point x="426" y="389" type="curve" smooth="yes"/>
			<point x="425" y="382" type="line" smooth="yes"/>
			<point x="409" y="266"/>
			<point x="364" y="190"/>
			<point x="302" y="124" type="curve"/>
			<point x="284" y="0" type="line"/>
			<point x="524" y="0" type="line"/>
			<point x="541" y="123" type="line"/>
			<point x="442" y="123" type="line"/>
			<point x="506" y="182"/>
			<point x="560" y="264"/>
			<point x="576" y="377" type="curve" smooth="yes"/>
			<point x="578" y="391" type="line" smooth="yes"/>
			<point x="603" y="569"/>
			<point x="541" y="698"/>
			<point x="347" y="698" type="curve" smooth="yes"/>
			<point x="188" y="698"/>
			<point x="91" y="605"/>
			<point x="66" y="431" type="curve" smooth="yes"/>
			<point x="64" y="417" type="line" smooth="yes"/>
			<point x="46" y="294"/>
			<point x="73" y="191"/>
			<point x="125" y="123" type="curve"/>
			<point x="20" y="122" type="line"/>
		</contour>
	</outline>
</glyph>
<glyph name="arrowleft" format="2">
	<unicode hex="2190"/>
	<advance width="600"/>
	<outline>
		<contour>
			<point x="365" y="122" type="line"/>
			<point x="218" y="290" type="line"/>
			<point x="574" y="290" type="line"/>
			<point x="591" y="407" type="line"/>
			<point x="235" y="407" type="line"/>
			<point x="427" y="573" type="line"/>
			<point x="280" y="573" type="line"/>
			<point x="24" y="348" type="line"/>
			<point x="218" y="122" type="line"/>
		</contour>
	</outline>
</glyph>
<glyph name="arrowdown" format="2">
	<unicode hex="2193"/>
	<advance width="600"/>
	<outline>
		<contour>
			<point x="538" y="352" type="line"/>
			<point x="348" y="184" type="line"/>
			<point x="418" y="684" type="line"/>
			<point x="300" y="684" type="line"/>
			<point x="231" y="184" type="line"/>
			<point x="87" y="352" type="line"/>
			<point x="67" y="205" type="line"/>
			<point x="260" y="-19" type="line"/>
			<point x="517" y="207" type="line"/>
		</contour>
	</outline>
</glyph>
<glyph name="uni2196" format="2">
	<unicode hex="2196"/>
	<advance width="600"/>
	<outline>
		<contour>
			<point x="477" y="64" type="line"/>
			<point x="565" y="142" type="line"/>
			<point x="249" y="507" type="line"/>
			<point x="501" y="506" type="line"/>
			<point x="412" y="610" type="line"/>
			<point x="85" y="610" type="line"/>
			<point x="39" y="281" type="line"/>
			<point x="127" y="178" type="line"/>
			<point x="160" y="431" type="line"/>
		</contour>
	</outline>
</glyph>
<glyph name="uni2197" format="2">
	<unicode hex="2197"/>
	<advance width="600"/>
	<outline>
		<contour>
			<point x="79" y="64" type="line"/>
			<point x="483" y="420" type="line"/>
			<point x="448" y="179" type="line"/>
			<point x="567" y="283" type="line"/>
			<point x="613" y="610" type="line"/>
			<point x="284" y="610" type="line"/>
			<point x="166" y="507" type="line"/>
			<point x="409" y="510" type="line"/>
			<point x="4" y="153" type="line"/>
		</contour>
	</outline>
</glyph>
<glyph name="uni2198" format="2">
	<unicode hex="2198"/>
	<advance width="600"/>
	<outline>
		<contour>
			<point x="210" y="65" type="line"/>
			<point x="537" y="65" type="line"/>
			<point x="583" y="394" type="line"/>
			<point x="495" y="497" type="line"/>
			<point x="461" y="243" type="line"/>
			<point x="145" y="611" type="line"/>
			<point x="57" y="533" type="line"/>
			<point x="374" y="168" type="line"/>
			<point x="121" y="170" type="line"/>
		</contour>
	</outline>
</glyph>
<glyph name="product" format="2">
	<unicode hex="220F"/>
	<advance width="600"/>
	<outline>
		<contour>
			<point x="25" y="0" type="line"/>
			<point x="168" y="0" type="line"/>
			<point x="247" y="561" type="line"/>
			<point x="437" y="561" type="line"/>
			<point x="358" y="0" type="line"/>
			<point x="500" y="0" type="line"/>
			<point x="597" y="684" type="line"/>
			<point x="122" y="684" type="line"/>
		</contour>
	</outline>
</glyph>
<glyph name="summation" format="2">
	<unicode hex="2211"/>
	<advance width="600"/>
	<outline>
		<contour>
			<point x="18" y="0" type="line"/>
			<point x="510" y="0" type="line"/>
			<point x="528" y="123" type="line"/>
			<point x="222" y="123" type="line"/>
			<point x="446" y="293" type="line"/>
			<point x="461" y="394" type="line"/>
			<point x="284" y="563" type="line"/>
			<point x="587" y="563" type="line"/>
			<point x="603" y="684" type="line"/>
			<point x="116" y="684" type="line"/>
			<point x="99" y="562" type="line"/>
			<point x="324" y="347" type="line"/>
			<point x="36" y="130" type="line"/>
		</contour>
	</outline>
</glyph>
<glyph name="radical" format="2">
	<unicode hex="221A"/>
	<advance width="600"/>
	<outline>
		<contour>
			<point x="138" y="0" type="line"/>
			<point x="327" y="0" type="line"/>
			<point x="645" y="684" type="line"/>
			<point x="484" y="684" type="line"/>
			<point x="252" y="155" type="line"/>
			<point x="217" y="450" type="line"/>
			<point x="50" y="450" type="line"/>
			<point x="32" y="323" type="line"/>
			<point x="89" y="323" type="line"/>
		</contour>
	</outline>
</glyph>
<glyph name="integral" format="2">
	<unicode hex="222B"/>
	<advance width="600"/>
	<outline>
		<contour>
			<point x="103" y="-204" type="curve" smooth="yes"/>
			<point x="218" y="-204"/>
			<point x="305" y="-151"/>
			<point x="323" y="-19" type="curve" smooth="yes"/>
			<point x="394" y="489" type="line" smooth="yes"/>
			<point x="403" y="558"/>
			<point x="438" y="584"/>
			<point x="496" y="584" type="curve" smooth="yes"/>
			<point x="528" y="584"/>
			<point x="552" y="578"/>
			<point x="566" y="573" type="curve"/>
			<point x="581" y="678" type="line"/>
			<point x="560" y="688"/>
			<point x="522" y="697"/>
			<point x="468" y="697" type="curve" smooth="yes"/>
			<point x="363" y="697"/>
			<point x="271" y="653"/>
			<point x="251" y="508" type="curve" smooth="yes"/>
			<point x="179" y="-6" type="line" smooth="yes"/>
			<point x="170" y="-69"/>
			<point x="139" y="-96"/>
			<point x="74" y="-96" type="curve" smooth="yes"/>
			<point x="51" y="-96"/>
			<point x="26" y="-92"/>
			<point x="4" y="-85" type="curve"/>
			<point x="-9" y="-186" type="line"/>
			<point x="13" y="-196"/>
			<point x="54" y="-204"/>
		</contour>
	</outline>
</glyph>
<glyph name="greaterequal" format="2">
	<unicode hex="2265"/>
	<advance width="600"/>
	<outline>
		<contour>
			<point x="52" y="162" type="line"/>
			<point x="545" y="338" type="line"/>
			<point x="568" y="500" type="line"/>
			<point x="124" y="673" type="line"/>
			<point x="105" y="545" type="line"/>
			<point x="439" y="421" type="line"/>
			<point x="71" y="298" type="line"/>
		</contour>
		<contour>
			<point x="29" y="0" type="line"/>
			<point x="497" y="0" type="line"/>
			<point x="514" y="123" type="line"/>
			<point x="46" y="123" type="line"/>
		</contour>
	</outline>
</glyph>
<glyph name="commaaccent" format="2">
	<unicode hex="F6C3"/>
	<advance width="600"/>
	<outline>
		<contour>
			<point x="151" y="-283" type="curve"/>
			<point x="245" y="-283" type="line"/>
			<point x="286" y="-247"/>
			<point x="313" y="-203"/>
			<point x="322" y="-150" type="curve" smooth="yes"/>
			<point x="334" y="-86"/>
			<point x="314" y="-53"/>
			<point x="245" y="-53" type="curve" smooth="yes"/>
			<point x="191" y="-53"/>
			<point x="168" y="-74"/>
			<point x="162" y="-119" type="curve" smooth="yes"/>
			<point x="157" y="-160"/>
			<point x="171" y="-184"/>
			<point x="212" y="-188" type="curve"/>
			<point x="198" y="-221"/>
			<point x="176" y="-254"/>
		</contour>
	</outline>
	<anchor name="_bottom" x="262" y="0"/>
</glyph>
<glyph name="Anocross" format="2">
	<advance width="600"/>
	<outline>
		<contour>
			<point x="-27" y="0" type="line"/>
			<point x="129" y="0" type="line"/>
			<point x="345" y="575" type="line"/>
			<point x="401" y="0" type="line"/>
			<point x="553" y="0" type="line"/>
			<point x="465" y="685" type="line"/>
			<point x="253" y="685" type="line"/>
		</contour>
	</outline>
	<anchor name="ogonek" x="553" y="0"/>
	<anchor name="bottom" x="303" y="0"/>
	<anchor name="top" x="359" y="684"/>
</glyph>
<glyph name=".notdef" format="2">
	<advance width="600"/>
	<outline>
		<contour>
			<point x="75" y="-100" type="line"/>
			<point x="525" y="-100" type="line"/>
			<point x="525" y="784" type="line"/>
			<point x="75" y="784" type="line"/>
		</contour>
		<contour>
			<point x="187" y="0.8" type="line"/>
			<point x="187" y="683.2" type="line"/>
			<point x="413" y="683.2" type="line"/>
			<point x="413" y="0.8" type="line"/>
		</contour>
	</outline>
</glyph>
<glyph name="a.ss01" format="2">
	<advance width="600"/>
	<outline>
		<contour>
			<point x="201" y="-14" type="curve" smooth="yes"/>
			<point x="269" y="-14"/>
			<point x="328" y="23"/>
			<point x="372" y="105" type="curve"/>
			<point x="356" y="0" type="line"/>
			<point x="497" y="0" type="line"/>
			<point x="571" y="523" type="line"/>
			<point x="368" y="523" type="line" smooth="yes"/>
			<point x="185" y="523"/>
			<point x="73" y="423"/>
			<point x="49" y="260" type="curve" smooth="yes"/>
			<point x="47" y="246" type="line" smooth="yes"/>
			<point x="24" y="84"/>
			<point x="84" y="-14"/>
		</contour>
		<contour>
			<point x="197" y="252" type="curve" smooth="yes"/>
			<point x="198" y="259" type="line"/>
			<point x="213" y="363"/>
			<point x="265" y="409"/>
			<point x="356" y="409" type="curve" smooth="yes"/>
			<point x="408" y="409" type="line"/>
			<point x="381" y="215" type="line" smooth="yes"/>
			<point x="371" y="144"/>
			<point x="333" y="101"/>
			<point x="276" y="101" type="curve" smooth="yes"/>
			<point x="212" y="101"/>
			<point x="183" y="157"/>
		</contour>
	</outline>
	<anchor name="ogonek" x="497" y="0"/>
	<anchor name="bottom" x="264" y="-3"/>
	<anchor name="top" x="364" y="523"/>
</glyph>
<glyph name="acute.cap" format="2">
	<advance width="600"/>
	<outline>
		<contour>
			<point x="261" y="744" type="line"/>
			<point x="372" y="744" type="line"/>
			<point x="494" y="884" type="line"/>
			<point x="334" y="884" type="line"/>
		</contour>
	</outline>
	<anchor name="_top" x="308" y="684"/>
</glyph>
<glyph name="ampersand_ampersand.cLig" format="2">
	<advance width="600"/>
	<outline>
		<contour>
			<point x="-323" y="-14" type="curve" smooth="yes"/>
			<point x="-242" y="-14"/>
			<point x="-168" y="19"/>
			<point x="-112" y="75" type="curve"/>
			<point x="-79" y="20"/>
			<point x="-15" y="-14"/>
			<point x="69" y="-14" type="curve" smooth="yes"/>
			<point x="151" y="-14"/>
			<point x="221" y="13"/>
			<point x="279" y="60" type="curve"/>
			<point x="327" y="0" type="line"/>
			<point x="488" y="0" type="line"/>
			<point x="366" y="157" type="line"/>
			<point x="413" y="226"/>
			<point x="448" y="311"/>
			<point x="473" y="404" type="curve"/>
			<point x="351" y="404" type="line"/>
			<point x="336" y="345"/>
			<point x="317" y="293"/>
			<point x="295" y="249" type="curve"/>
			<point x="183" y="392" type="line" smooth="yes"/>
			<point x="152" y="431"/>
			<point x="141" y="462"/>
			<point x="144" y="497" type="curve" smooth="yes"/>
			<point x="147" y="547"/>
			<point x="181" y="580"/>
			<point x="240" y="580" type="curve" smooth="yes"/>
			<point x="287" y="580"/>
			<point x="331" y="556"/>
			<point x="364" y="531" type="curve"/>
			<point x="382" y="655" type="line"/>
			<point x="351" y="678"/>
			<point x="296" y="698"/>
			<point x="236" y="698" type="curve" smooth="yes"/>
			<point x="97" y="698"/>
			<point x="18" y="616"/>
			<point x="8" y="509" type="curve" smooth="yes"/>
			<point x="5" y="473"/>
			<point x="9" y="439"/>
			<point x="21" y="408" type="curve"/>
			<point x="-40" y="377"/>
			<point x="-90" y="332"/>
			<point x="-117" y="270" type="curve"/>
			<point x="-216" y="392" type="line" smooth="yes"/>
			<point x="-247" y="431"/>
			<point x="-258" y="462"/>
			<point x="-255" y="497" type="curve" smooth="yes"/>
			<point x="-252" y="547"/>
			<point x="-217" y="580"/>
			<point x="-162" y="580" type="curve" smooth="yes"/>
			<point x="-114" y="580"/>
			<point x="-71" y="557"/>
			<point x="-40" y="533" type="curve"/>
			<point x="-22" y="657" type="line"/>
			<point x="-52" y="679"/>
			<point x="-103" y="698"/>
			<point x="-166" y="698" type="curve" smooth="yes"/>
			<point x="-302" y="698"/>
			<point x="-380" y="616"/>
			<point x="-390" y="509" type="curve" smooth="yes"/>
			<point x="-394" y="472"/>
			<point x="-389" y="437"/>
			<point x="-377" y="404" type="curve"/>
			<point x="-460" y="363"/>
			<point x="-521" y="294"/>
			<point x="-530" y="191" type="curve" smooth="yes"/>
			<point x="-541" y="74"/>
			<point x="-461" y="-14"/>
		</contour>
		<contour>
			<point x="-8" y="202" type="curve" smooth="yes"/>
			<point x="-5" y="256"/>
			<point x="28" y="298"/>
			<point x="74" y="318" type="curve"/>
			<point x="214" y="142" type="line"/>
			<point x="180" y="114"/>
			<point x="142" y="98"/>
			<point x="101" y="98" type="curve" smooth="yes"/>
			<point x="24" y="98"/>
			<point x="-13" y="141"/>
		</contour>
		<contour>
			<point x="-402" y="202" type="curve" smooth="yes"/>
			<point x="-399" y="255"/>
			<point x="-367" y="296"/>
			<point x="-323" y="316" type="curve"/>
			<point x="-180" y="150" type="line"/>
			<point x="-215" y="116"/>
			<point x="-255" y="98"/>
			<point x="-298" y="98" type="curve" smooth="yes"/>
			<point x="-372" y="98"/>
			<point x="-407" y="141"/>
		</contour>
	</outline>
</glyph>
<glyph name="ampersand_ampersand_ampersand.rem" format="2">
	<advance width="600"/>
	<outline>
		<contour>
			<point x="-847" y="-14" type="curve" smooth="yes"/>
			<point x="-760" y="-14"/>
			<point x="-681" y="21"/>
			<point x="-622" y="79" type="curve"/>
			<point x="-589" y="22"/>
			<point x="-522" y="-14"/>
			<point x="-429" y="-14" type="curve" smooth="yes"/>
			<point x="-342" y="-14"/>
			<point x="-263" y="20"/>
			<point x="-204" y="77" type="curve"/>
			<point x="-170" y="21"/>
			<point x="-104" y="-14"/>
			<point x="-15" y="-14" type="curve" smooth="yes"/>
			<point x="73" y="-14"/>
			<point x="147" y="14"/>
			<point x="208" y="63" type="curve"/>
			<point x="261" y="0" type="line"/>
			<point x="422" y="0" type="line"/>
			<point x="296" y="156" type="line"/>
			<point x="345" y="225"/>
			<point x="382" y="311"/>
			<point x="408" y="404" type="curve"/>
			<point x="286" y="404" type="line"/>
			<point x="269" y="343"/>
			<point x="249" y="289"/>
			<point x="224" y="245" type="curve"/>
			<point x="104" y="392" type="line" smooth="yes"/>
			<point x="70" y="433"/>
			<point x="59" y="462"/>
			<point x="61" y="496" type="curve" smooth="yes"/>
			<point x="65" y="547"/>
			<point x="101" y="580"/>
			<point x="160" y="580" type="curve" smooth="yes"/>
			<point x="207" y="580"/>
			<point x="252" y="556"/>
			<point x="285" y="531" type="curve"/>
			<point x="303" y="655" type="line"/>
			<point x="272" y="678"/>
			<point x="216" y="698"/>
			<point x="156" y="698" type="curve" smooth="yes"/>
			<point x="17" y="698"/>
			<point x="-64" y="615"/>
			<point x="-74" y="509" type="curve" smooth="yes"/>
			<point x="-77" y="474"/>
			<point x="-73" y="441"/>
			<point x="-62" y="410" type="curve"/>
			<point x="-126" y="380"/>
			<point x="-180" y="331"/>
			<point x="-208" y="265" type="curve"/>
			<point x="-319" y="392" type="line" smooth="yes"/>
			<point x="-351" y="428"/>
			<point x="-361" y="462"/>
			<point x="-359" y="496" type="curve" smooth="yes"/>
			<point x="-355" y="547"/>
			<point x="-319" y="580"/>
			<point x="-264" y="580" type="curve" smooth="yes"/>
			<point x="-215" y="580"/>
			<point x="-173" y="557"/>
			<point x="-141" y="533" type="curve"/>
			<point x="-124" y="657" type="line"/>
			<point x="-154" y="679"/>
			<point x="-205" y="698"/>
			<point x="-268" y="698" type="curve" smooth="yes"/>
			<point x="-403" y="698"/>
			<point x="-484" y="615"/>
			<point x="-494" y="509" type="curve" smooth="yes"/>
			<point x="-498" y="472"/>
			<point x="-493" y="438"/>
			<point x="-482" y="406" type="curve"/>
			<point x="-547" y="376"/>
			<point x="-600" y="326"/>
			<point x="-627" y="260" type="curve"/>
			<point x="-741" y="392" type="line" smooth="yes"/>
			<point x="-774" y="429"/>
			<point x="-785" y="462"/>
			<point x="-782" y="497" type="curve" smooth="yes"/>
			<point x="-779" y="547"/>
			<point x="-743" y="580"/>
			<point x="-688" y="580" type="curve" smooth="yes"/>
			<point x="-640" y="580"/>
			<point x="-597" y="557"/>
			<point x="-566" y="533" type="curve"/>
			<point x="-542" y="657" type="line"/>
			<point x="-572" y="679"/>
			<point x="-629" y="698"/>
			<point x="-692" y="698" type="curve" smooth="yes"/>
			<point x="-828" y="698"/>
			<point x="-908" y="616"/>
			<point x="-918" y="509" type="curve" smooth="yes"/>
			<point x="-921" y="472"/>
			<point x="-917" y="437"/>
			<point x="-905" y="404" type="curve"/>
			<point x="-989" y="363"/>
			<point x="-1052" y="293"/>
			<point x="-1061" y="190" type="curve" smooth="yes"/>
			<point x="-1072" y="73"/>
			<point x="-986" y="-14"/>
		</contour>
		<contour>
			<point x="-99" y="199" type="curve" smooth="yes"/>
			<point x="-96" y="254"/>
			<point x="-60" y="298"/>
			<point x="-6" y="318" type="curve"/>
			<point x="141" y="143" type="line"/>
			<point x="104" y="114"/>
			<point x="63" y="98"/>
			<point x="17" y="98" type="curve" smooth="yes"/>
			<point x="-65" y="98"/>
			<point x="-104" y="139"/>
		</contour>
		<contour>
			<point x="-933" y="200" type="curve" smooth="yes"/>
			<point x="-930" y="254"/>
			<point x="-896" y="296"/>
			<point x="-849" y="317" type="curve"/>
			<point x="-695" y="150" type="line"/>
			<point x="-732" y="116"/>
			<point x="-776" y="98"/>
			<point x="-823" y="98" type="curve" smooth="yes"/>
			<point x="-896" y="98"/>
			<point x="-938" y="141"/>
		</contour>
		<contour>
			<point x="-516" y="200" type="curve" smooth="yes"/>
			<point x="-513" y="254"/>
			<point x="-479" y="296"/>
			<point x="-427" y="316" type="curve"/>
			<point x="-275" y="150" type="line"/>
			<point x="-313" y="116"/>
			<point x="-357" y="98"/>
			<point x="-405" y="98" type="curve" smooth="yes"/>
			<point x="-483" y="98"/>
			<point x="-521" y="140"/>
		</contour>
	</outline>
</glyph>
<glyph name="aogonek.001" format="2">
	<advance width="600"/>
	<outline>
		<contour>
			<point x="201" y="-14" type="curve" smooth="yes"/>
			<point x="269" y="-14"/>
			<point x="328" y="23"/>
			<point x="372" y="105" type="curve"/>
			<point x="356" y="0" type="line"/>
			<point x="400" y="0" type="line"/>
			<point x="331" y="-25"/>
			<point x="290" y="-64"/>
			<point x="290" y="-120" type="curve" smooth="yes"/>
			<point x="290" y="-175"/>
			<point x="333" y="-203"/>
			<point x="412" y="-203" type="curve" smooth="yes"/>
			<point x="439" y="-203"/>
			<point x="465" y="-198"/>
			<point x="478" y="-193" type="curve"/>
			<point x="491" y="-103" type="line"/>
			<point x="487" y="-105"/>
			<point x="474" y="-107"/>
			<point x="461" y="-107" type="curve" smooth="yes"/>
			<point x="431" y="-107"/>
			<point x="412" y="-97"/>
			<point x="412" y="-73" type="curve" smooth="yes"/>
			<point x="412" y="-44"/>
			<point x="436" y="-19"/>
			<point x="497" y="0" type="curve"/>
			<point x="571" y="523" type="line"/>
			<point x="368" y="523" type="line" smooth="yes"/>
			<point x="185" y="523"/>
			<point x="73" y="423"/>
			<point x="49" y="260" type="curve" smooth="yes"/>
			<point x="47" y="246" type="line" smooth="yes"/>
			<point x="24" y="84"/>
			<point x="84" y="-14"/>
		</contour>
		<contour>
			<point x="197" y="252" type="curve" smooth="yes"/>
			<point x="198" y="259" type="line"/>
			<point x="213" y="363"/>
			<point x="265" y="409"/>
			<point x="356" y="409" type="curve" smooth="yes"/>
			<point x="408" y="409" type="line"/>
			<point x="381" y="215" type="line" smooth="yes"/>
			<point x="371" y="144"/>
			<point x="333" y="101"/>
			<point x="276" y="101" type="curve" smooth="yes"/>
			<point x="212" y="101"/>
			<point x="183" y="157"/>
		</contour>
	</outline>
</glyph>
<glyph name="asciitilde_asciitilde.cLig" format="2">
	<advance width="600"/>
	<outline>
		<contour>
			<point x="-101" y="188" type="curve"/>
			<point x="14" y="188"/>
			<point x="33" y="310"/>
			<point x="107" y="310" type="curve"/>
			<point x="180" y="310"/>
			<point x="181" y="188"/>
			<point x="314" y="188" type="curve"/>
			<point x="411" y="188"/>
			<point x="483" y="271"/>
			<point x="525" y="435" type="curve"/>
			<point x="410" y="435" type="line"/>
			<point x="387" y="363"/>
			<point x="359" y="321"/>
			<point x="313" y="321" type="curve"/>
			<point x="235" y="321"/>
			<point x="249" y="441"/>
			<point x="113" y="441" type="curve"/>
			<point x="-13" y="441"/>
			<point x="-24" y="322"/>
			<point x="-94" y="321" type="curve"/>
			<point x="-163" y="322"/>
			<point x="-163" y="441"/>
			<point x="-289" y="441" type="curve"/>
			<point x="-394" y="441"/>
			<point x="-466" y="361"/>
			<point x="-509" y="195" type="curve"/>
			<point x="-394" y="195" type="line"/>
			<point x="-371" y="269"/>
			<point x="-345" y="310"/>
			<point x="-294" y="310" type="curve"/>
			<point x="-222" y="310"/>
			<point x="-223" y="188"/>
		</contour>
	</outline>
</glyph>
<glyph name="asciitilde_hyphen.cLig" format="2">
	<advance width="600"/>
	<outline>
		<contour>
			<point x="437" y="373" type="line"/>
			<point x="2" y="373" type="line"/>
			<point x="-8" y="333"/>
			<point x="-27" y="305"/>
			<point x="-64" y="305" type="curve" smooth="yes"/>
			<point x="-126" y="305"/>
			<point x="-149" y="425"/>
			<point x="-255" y="425" type="curve" smooth="yes"/>
			<point x="-344" y="425"/>
			<point x="-408" y="363"/>
			<point x="-429" y="190" type="curve"/>
			<point x="-317" y="190" type="line"/>
			<point x="-310" y="257"/>
			<point x="-290" y="291"/>
			<point x="-254" y="291" type="curve" smooth="yes"/>
			<point x="-196" y="291"/>
			<point x="-166" y="174"/>
			<point x="-58" y="174" type="curve" smooth="yes"/>
			<point x="-11" y="174"/>
			<point x="31" y="193"/>
			<point x="60" y="241" type="curve"/>
			<point x="418" y="241" type="line"/>
		</contour>
	</outline>
</glyph>
<glyph name="asterisk_asterisk.cLig" format="2">
	<advance width="600"/>
	<outline>
		<contour>
			<point x="-114" y="139" type="line"/>
			<point x="-30" y="257" type="line"/>
			<point x="-205" y="321" type="line"/>
			<point x="-11" y="385" type="line"/>
			<point x="-61" y="503" type="line"/>
			<point x="-229" y="374" type="line"/>
			<point x="-164" y="567" type="line"/>
			<point x="-300" y="567" type="line"/>
			<point x="-291" y="375" type="line"/>
			<point x="-422" y="503" type="line"/>
			<point x="-507" y="386" type="line"/>
			<point x="-329" y="321" type="line"/>
			<point x="-523" y="257" type="line"/>
			<point x="-472" y="140" type="line"/>
			<point x="-306" y="267" type="line"/>
			<point x="-369" y="75" type="line"/>
			<point x="-233" y="75" type="line"/>
			<point x="-243" y="265" type="line"/>
		</contour>
		<contour>
			<point x="438" y="138" type="line"/>
			<point x="522" y="256" type="line"/>
			<point x="347" y="320" type="line"/>
			<point x="541" y="384" type="line"/>
			<point x="491" y="502" type="line"/>
			<point x="323" y="373" type="line"/>
			<point x="388" y="566" type="line"/>
			<point x="252" y="566" type="line"/>
			<point x="261" y="374" type="line"/>
			<point x="130" y="502" type="line"/>
			<point x="45" y="385" type="line"/>
			<point x="223" y="320" type="line"/>
			<point x="29" y="256" type="line"/>
			<point x="80" y="139" type="line"/>
			<point x="246" y="266" type="line"/>
			<point x="183" y="74" type="line"/>
			<point x="319" y="74" type="line"/>
			<point x="309" y="264" type="line"/>
		</contour>
	</outline>
</glyph>
<glyph name="asterisk_asterisk_asterisk.cLig" format="2">
	<advance width="600"/>
	<outline>
		<contour>
			<point x="-695" y="65" type="line"/>
			<point x="-611" y="183" type="line"/>
			<point x="-786" y="247" type="line"/>
			<point x="-592" y="311" type="line"/>
			<point x="-642" y="429" type="line"/>
			<point x="-810" y="300" type="line"/>
			<point x="-745" y="493" type="line"/>
			<point x="-881" y="493" type="line"/>
			<point x="-872" y="301" type="line"/>
			<point x="-1003" y="429" type="line"/>
			<point x="-1088" y="312" type="line"/>
			<point x="-910" y="247" type="line"/>
			<point x="-1104" y="183" type="line"/>
			<point x="-1053" y="66" type="line"/>
			<point x="-887" y="193" type="line"/>
			<point x="-950" y="1" type="line"/>
			<point x="-814" y="1" type="line"/>
			<point x="-824" y="191" type="line"/>
		</contour>
		<contour>
			<point x="-132" y="255" type="line"/>
			<point x="-48" y="373" type="line"/>
			<point x="-223" y="437" type="line"/>
			<point x="-29" y="501" type="line"/>
			<point x="-79" y="619" type="line"/>
			<point x="-247" y="490" type="line"/>
			<point x="-182" y="683" type="line"/>
			<point x="-318" y="683" type="line"/>
			<point x="-309" y="491" type="line"/>
			<point x="-440" y="619" type="line"/>
			<point x="-525" y="502" type="line"/>
			<point x="-347" y="437" type="line"/>
			<point x="-541" y="373" type="line"/>
			<point x="-490" y="256" type="line"/>
			<point x="-324" y="383" type="line"/>
			<point x="-387" y="191" type="line"/>
			<point x="-251" y="191" type="line"/>
			<point x="-261" y="381" type="line"/>
		</contour>
		<contour>
			<point x="411" y="64" type="line"/>
			<point x="495" y="182" type="line"/>
			<point x="320" y="246" type="line"/>
			<point x="514" y="310" type="line"/>
			<point x="464" y="428" type="line"/>
			<point x="296" y="299" type="line"/>
			<point x="361" y="492" type="line"/>
			<point x="225" y="492" type="line"/>
			<point x="234" y="300" type="line"/>
			<point x="103" y="428" type="line"/>
			<point x="18" y="311" type="line"/>
			<point x="196" y="246" type="line"/>
			<point x="2" y="182" type="line"/>
			<point x="53" y="65" type="line"/>
			<point x="219" y="192" type="line"/>
			<point x="156" y="0" type="line"/>
			<point x="292" y="0" type="line"/>
			<point x="282" y="190" type="line"/>
		</contour>
	</outline>
</glyph>
<glyph name="backslash_backslash_backslash.rem" format="2">
	<advance width="600"/>
	<outline>
		<contour>
			<point x="-754" y="-163" type="line"/>
			<point x="-615" y="-163" type="line"/>
			<point x="-831" y="792" type="line"/>
			<point x="-970" y="792" type="line"/>
		</contour>
		<contour>
			<point x="-254" y="-163" type="line"/>
			<point x="-115" y="-163" type="line"/>
			<point x="-331" y="792" type="line"/>
			<point x="-470" y="792" type="line"/>
		</contour>
		<contour>
			<point x="246" y="-163" type="line"/>
			<point x="385" y="-163" type="line"/>
			<point x="169" y="792" type="line"/>
			<point x="30" y="792" type="line"/>
		</contour>
	</outline>
</glyph>
<glyph name="bar_bar_bar_greater.cLig" format="2">
	<advance width="600"/>
	<outline>
		<contour>
			<point x="-377" y="-79" type="line"/>
			<point x="-240" y="-79" type="line"/>
			<point x="326" y="233" type="line"/>
			<point x="348" y="396" type="line"/>
			<point x="-130" y="708" type="line"/>
			<point x="-267" y="708" type="line"/>
		</contour>
		<contour>
			<point x="-944" y="-80" type="line"/>
			<point x="-806" y="-80" type="line"/>
			<point x="-696" y="707" type="line"/>
			<point x="-834" y="707" type="line"/>
		</contour>
		<contour>
			<point x="-1510" y="-80" type="line"/>
			<point x="-1373" y="-80" type="line"/>
			<point x="-1263" y="707" type="line"/>
			<point x="-1400" y="707" type="line"/>
		</contour>
		<contour>
			<point x="-154" y="561" type="line"/>
			<point x="220" y="322" type="line"/>
			<point x="-221" y="83" type="line"/>
		</contour>
	</outline>
</glyph>
<glyph name="bar_bar_equal.fina" format="2">
	<advance width="600"/>
	<outline>
		<contour>
			<point x="-617" y="141" type="line"/>
			<point x="-156" y="141" type="line"/>
			<point x="-184" y="-55" type="line"/>
			<point x="-46" y="-55" type="line"/>
			<point x="58" y="684" type="line"/>
			<point x="-80" y="684" type="line"/>
			<point x="-107" y="488" type="line"/>
			<point x="-567" y="488" type="line"/>
			<point x="-585" y="365" type="line"/>
			<point x="-125" y="365" type="line"/>
			<point x="-139" y="264" type="line"/>
			<point x="-599" y="264" type="line"/>
		</contour>
		<contour>
			<point x="300" y="684" type="line"/>
			<point x="196" y="-55" type="line"/>
			<point x="334" y="-55" type="line"/>
			<point x="438" y="684" type="line"/>
		</contour>
	</outline>
</glyph>
<glyph name="bar_bar_equal.init" format="2">
	<advance width="600"/>
	<outline>
		<contour>
			<point x="-319" y="684" type="line"/>
			<point x="-423" y="-55" type="line"/>
			<point x="-285" y="-55" type="line"/>
			<point x="-181" y="684" type="line"/>
		</contour>
		<contour>
			<point x="61" y="684" type="line"/>
			<point x="-43" y="-55" type="line"/>
			<point x="95" y="-55" type="line"/>
			<point x="122" y="141" type="line"/>
			<point x="583" y="141" type="line"/>
			<point x="601" y="264" type="line"/>
			<point x="140" y="264" type="line"/>
			<point x="154" y="365" type="line"/>
			<point x="615" y="365" type="line"/>
			<point x="632" y="488" type="line"/>
			<point x="171" y="488" type="line"/>
			<point x="199" y="684" type="line"/>
		</contour>
	</outline>
</glyph>
<glyph name="bar_bar_equal.med" format="2">
	<advance width="600"/>
	<outline>
		<contour>
			<point x="76" y="-55" type="line"/>
			<point x="214" y="-55" type="line"/>
			<point x="241" y="141" type="line"/>
			<point x="582" y="141" type="line"/>
			<point x="600" y="264" type="line"/>
			<point x="259" y="264" type="line"/>
			<point x="273" y="365" type="line"/>
			<point x="614" y="365" type="line"/>
			<point x="632" y="488" type="line"/>
			<point x="290" y="488" type="line"/>
			<point x="318" y="684" type="line"/>
			<point x="180" y="684" type="line"/>
		</contour>
		<contour>
			<point x="-617" y="141" type="line"/>
			<point x="-276" y="141" type="line"/>
			<point x="-303" y="-55" type="line"/>
			<point x="-166" y="-55" type="line"/>
			<point x="-62" y="684" type="line"/>
			<point x="-199" y="684" type="line"/>
			<point x="-227" y="488" type="line"/>
			<point x="-568" y="488" type="line"/>
			<point x="-586" y="365" type="line"/>
			<point x="-244" y="365" type="line"/>
			<point x="-259" y="264" type="line"/>
			<point x="-600" y="264" type="line"/>
		</contour>
	</outline>
</glyph>
<glyph name="bar_bar_greater.cLig" format="2">
	<advance width="600"/>
	<outline>
		<contour>
			<point x="-814" y="708" type="line"/>
			<point x="-924" y="-79" type="line"/>
			<point x="-786" y="-79" type="line"/>
			<point x="-676" y="708" type="line"/>
		</contour>
		<contour>
			<point x="-364" y="-79" type="line"/>
			<point x="-226" y="-79" type="line"/>
			<point x="339" y="233" type="line"/>
			<point x="362" y="396" type="line"/>
			<point x="-116" y="708" type="line"/>
			<point x="-254" y="708" type="line"/>
		</contour>
		<contour>
			<point x="-141" y="561" type="line"/>
			<point x="233" y="322" type="line"/>
			<point x="-207" y="83" type="line"/>
		</contour>
	</outline>
</glyph>
<glyph name="bar_bar_hyphen.fina" format="2">
	<advance width="600"/>
	<outline>
		<contour>
			<point x="196" y="-55" type="line"/>
			<point x="334" y="-55" type="line"/>
			<point x="438" y="684" type="line"/>
			<point x="300" y="684" type="line"/>
		</contour>
		<contour>
			<point x="-602" y="248" type="line"/>
			<point x="-141" y="248" type="line"/>
			<point x="-184" y="-55" type="line"/>
			<point x="-46" y="-55" type="line"/>
			<point x="58" y="684" type="line"/>
			<point x="-80" y="684" type="line"/>
			<point x="-123" y="380" type="line"/>
			<point x="-584" y="380" type="line"/>
		</contour>
	</outline>
</glyph>
<glyph name="bar_equal.med" format="2">
	<advance width="600"/>
	<outline>
		<contour>
			<point x="-17" y="141" type="line"/>
			<point x="211" y="141" type="line"/>
			<point x="183" y="-55" type="line"/>
			<point x="321" y="-55" type="line"/>
			<point x="348" y="141" type="line"/>
			<point x="582" y="141" type="line"/>
			<point x="600" y="264" type="line"/>
			<point x="366" y="264" type="line"/>
			<point x="380" y="365" type="line"/>
			<point x="614" y="365" type="line"/>
			<point x="632" y="488" type="line"/>
			<point x="397" y="488" type="line"/>
			<point x="425" y="684" type="line"/>
			<point x="287" y="684" type="line"/>
			<point x="260" y="488" type="line"/>
			<point x="32" y="488" type="line"/>
			<point x="14" y="365" type="line"/>
			<point x="242" y="365" type="line"/>
			<point x="228" y="264" type="line"/>
			<point x="0" y="264" type="line"/>
		</contour>
	</outline>
</glyph>
<glyph name="bar_hyphen.fina" format="2">
	<advance width="600"/>
	<outline>
		<contour>
			<point x="-2" y="248" type="line"/>
			<point x="339" y="248" type="line"/>
			<point x="296" y="-55" type="line"/>
			<point x="434" y="-55" type="line"/>
			<point x="538" y="684" type="line"/>
			<point x="400" y="684" type="line"/>
			<point x="357" y="380" type="line"/>
			<point x="16" y="380" type="line"/>
		</contour>
	</outline>
</glyph>
<glyph name="bar_hyphen.med" format="2">
	<advance width="600"/>
	<outline>
		<contour>
			<point x="187" y="-55" type="line"/>
			<point x="325" y="-55" type="line"/>
			<point x="367" y="248" type="line"/>
			<point x="598" y="248" type="line"/>
			<point x="616" y="380" type="line"/>
			<point x="386" y="380" type="line"/>
			<point x="429" y="684" type="line"/>
			<point x="291" y="684" type="line"/>
			<point x="248" y="380" type="line"/>
			<point x="16" y="380" type="line"/>
			<point x="-2" y="248" type="line"/>
			<point x="230" y="248" type="line"/>
		</contour>
	</outline>
</glyph>
<glyph name="bar_underscore.med" format="2">
	<advance width="600"/>
	<outline>
		<contour>
			<point x="-48" y="-74" type="line"/>
			<point x="-63" y="-184" type="line"/>
			<point x="537" y="-184" type="line"/>
			<point x="552" y="-74" type="line"/>
			<point x="321" y="-74" type="line"/>
			<point x="443" y="792" type="line"/>
			<point x="306" y="792" type="line"/>
			<point x="184" y="-74" type="line"/>
		</contour>
	</outline>
</glyph>
<glyph name="braceleft_bar.cLig" format="2">
	<advance width="600"/>
	<outline>
		<contour>
			<point x="-274" y="-163" type="curve" smooth="yes"/>
			<point x="10" y="-163" type="line"/>
			<point x="25" y="-57" type="line"/>
			<point x="-203" y="-57" type="line" smooth="yes"/>
			<point x="-250" y="-57"/>
			<point x="-274" y="-40"/>
			<point x="-274" y="-5" type="curve" smooth="yes"/>
			<point x="-274" y="71"/>
			<point x="-151" y="108"/>
			<point x="-151" y="211" type="curve" smooth="yes"/>
			<point x="-151" y="257"/>
			<point x="-191" y="298"/>
			<point x="-255" y="313" type="curve"/>
			<point x="-191" y="321"/>
			<point x="-117" y="356"/>
			<point x="-117" y="436" type="curve" smooth="yes"/>
			<point x="-117" y="509"/>
			<point x="-190" y="566"/>
			<point x="-190" y="625" type="curve" smooth="yes"/>
			<point x="-190" y="670"/>
			<point x="-158" y="686"/>
			<point x="-106" y="686" type="curve" smooth="yes"/>
			<point x="129" y="686" type="line"/>
			<point x="145" y="792" type="line"/>
			<point x="-164" y="792" type="line" smooth="yes"/>
			<point x="-266" y="792"/>
			<point x="-335" y="733"/>
			<point x="-335" y="647" type="curve" smooth="yes"/>
			<point x="-335" y="562"/>
			<point x="-264" y="498"/>
			<point x="-264" y="440" type="curve" smooth="yes"/>
			<point x="-264" y="405"/>
			<point x="-290" y="375"/>
			<point x="-328" y="375" type="curve" smooth="yes"/>
			<point x="-429" y="375" type="line"/>
			<point x="-446" y="251" type="line"/>
			<point x="-360" y="251" type="line" smooth="yes"/>
			<point x="-318" y="251"/>
			<point x="-303" y="224"/>
			<point x="-303" y="200" type="curve" smooth="yes"/>
			<point x="-303" y="126"/>
			<point x="-431" y="86"/>
			<point x="-431" y="-34" type="curve" smooth="yes"/>
			<point x="-431" y="-107"/>
			<point x="-378" y="-163"/>
		</contour>
		<contour>
			<point x="313" y="792" type="line"/>
			<point x="179" y="-163" type="line"/>
			<point x="316" y="-163" type="line"/>
			<point x="450" y="792" type="line"/>
		</contour>
	</outline>
</glyph>
<glyph name="braceleft_hyphen.rem" format="2">
	<advance width="600"/>
	<outline>
		<contour>
			<point x="76" y="792" type="line"/>
			<point x="-128" y="792" type="line" smooth="yes"/>
			<point x="-229" y="792"/>
			<point x="-296" y="731"/>
			<point x="-296" y="646" type="curve" smooth="yes"/>
			<point x="-296" y="562"/>
			<point x="-227" y="501"/>
			<point x="-227" y="443" type="curve" smooth="yes"/>
			<point x="-227" y="403"/>
			<point x="-254" y="375"/>
			<point x="-323" y="375" type="curve" smooth="yes"/>
			<point x="-406" y="375" type="line"/>
			<point x="-423" y="251" type="line"/>
			<point x="-351" y="251" type="line" smooth="yes"/>
			<point x="-285" y="251"/>
			<point x="-266" y="219"/>
			<point x="-266" y="190" type="curve" smooth="yes"/>
			<point x="-266" y="115"/>
			<point x="-392" y="79"/>
			<point x="-392" y="-34" type="curve" smooth="yes"/>
			<point x="-392" y="-105"/>
			<point x="-342" y="-163"/>
			<point x="-238" y="-163" type="curve" smooth="yes"/>
			<point x="-59" y="-163" type="line"/>
			<point x="-43" y="-57" type="line"/>
			<point x="-167" y="-57" type="line" smooth="yes"/>
			<point x="-214" y="-57"/>
			<point x="-238" y="-40"/>
			<point x="-238" y="-5" type="curve" smooth="yes"/>
			<point x="-238" y="65"/>
			<point x="-116" y="97"/>
			<point x="-116" y="181" type="curve" smooth="yes"/>
			<point x="-116" y="221"/>
			<point x="-147" y="242"/>
			<point x="-190" y="252" type="curve"/>
			<point x="427" y="252" type="line"/>
			<point x="446" y="377" type="line"/>
			<point x="-170" y="377" type="line"/>
			<point x="-122" y="388"/>
			<point x="-79" y="412"/>
			<point x="-79" y="460" type="curve" smooth="yes"/>
			<point x="-79" y="519"/>
			<point x="-153" y="568"/>
			<point x="-153" y="625" type="curve" smooth="yes"/>
			<point x="-153" y="670"/>
			<point x="-123" y="686"/>
			<point x="-70" y="686" type="curve" smooth="yes"/>
			<point x="61" y="686" type="line"/>
		</contour>
	</outline>
</glyph>
<glyph name="braceright_braceright.cLig" format="2">
	<advance width="600"/>
	<outline>
		<contour>
			<point x="99" y="792" type="line"/>
			<point x="84" y="686" type="line"/>
			<point x="207" y="686" type="line" smooth="yes"/>
			<point x="254" y="686"/>
			<point x="278" y="669"/>
			<point x="278" y="634" type="curve" smooth="yes"/>
			<point x="278" y="558"/>
			<point x="155" y="521"/>
			<point x="155" y="418" type="curve" smooth="yes"/>
			<point x="155" y="372"/>
			<point x="195" y="331"/>
			<point x="259" y="316" type="curve"/>
			<point x="195" y="308"/>
			<point x="121" y="273"/>
			<point x="121" y="193" type="curve" smooth="yes"/>
			<point x="121" y="120"/>
			<point x="194" y="63"/>
			<point x="194" y="4" type="curve" smooth="yes"/>
			<point x="194" y="-41"/>
			<point x="163" y="-57"/>
			<point x="110" y="-57" type="curve" smooth="yes"/>
			<point x="-225" y="-57" type="line"/>
			<point x="-166" y="-44"/>
			<point x="-134" y="-16"/>
			<point x="-134" y="32" type="curve" smooth="yes"/>
			<point x="-134" y="94"/>
			<point x="-207" y="143"/>
			<point x="-207" y="197" type="curve" smooth="yes"/>
			<point x="-207" y="231"/>
			<point x="-181" y="254"/>
			<point x="-130" y="254" type="curve" smooth="yes"/>
			<point x="-21" y="254" type="line"/>
			<point x="-5" y="378" type="line"/>
			<point x="-98" y="378" type="line" smooth="yes"/>
			<point x="-152" y="378"/>
			<point x="-169" y="398"/>
			<point x="-169" y="424" type="curve"/>
			<point x="-169" y="501"/>
			<point x="-40" y="543"/>
			<point x="-40" y="663" type="curve" smooth="yes"/>
			<point x="-40" y="736"/>
			<point x="-92" y="792"/>
			<point x="-196" y="792" type="curve" smooth="yes"/>
			<point x="-401" y="792" type="line"/>
			<point x="-415" y="686" type="line"/>
			<point x="-268" y="686" type="line" smooth="yes"/>
			<point x="-220" y="686"/>
			<point x="-196" y="669"/>
			<point x="-196" y="634" type="curve" smooth="yes"/>
			<point x="-196" y="561"/>
			<point x="-321" y="516"/>
			<point x="-321" y="415" type="curve"/>
			<point x="-321" y="368"/>
			<point x="-281" y="330"/>
			<point x="-217" y="316" type="curve"/>
			<point x="-281" y="309"/>
			<point x="-355" y="280"/>
			<point x="-355" y="197" type="curve" smooth="yes"/>
			<point x="-355" y="125"/>
			<point x="-282" y="72"/>
			<point x="-282" y="9" type="curve" smooth="yes"/>
			<point x="-282" y="-33"/>
			<point x="-313" y="-57"/>
			<point x="-373" y="-57" type="curve" smooth="yes"/>
			<point x="-519" y="-57" type="line"/>
			<point x="-535" y="-163" type="line"/>
			<point x="168" y="-163" type="line" smooth="yes"/>
			<point x="270" y="-163"/>
			<point x="339" y="-104"/>
			<point x="339" y="-18" type="curve" smooth="yes"/>
			<point x="339" y="67"/>
			<point x="269" y="131"/>
			<point x="269" y="189" type="curve" smooth="yes"/>
			<point x="269" y="224"/>
			<point x="294" y="254"/>
			<point x="332" y="254" type="curve" smooth="yes"/>
			<point x="442" y="254" type="line"/>
			<point x="459" y="378" type="line"/>
			<point x="364" y="378" type="line" smooth="yes"/>
			<point x="322" y="378"/>
			<point x="307" y="405"/>
			<point x="307" y="429" type="curve" smooth="yes"/>
			<point x="307" y="503"/>
			<point x="435" y="543"/>
			<point x="435" y="663" type="curve" smooth="yes"/>
			<point x="435" y="736"/>
			<point x="382" y="792"/>
			<point x="278" y="792" type="curve" smooth="yes"/>
		</contour>
	</outline>
</glyph>
<glyph name="braceright_numbersign.cLig" format="2">
	<advance width="600"/>
	<outline>
		<contour>
			<point x="-573" y="-164" type="line"/>
			<point x="-370" y="-164" type="line" smooth="yes"/>
			<point x="-267" y="-164"/>
			<point x="-199" y="-104"/>
			<point x="-199" y="-18" type="curve" smooth="yes"/>
			<point x="-199" y="67"/>
			<point x="-270" y="131"/>
			<point x="-270" y="189" type="curve" smooth="yes"/>
			<point x="-270" y="224"/>
			<point x="-244" y="254"/>
			<point x="-205" y="254" type="curve" smooth="yes"/>
			<point x="-152" y="254" type="line"/>
			<point x="-134" y="378" type="line"/>
			<point x="-173" y="378" type="line" smooth="yes"/>
			<point x="-215" y="378"/>
			<point x="-231" y="405"/>
			<point x="-231" y="429" type="curve" smooth="yes"/>
			<point x="-231" y="503"/>
			<point x="-103" y="542"/>
			<point x="-103" y="663" type="curve" smooth="yes"/>
			<point x="-103" y="736"/>
			<point x="-156" y="792"/>
			<point x="-260" y="792" type="curve" smooth="yes"/>
			<point x="-439" y="792" type="line"/>
			<point x="-454" y="686" type="line"/>
			<point x="-331" y="686" type="line" smooth="yes"/>
			<point x="-283" y="686"/>
			<point x="-259" y="669"/>
			<point x="-259" y="634" type="curve" smooth="yes"/>
			<point x="-259" y="558"/>
			<point x="-383" y="521"/>
			<point x="-383" y="418" type="curve" smooth="yes"/>
			<point x="-382" y="371"/>
			<point x="-344" y="330"/>
			<point x="-280" y="316" type="curve"/>
			<point x="-342" y="308"/>
			<point x="-417" y="273"/>
			<point x="-417" y="192" type="curve" smooth="yes"/>
			<point x="-417" y="119"/>
			<point x="-345" y="63"/>
			<point x="-345" y="4" type="curve" smooth="yes"/>
			<point x="-345" y="-41"/>
			<point x="-375" y="-57"/>
			<point x="-428" y="-57" type="curve" smooth="yes"/>
			<point x="-558" y="-57" type="line"/>
		</contour>
		<contour>
			<point x="-61" y="267" type="line"/>
			<point x="-76" y="157" type="line"/>
			<point x="35" y="157" type="line"/>
			<point x="-2" y="0" type="line"/>
			<point x="111" y="0" type="line"/>
			<point x="148" y="157" type="line"/>
			<point x="259" y="157" type="line"/>
			<point x="223" y="0" type="line"/>
			<point x="334" y="0" type="line"/>
			<point x="371" y="157" type="line"/>
			<point x="475" y="157" type="line"/>
			<point x="491" y="267" type="line"/>
			<point x="397" y="267" type="line"/>
			<point x="434" y="424" type="line"/>
			<point x="536" y="424" type="line"/>
			<point x="552" y="535" type="line"/>
			<point x="460" y="535" type="line"/>
			<point x="495" y="684" type="line"/>
			<point x="383" y="684" type="line"/>
			<point x="348" y="535" type="line"/>
			<point x="236" y="535" type="line"/>
			<point x="271" y="684" type="line"/>
			<point x="159" y="684" type="line"/>
			<point x="124" y="535" type="line"/>
			<point x="-23" y="535" type="line"/>
			<point x="-39" y="424" type="line"/>
			<point x="98" y="424" type="line"/>
			<point x="61" y="267" type="line"/>
		</contour>
		<contour>
			<point x="173" y="267" type="line"/>
			<point x="210" y="424" type="line"/>
			<point x="322" y="424" type="line"/>
			<point x="285" y="267" type="line"/>
		</contour>
	</outline>
</glyph>
<glyph name="bracketright_numbersign.cLig" format="2">
	<advance width="600"/>
	<outline>
		<contour>
			<point x="-554" y="-163" type="line"/>
			<point x="-219" y="-163" type="line"/>
			<point x="-174" y="157" type="line"/>
			<point x="11" y="157" type="line"/>
			<point x="-25" y="0" type="line"/>
			<point x="88" y="0" type="line"/>
			<point x="124" y="157" type="line"/>
			<point x="236" y="157" type="line"/>
			<point x="199" y="0" type="line"/>
			<point x="311" y="0" type="line"/>
			<point x="348" y="157" type="line"/>
			<point x="452" y="157" type="line"/>
			<point x="467" y="267" type="line"/>
			<point x="374" y="267" type="line"/>
			<point x="411" y="424" type="line"/>
			<point x="513" y="424" type="line"/>
			<point x="528" y="535" type="line"/>
			<point x="437" y="535" type="line"/>
			<point x="472" y="684" type="line"/>
			<point x="360" y="684" type="line"/>
			<point x="325" y="535" type="line"/>
			<point x="213" y="535" type="line"/>
			<point x="248" y="684" type="line"/>
			<point x="136" y="684" type="line"/>
			<point x="101" y="535" type="line"/>
			<point x="-121" y="535" type="line"/>
			<point x="-84" y="792" type="line"/>
			<point x="-420" y="792" type="line"/>
			<point x="-435" y="687" type="line"/>
			<point x="-237" y="687" type="line"/>
			<point x="-342" y="-58" type="line"/>
			<point x="-540" y="-58" type="line"/>
		</contour>
		<contour>
			<point x="-159" y="267" type="line"/>
			<point x="-136" y="424" type="line"/>
			<point x="75" y="424" type="line"/>
			<point x="37" y="267" type="line"/>
		</contour>
		<contour>
			<point x="150" y="267" type="line"/>
			<point x="187" y="424" type="line"/>
			<point x="299" y="424" type="line"/>
			<point x="262" y="267" type="line"/>
		</contour>
	</outline>
</glyph>
<glyph name="breve.cap" format="2">
	<advance width="600"/>
	<outline>
		<contour>
			<point x="369" y="736" type="curve" smooth="yes"/>
			<point x="486" y="736"/>
			<point x="538" y="778"/>
			<point x="553" y="884" type="curve"/>
			<point x="451" y="884" type="line"/>
			<point x="443" y="827"/>
			<point x="425" y="808"/>
			<point x="378" y="808" type="curve" smooth="yes"/>
			<point x="330" y="808"/>
			<point x="317" y="836"/>
			<point x="324" y="884" type="curve"/>
			<point x="222" y="884" type="line"/>
			<point x="205" y="782"/>
			<point x="261" y="736"/>
		</contour>
	</outline>
	<anchor name="_top" x="360" y="684"/>
</glyph>
<glyph name="caron.cap" format="2">
	<advance width="600"/>
	<outline>
		<contour>
			<point x="582" y="884" type="line"/>
			<point x="451" y="884" type="line"/>
			<point x="371" y="799" type="line"/>
			<point x="315" y="884" type="line"/>
			<point x="191" y="884" type="line"/>
			<point x="289" y="744" type="line"/>
			<point x="443" y="744" type="line"/>
		</contour>
	</outline>
	<anchor name="_top" x="358" y="684"/>
</glyph>
<glyph name="caronSlovak" format="2">
	<advance width="600"/>
	<outline>
		<contour>
			<point x="281" y="566" type="line"/>
			<point x="358" y="566" type="line"/>
			<point x="459" y="750" type="line"/>
			<point x="318" y="750" type="line"/>
		</contour>
	</outline>
	<anchor name="_caron" x="318" y="750"/>
</glyph>
<glyph name="circumflex.cap" format="2">
	<advance width="600"/>
	<outline>
		<contour>
			<point x="172" y="744" type="line"/>
			<point x="303" y="744" type="line"/>
			<point x="383" y="829" type="line"/>
			<point x="439" y="744" type="line"/>
			<point x="563" y="744" type="line"/>
			<point x="465" y="884" type="line"/>
			<point x="310" y="884" type="line"/>
		</contour>
	</outline>
	<anchor name="_top" x="362" y="684"/>
</glyph>
<glyph name="colon_equal.cLig" format="2">
	<advance width="600"/>
	<outline>
		<contour>
			<point x="-313" y="339" type="curve" smooth="yes"/>
			<point x="-246" y="339"/>
			<point x="-212" y="366"/>
			<point x="-204" y="426" type="curve" smooth="yes"/>
			<point x="-194" y="495"/>
			<point x="-227" y="525"/>
			<point x="-298" y="525" type="curve" smooth="yes"/>
			<point x="-366" y="525"/>
			<point x="-400" y="499"/>
			<point x="-408" y="439" type="curve" smooth="yes"/>
			<point x="-419" y="370"/>
			<point x="-386" y="339"/>
		</contour>
		<contour>
			<point x="-48" y="340" type="line"/>
			<point x="443" y="340" type="line"/>
			<point x="461" y="464" type="line"/>
			<point x="-31" y="464" type="line"/>
		</contour>
		<contour>
			<point x="-79" y="116" type="line"/>
			<point x="412" y="116" type="line"/>
			<point x="430" y="240" type="line"/>
			<point x="-62" y="240" type="line"/>
		</contour>
		<contour>
			<point x="-354" y="45" type="curve" smooth="yes"/>
			<point x="-287" y="45"/>
			<point x="-253" y="72"/>
			<point x="-245" y="132" type="curve" smooth="yes"/>
			<point x="-235" y="201"/>
			<point x="-268" y="231"/>
			<point x="-339" y="231" type="curve" smooth="yes"/>
			<point x="-407" y="231"/>
			<point x="-441" y="205"/>
			<point x="-449" y="145" type="curve" smooth="yes"/>
			<point x="-460" y="76"/>
			<point x="-427" y="45"/>
		</contour>
	</outline>
</glyph>
<glyph name="colon_less.cLig.x" format="2">
	<advance width="600"/>
	<outline>
		<contour>
			<point x="393" y="-10" type="line"/>
			<point x="414" y="130" type="line"/>
			<point x="102" y="312" type="line"/>
			<point x="464" y="487" type="line"/>
			<point x="486" y="640" type="line"/>
			<point x="2" y="396" type="line"/>
			<point x="-20" y="233" type="line"/>
		</contour>
		<contour>
			<point x="-275" y="392" type="curve" smooth="yes"/>
			<point x="-208" y="392"/>
			<point x="-174" y="419"/>
			<point x="-166" y="479" type="curve" smooth="yes"/>
			<point x="-156" y="548"/>
			<point x="-189" y="578"/>
			<point x="-260" y="578" type="curve" smooth="yes"/>
			<point x="-328" y="578"/>
			<point x="-362" y="552"/>
			<point x="-370" y="492" type="curve" smooth="yes"/>
			<point x="-381" y="423"/>
			<point x="-348" y="392"/>
		</contour>
		<contour>
			<point x="-325" y="37" type="curve" smooth="yes"/>
			<point x="-258" y="37"/>
			<point x="-224" y="64"/>
			<point x="-216" y="124" type="curve" smooth="yes"/>
			<point x="-206" y="193"/>
			<point x="-239" y="223"/>
			<point x="-310" y="223" type="curve" smooth="yes"/>
			<point x="-378" y="223"/>
			<point x="-412" y="197"/>
			<point x="-420" y="137" type="curve" smooth="yes"/>
			<point x="-431" y="68"/>
			<point x="-398" y="37"/>
		</contour>
	</outline>
</glyph>
<glyph name="cordinal" format="2">
	<advance width="600"/>
	<outline>
		<contour>
			<point x="380" y="226" type="curve" smooth="yes"/>
			<point x="423" y="226"/>
			<point x="456" y="232"/>
			<point x="481" y="240" type="curve"/>
			<point x="492" y="334" type="line"/>
			<point x="471" y="327"/>
			<point x="440" y="320"/>
			<point x="404" y="320" type="curve" smooth="yes"/>
			<point x="314" y="320"/>
			<point x="252" y="370"/>
			<point x="267" y="473" type="curve" smooth="yes"/>
			<point x="280" y="561"/>
			<point x="337" y="601"/>
			<point x="418" y="601" type="curve" smooth="yes"/>
			<point x="461" y="601"/>
			<point x="501" y="591"/>
			<point x="528" y="577" type="curve"/>
			<point x="540" y="670" type="line"/>
			<point x="515" y="683"/>
			<point x="464" y="695"/>
			<point x="403" y="695" type="curve" smooth="yes"/>
			<point x="258" y="695"/>
			<point x="161" y="612"/>
			<point x="144" y="487" type="curve" smooth="yes"/>
			<point x="119" y="315"/>
			<point x="228" y="226"/>
		</contour>
	</outline>
</glyph>
<glyph name="dieresis.cap" format="2">
	<advance width="600"/>
	<outline>
		<contour>
			<point x="487" y="875" type="curve" smooth="yes"/>
			<point x="431" y="875"/>
			<point x="412" y="854"/>
			<point x="407" y="808" type="curve" smooth="yes"/>
			<point x="402" y="768"/>
			<point x="422" y="745"/>
			<point x="476" y="745" type="curve" smooth="yes"/>
			<point x="532" y="745"/>
			<point x="551" y="766"/>
			<point x="556" y="809" type="curve" smooth="yes"/>
			<point x="562" y="857"/>
			<point x="540" y="875"/>
		</contour>
		<contour>
			<point x="267" y="745" type="curve" smooth="yes"/>
			<point x="326" y="745"/>
			<point x="342" y="768"/>
			<point x="347" y="811" type="curve" smooth="yes"/>
			<point x="352" y="855"/>
			<point x="332" y="875"/>
			<point x="278" y="875" type="curve" smooth="yes"/>
			<point x="222" y="875"/>
			<point x="202" y="855"/>
			<point x="198" y="810" type="curve" smooth="yes"/>
			<point x="193" y="767"/>
			<point x="212" y="745"/>
		</contour>
	</outline>
	<anchor name="_top" x="359" y="684"/>
</glyph>
<glyph name="dollar_greater.cLig" format="2">
	<advance width="600"/>
	<outline>
		<contour>
			<point x="-455" y="-93" type="line"/>
			<point x="-358" y="-93" type="line"/>
			<point x="-333" y="-10" type="line"/>
			<point x="-320" y="-11"/>
			<point x="-307" y="-11"/>
			<point x="-293" y="-11" type="curve" smooth="yes"/>
			<point x="-134" y="-11"/>
			<point x="-30" y="76"/>
			<point x="-30" y="222" type="curve" smooth="yes"/>
			<point x="-30" y="335"/>
			<point x="-95" y="372"/>
			<point x="-213" y="403" type="curve"/>
			<point x="-161" y="572" type="line"/>
			<point x="-91" y="560"/>
			<point x="-26" y="534"/>
			<point x="66" y="490" type="curve" smooth="yes"/>
			<point x="421" y="320" type="line"/>
			<point x="75" y="172" type="line"/>
			<point x="55" y="27" type="line"/>
			<point x="517" y="233" type="line"/>
			<point x="540" y="396" type="line"/>
			<point x="118" y="601" type="line" smooth="yes"/>
			<point x="19" y="648"/>
			<point x="-47" y="673"/>
			<point x="-113" y="685" type="curve"/>
			<point x="-86" y="774" type="line"/>
			<point x="-183" y="774" type="line"/>
			<point x="-208" y="695" type="line"/>
			<point x="-240" y="695" type="line" smooth="yes"/>
			<point x="-411" y="695"/>
			<point x="-505" y="608"/>
			<point x="-505" y="470" type="curve" smooth="yes"/>
			<point x="-505" y="347"/>
			<point x="-429" y="309"/>
			<point x="-326" y="284" type="curve"/>
			<point x="-377" y="119" type="line"/>
			<point x="-430" y="132"/>
			<point x="-486" y="157"/>
			<point x="-534" y="195" type="curve"/>
			<point x="-552" y="66" type="line"/>
			<point x="-520" y="41"/>
			<point x="-476" y="20"/>
			<point x="-425" y="6" type="curve"/>
		</contour>
		<contour>
			<point x="-359" y="492" type="curve" smooth="yes"/>
			<point x="-359" y="549"/>
			<point x="-320" y="578"/>
			<point x="-245" y="578" type="curve" smooth="yes"/>
			<point x="-233" y="578" type="line"/>
			<point x="-283" y="421" type="line"/>
			<point x="-337" y="436"/>
			<point x="-359" y="451"/>
		</contour>
		<contour>
			<point x="-175" y="196" type="curve" smooth="yes"/>
			<point x="-175" y="137"/>
			<point x="-222" y="109"/>
			<point x="-295" y="109" type="curve" smooth="yes"/>
			<point x="-306" y="109" type="line"/>
			<point x="-256" y="269" type="line"/>
			<point x="-203" y="256"/>
			<point x="-175" y="241"/>
		</contour>
	</outline>
</glyph>
<glyph name="dotaccent.cap" format="2">
	<advance width="600"/>
	<outline>
		<contour>
			<point x="374" y="745" type="curve" smooth="yes"/>
			<point x="439" y="745"/>
			<point x="459" y="768"/>
			<point x="464" y="817" type="curve" smooth="yes"/>
			<point x="469" y="866"/>
			<point x="441" y="886"/>
			<point x="383" y="886" type="curve" smooth="yes"/>
			<point x="317" y="886"/>
			<point x="295" y="864"/>
			<point x="291" y="812" type="curve" smooth="yes"/>
			<point x="287" y="768"/>
			<point x="312" y="745"/>
		</contour>
	</outline>
	<anchor name="_top" x="360" y="684"/>
</glyph>
<glyph name="eight.numr" format="2">
	<advance width="600"/>
	<outline>
		<contour>
			<point x="324" y="366" type="curve" smooth="yes"/>
			<point x="420" y="366"/>
			<point x="471" y="408"/>
			<point x="471" y="472" type="curve" smooth="yes"/>
			<point x="471" y="515"/>
			<point x="443" y="536"/>
			<point x="404" y="546" type="curve"/>
			<point x="451" y="555"/>
			<point x="488" y="585"/>
			<point x="488" y="637" type="curve" smooth="yes"/>
			<point x="488" y="694"/>
			<point x="440" y="724"/>
			<point x="355" y="724" type="curve" smooth="yes"/>
			<point x="273" y="724"/>
			<point x="217" y="689"/>
			<point x="217" y="622" type="curve" smooth="yes"/>
			<point x="217" y="586"/>
			<point x="241" y="559"/>
			<point x="275" y="550" type="curve"/>
			<point x="224" y="542"/>
			<point x="186" y="510"/>
			<point x="186" y="457" type="curve" smooth="yes"/>
			<point x="186" y="391"/>
			<point x="245" y="366"/>
		</contour>
		<contour>
			<point x="348" y="576" type="curve" smooth="yes"/>
			<point x="318" y="576"/>
			<point x="301" y="590"/>
			<point x="301" y="615" type="curve" smooth="yes"/>
			<point x="301" y="647"/>
			<point x="320" y="663"/>
			<point x="355" y="663" type="curve" smooth="yes"/>
			<point x="384" y="663"/>
			<point x="404" y="653"/>
			<point x="404" y="625" type="curve" smooth="yes"/>
			<point x="404" y="594"/>
			<point x="383" y="576"/>
		</contour>
		<contour>
			<point x="325" y="429" type="curve" smooth="yes"/>
			<point x="295" y="429"/>
			<point x="274" y="440"/>
			<point x="274" y="470" type="curve" smooth="yes"/>
			<point x="274" y="502"/>
			<point x="294" y="519"/>
			<point x="333" y="519" type="curve" smooth="yes"/>
			<point x="366" y="519"/>
			<point x="383" y="507"/>
			<point x="383" y="481" type="curve" smooth="yes"/>
			<point x="383" y="447"/>
			<point x="362" y="429"/>
		</contour>
	</outline>
</glyph>
<glyph name="equal.den" format="2">
	<advance width="600"/>
	<outline>
		<contour>
			<point x="147" y="300" type="line"/>
			<point x="136" y="221" type="line"/>
			<point x="452" y="221" type="line"/>
			<point x="464" y="300" type="line"/>
		</contour>
		<contour>
			<point x="128" y="159" type="line"/>
			<point x="117" y="81" type="line"/>
			<point x="433" y="81" type="line"/>
			<point x="444" y="159" type="line"/>
		</contour>
	</outline>
</glyph>
<glyph name="equal.fina" format="2">
	<advance width="600"/>
	<outline>
		<contour>
			<point x="15" y="365" type="line"/>
			<point x="455" y="365" type="line"/>
			<point x="473" y="488" type="line"/>
			<point x="33" y="488" type="line"/>
		</contour>
		<contour>
			<point x="-17" y="141" type="line"/>
			<point x="423" y="141" type="line"/>
			<point x="441" y="264" type="line"/>
			<point x="1" y="264" type="line"/>
		</contour>
	</outline>
</glyph>
<glyph name="equal_bar_bar.rem" format="2">
	<advance width="600"/>
	<outline>
		<contour>
			<point x="335" y="-55" type="line"/>
			<point x="439" y="684" type="line"/>
			<point x="301" y="684" type="line"/>
			<point x="197" y="-55" type="line"/>
		</contour>
		<contour>
			<point x="-47" y="-55" type="line"/>
			<point x="57" y="684" type="line"/>
			<point x="-80" y="684" type="line"/>
			<point x="-108" y="488" type="line"/>
			<point x="-1008" y="488" type="line"/>
			<point x="-1026" y="365" type="line"/>
			<point x="-125" y="365" type="line"/>
			<point x="-139" y="264" type="line"/>
			<point x="-1040" y="264" type="line"/>
			<point x="-1058" y="141" type="line"/>
			<point x="-157" y="141" type="line"/>
			<point x="-184" y="-55" type="line"/>
		</contour>
	</outline>
</glyph>
<glyph name="equal_equal.cLig" format="2">
	<advance width="600"/>
	<outline>
		<contour>
			<point x="-428" y="342" type="line"/>
			<point x="450" y="342" type="line"/>
			<point x="467" y="465" type="line"/>
			<point x="-411" y="465" type="line"/>
		</contour>
		<contour>
			<point x="-459" y="119" type="line"/>
			<point x="419" y="119" type="line"/>
			<point x="436" y="242" type="line"/>
			<point x="-442" y="242" type="line"/>
		</contour>
	</outline>
</glyph>
<glyph name="equal_greater_greater.rem" format="2">
	<advance width="600"/>
	<outline>
		<contour>
			<point x="13" y="0" type="line"/>
			<point x="189" y="0" type="line"/>
			<point x="482" y="313" type="line"/>
			<point x="252" y="629" type="line"/>
			<point x="90" y="629" type="line"/>
			<point x="313" y="318" type="line"/>
		</contour>
		<contour>
			<point x="-1058" y="141" type="line"/>
			<point x="-241" y="141" type="line"/>
			<point x="-378" y="0" type="line"/>
			<point x="-207" y="0" type="line"/>
			<point x="93" y="311" type="line"/>
			<point x="-131" y="629" type="line"/>
			<point x="-289" y="629" type="line"/>
			<point x="-190" y="488" type="line"/>
			<point x="-1008" y="488" type="line"/>
			<point x="-1026" y="365" type="line"/>
			<point x="-103" y="365" type="line"/>
			<point x="-69" y="317" type="line"/>
			<point x="-120" y="264" type="line"/>
			<point x="-1040" y="264" type="line"/>
		</contour>
	</outline>
</glyph>
<glyph name="equal_less.rem" format="2">
	<advance width="600"/>
	<outline>
		<contour>
			<point x="440" y="264" type="line"/>
			<point x="-283" y="264" type="line"/>
			<point x="-317" y="312" type="line"/>
			<point x="-266" y="365" type="line"/>
			<point x="454" y="365" type="line"/>
			<point x="472" y="488" type="line"/>
			<point x="-145" y="488" type="line"/>
			<point x="-8" y="629" type="line"/>
			<point x="-180" y="629" type="line"/>
			<point x="-479" y="318" type="line"/>
			<point x="-255" y="0" type="line"/>
			<point x="-97" y="0" type="line"/>
			<point x="-196" y="141" type="line"/>
			<point x="422" y="141" type="line"/>
		</contour>
	</outline>
</glyph>
<glyph name="equal_slash_equal.rem" format="2">
	<advance width="600"/>
	<outline>
		<contour>
			<point x="-1059" y="119" type="line"/>
			<point x="-494" y="119" type="line"/>
			<point x="-645" y="-79" type="line"/>
			<point x="-509" y="-79" type="line"/>
			<point x="-357" y="119" type="line"/>
			<point x="419" y="119" type="line"/>
			<point x="436" y="242" type="line"/>
			<point x="-263" y="242" type="line"/>
			<point x="-187" y="342" type="line"/>
			<point x="450" y="342" type="line"/>
			<point x="467" y="465" type="line"/>
			<point x="-92" y="465" type="line"/>
			<point x="46" y="645" type="line"/>
			<point x="-90" y="645" type="line"/>
			<point x="-229" y="465" type="line"/>
			<point x="-1011" y="465" type="line"/>
			<point x="-1028" y="342" type="line"/>
			<point x="-323" y="342" type="line"/>
			<point x="-399" y="242" type="line"/>
			<point x="-1042" y="242" type="line"/>
		</contour>
	</outline>
</glyph>
<glyph name="exclam_asciitilde.cLig" format="2">
	<advance width="600"/>
	<outline>
		<contour>
			<point x="-343" y="-66" type="line"/>
			<point x="-208" y="-66" type="line"/>
			<point x="-66" y="116" type="line"/>
			<point x="299" y="116" type="line"/>
			<point x="317" y="240" type="line"/>
			<point x="30" y="240" type="line"/>
			<point x="89" y="315" type="line"/>
			<point x="112" y="309"/>
			<point x="137" y="305"/>
			<point x="166" y="305" type="curve" smooth="yes"/>
			<point x="239" y="305"/>
			<point x="299" y="334"/>
			<point x="336" y="379" type="curve"/>
			<point x="355" y="514" type="line"/>
			<point x="294" y="446"/>
			<point x="244" y="429"/>
			<point x="178" y="429" type="curve"/>
			<point x="346" y="645" type="line"/>
			<point x="212" y="645" type="line"/>
			<point x="68" y="460" type="line"/>
			<point x="12" y="486"/>
			<point x="-46" y="519"/>
			<point x="-122" y="519" type="curve" smooth="yes"/>
			<point x="-190" y="519"/>
			<point x="-258" y="490"/>
			<point x="-295" y="445" type="curve"/>
			<point x="-314" y="310" type="line"/>
			<point x="-264" y="368"/>
			<point x="-200" y="394"/>
			<point x="-138" y="394" type="curve" smooth="yes"/>
			<point x="-91" y="394"/>
			<point x="-53" y="376"/>
			<point x="-13" y="357" type="curve"/>
			<point x="-104" y="240" type="line"/>
			<point x="-323" y="240" type="line"/>
			<point x="-341" y="116" type="line"/>
			<point x="-201" y="116" type="line"/>
		</contour>
	</outline>
</glyph>
<glyph name="exclam_equal.cLig" format="2">
	<advance width="600"/>
	<outline>
		<contour>
			<point x="-460" y="119" type="line"/>
			<point x="-189" y="119" type="line"/>
			<point x="-340" y="-79" type="line"/>
			<point x="-204" y="-79" type="line"/>
			<point x="-52" y="119" type="line"/>
			<point x="418" y="119" type="line"/>
			<point x="435" y="242" type="line"/>
			<point x="42" y="242" type="line"/>
			<point x="118" y="342" type="line"/>
			<point x="449" y="342" type="line"/>
			<point x="466" y="465" type="line"/>
			<point x="213" y="465" type="line"/>
			<point x="351" y="645" type="line"/>
			<point x="215" y="645" type="line"/>
			<point x="76" y="465" type="line"/>
			<point x="-412" y="465" type="line"/>
			<point x="-429" y="342" type="line"/>
			<point x="-18" y="342" type="line"/>
			<point x="-94" y="242" type="line"/>
			<point x="-443" y="242" type="line"/>
		</contour>
	</outline>
</glyph>
<glyph name="exclam_equal_equal.cLig" format="2">
	<advance width="600"/>
	<outline>
		<contour>
			<point x="-1087" y="59" type="line"/>
			<point x="-543" y="59" type="line"/>
			<point x="-644" y="-82" type="line"/>
			<point x="-508" y="-82" type="line"/>
			<point x="-407" y="59" type="line"/>
			<point x="412" y="59" type="line"/>
			<point x="429" y="174" type="line"/>
			<point x="-325" y="174" type="line"/>
			<point x="-258" y="267" type="line"/>
			<point x="442" y="267" type="line"/>
			<point x="458" y="382" type="line"/>
			<point x="-176" y="382" type="line"/>
			<point x="-109" y="475" type="line"/>
			<point x="471" y="475" type="line"/>
			<point x="487" y="590" type="line"/>
			<point x="-28" y="590" type="line"/>
			<point x="45" y="692" type="line"/>
			<point x="-90" y="692" type="line"/>
			<point x="-163" y="590" type="line"/>
			<point x="-1013" y="590" type="line"/>
			<point x="-1028" y="475" type="line"/>
			<point x="-245" y="475" type="line"/>
			<point x="-312" y="382" type="line"/>
			<point x="-1042" y="382" type="line"/>
			<point x="-1058" y="267" type="line"/>
			<point x="-394" y="267" type="line"/>
			<point x="-461" y="174" type="line"/>
			<point x="-1071" y="174" type="line"/>
		</contour>
	</outline>
</glyph>
<glyph name="exclam_exclam_period.cLig" format="2">
	<advance width="600"/>
	<outline>
		<contour>
			<point x="-837" y="230" type="line"/>
			<point x="-731" y="230" type="line"/>
			<point x="-658" y="559" type="line"/>
			<point x="-640" y="684" type="line"/>
			<point x="-801" y="684" type="line"/>
			<point x="-819" y="559" type="line"/>
		</contour>
		<contour>
			<point x="-811" y="-12" type="curve" smooth="yes"/>
			<point x="-749" y="-12"/>
			<point x="-719" y="11"/>
			<point x="-712" y="65" type="curve" smooth="yes"/>
			<point x="-702" y="129"/>
			<point x="-735" y="157"/>
			<point x="-799" y="157" type="curve" smooth="yes"/>
			<point x="-861" y="157"/>
			<point x="-891" y="134"/>
			<point x="-899" y="81" type="curve" smooth="yes"/>
			<point x="-908" y="16"/>
			<point x="-875" y="-12"/>
		</contour>
		<contour>
			<point x="-357" y="230" type="line"/>
			<point x="-251" y="230" type="line"/>
			<point x="-178" y="559" type="line"/>
			<point x="-160" y="684" type="line"/>
			<point x="-321" y="684" type="line"/>
			<point x="-339" y="559" type="line"/>
		</contour>
		<contour>
			<point x="-331" y="-12" type="curve" smooth="yes"/>
			<point x="-269" y="-12"/>
			<point x="-239" y="11"/>
			<point x="-232" y="65" type="curve" smooth="yes"/>
			<point x="-222" y="129"/>
			<point x="-255" y="157"/>
			<point x="-319" y="157" type="curve" smooth="yes"/>
			<point x="-381" y="157"/>
			<point x="-411" y="134"/>
			<point x="-419" y="81" type="curve" smooth="yes"/>
			<point x="-428" y="16"/>
			<point x="-395" y="-12"/>
		</contour>
		<contour>
			<point x="150" y="-12" type="curve" smooth="yes"/>
			<point x="217" y="-12"/>
			<point x="251" y="15"/>
			<point x="259" y="75" type="curve" smooth="yes"/>
			<point x="269" y="144"/>
			<point x="236" y="174"/>
			<point x="165" y="174" type="curve" smooth="yes"/>
			<point x="97" y="174"/>
			<point x="63" y="148"/>
			<point x="55" y="88" type="curve" smooth="yes"/>
			<point x="44" y="19"/>
			<point x="77" y="-12"/>
		</contour>
	</outline>
</glyph>
<glyph name="five.den" format="2">
	<advance width="600"/>
	<outline>
		<contour>
			<point x="260" y="-8" type="curve" smooth="yes"/>
			<point x="368" y="-8"/>
			<point x="436" y="53"/>
			<point x="435" y="149" type="curve" smooth="yes"/>
			<point x="434" y="221"/>
			<point x="391" y="255"/>
			<point x="305" y="255" type="curve" smooth="yes"/>
			<point x="287" y="255"/>
			<point x="271" y="254"/>
			<point x="255" y="251" type="curve"/>
			<point x="267" y="332" type="line"/>
			<point x="450" y="332" type="line"/>
			<point x="460" y="410" type="line"/>
			<point x="186" y="410" type="line"/>
			<point x="153" y="172" type="line"/>
			<point x="183" y="180"/>
			<point x="215" y="186"/>
			<point x="253" y="186" type="curve" smooth="yes"/>
			<point x="312" y="186"/>
			<point x="335" y="171"/>
			<point x="335" y="137" type="curve" smooth="yes"/>
			<point x="336" y="97"/>
			<point x="309" y="72"/>
			<point x="257" y="72" type="curve" smooth="yes"/>
			<point x="217" y="72"/>
			<point x="172" y="84"/>
			<point x="130" y="112" type="curve"/>
			<point x="119" y="32" type="line"/>
			<point x="145" y="12"/>
			<point x="196" y="-8"/>
		</contour>
	</outline>
</glyph>
<glyph name="four.numr" format="2">
	<advance width="600"/>
	<outline>
		<contour>
			<point x="330" y="372" type="line"/>
			<point x="417" y="372" type="line"/>
			<point x="425" y="430" type="line"/>
			<point x="457" y="430" type="line"/>
			<point x="467" y="499" type="line"/>
			<point x="434" y="499" type="line"/>
			<point x="465" y="718" type="line"/>
			<point x="329" y="718" type="line"/>
			<point x="186" y="500" type="line"/>
			<point x="176" y="430" type="line"/>
			<point x="339" y="430" type="line"/>
		</contour>
		<contour>
			<point x="266" y="499" type="line"/>
			<point x="371" y="661" type="line"/>
			<point x="348" y="499" type="line"/>
		</contour>
	</outline>
</glyph>
<glyph name="grave.cap" format="2">
	<advance width="600"/>
	<outline>
		<contour>
			<point x="470" y="744" type="line"/>
			<point x="438" y="884" type="line"/>
			<point x="283" y="884" type="line"/>
			<point x="365" y="744" type="line"/>
		</contour>
	</outline>
	<anchor name="_top" x="411" y="684"/>
</glyph>
<glyph name="greater_equal.cLig" format="2">
	<advance width="600"/>
	<outline>
		<contour>
			<point x="-305" y="164" type="line"/>
			<point x="313" y="373" type="line"/>
			<point x="336" y="536" type="line"/>
			<point x="-223" y="747" type="line"/>
			<point x="-241" y="617" type="line"/>
			<point x="209" y="462" type="line"/>
			<point x="-286" y="300" type="line"/>
		</contour>
		<contour>
			<point x="-338" y="-73" type="line"/>
			<point x="280" y="133" type="line"/>
			<point x="298" y="260" type="line"/>
			<point x="-321" y="54" type="line"/>
		</contour>
	</outline>
</glyph>
<glyph name="greater_equal.fina" format="2">
	<advance width="600"/>
	<outline>
		<contour>
			<point x="-17" y="141" type="line"/>
			<point x="224" y="141" type="line"/>
			<point x="87" y="0" type="line"/>
			<point x="259" y="0" type="line"/>
			<point x="558" y="311" type="line"/>
			<point x="334" y="629" type="line"/>
			<point x="176" y="629" type="line"/>
			<point x="275" y="488" type="line"/>
			<point x="32" y="488" type="line"/>
			<point x="14" y="365" type="line"/>
			<point x="362" y="365" type="line"/>
			<point x="396" y="317" type="line"/>
			<point x="345" y="264" type="line"/>
			<point x="0" y="264" type="line"/>
		</contour>
	</outline>
</glyph>
<glyph name="greater_equal.init" format="2">
	<advance width="600"/>
	<outline>
		<contour>
			<point x="279" y="364" type="line"/>
			<point x="441" y="365" type="line"/>
			<point x="613" y="365" type="line"/>
			<point x="631" y="488" type="line"/>
			<point x="355" y="488" type="line"/>
			<point x="258" y="629" type="line"/>
			<point x="100" y="629" type="line"/>
		</contour>
		<contour>
			<point x="15" y="0" type="line"/>
			<point x="187" y="0" type="line"/>
			<point x="323" y="141" type="line"/>
			<point x="582" y="141" type="line"/>
			<point x="600" y="264" type="line"/>
			<point x="442" y="264" type="line"/>
			<point x="265" y="265" type="line"/>
		</contour>
	</outline>
</glyph>
<glyph name="greater_equal.rem" format="2">
	<advance width="600"/>
	<outline>
		<contour>
			<point x="-275" y="364" type="line"/>
			<point x="-113" y="365" type="line"/>
			<point x="464" y="365" type="line"/>
			<point x="482" y="488" type="line"/>
			<point x="-199" y="488" type="line"/>
			<point x="-296" y="629" type="line"/>
			<point x="-454" y="629" type="line"/>
		</contour>
		<contour>
			<point x="-539" y="0" type="line"/>
			<point x="-367" y="0" type="line"/>
			<point x="-231" y="141" type="line"/>
			<point x="432" y="141" type="line"/>
			<point x="450" y="264" type="line"/>
			<point x="-112" y="264" type="line"/>
			<point x="-289" y="265" type="line"/>
		</contour>
	</outline>
</glyph>
<glyph name="greater_equal_greater.rem" format="2">
	<advance width="600"/>
	<outline>
		<contour>
			<point x="-1131" y="0" type="line"/>
			<point x="-959" y="0" type="line"/>
			<point x="-823" y="141" type="line"/>
			<point x="157" y="141" type="line"/>
			<point x="20" y="0" type="line"/>
			<point x="192" y="0" type="line"/>
			<point x="491" y="311" type="line"/>
			<point x="267" y="629" type="line"/>
			<point x="109" y="629" type="line"/>
			<point x="208" y="488" type="line"/>
			<point x="-791" y="488" type="line"/>
			<point x="-888" y="629" type="line"/>
			<point x="-1046" y="629" type="line"/>
			<point x="-867" y="364" type="line"/>
			<point x="-705" y="365" type="line"/>
			<point x="295" y="365" type="line"/>
			<point x="329" y="317" type="line"/>
			<point x="278" y="264" type="line"/>
			<point x="-704" y="264" type="line"/>
			<point x="-881" y="265" type="line"/>
		</contour>
	</outline>
</glyph>
<glyph name="greater_greater.cLig" format="2">
	<advance width="600"/>
	<outline>
		<contour>
			<point x="-549" y="17" type="line"/>
			<point x="-52" y="214" type="line"/>
			<point x="-30" y="376" type="line"/>
			<point x="-470" y="575" type="line"/>
			<point x="-489" y="438" type="line"/>
			<point x="-160" y="298" type="line"/>
			<point x="-528" y="161" type="line"/>
		</contour>
		<contour>
			<point x="21" y="17" type="line"/>
			<point x="518" y="214" type="line"/>
			<point x="540" y="376" type="line"/>
			<point x="100" y="575" type="line"/>
			<point x="81" y="438" type="line"/>
			<point x="410" y="298" type="line"/>
			<point x="42" y="161" type="line"/>
		</contour>
	</outline>
</glyph>
<glyph name="greater_greater_equal.med" format="2">
	<advance width="600"/>
	<outline>
		<contour>
			<point x="-617" y="141" type="line"/>
			<point x="-376" y="141" type="line"/>
			<point x="-513" y="0" type="line"/>
			<point x="-341" y="0" type="line"/>
			<point x="-42" y="311" type="line"/>
			<point x="-266" y="629" type="line"/>
			<point x="-424" y="629" type="line"/>
			<point x="-325" y="488" type="line"/>
			<point x="-568" y="488" type="line"/>
			<point x="-586" y="365" type="line"/>
			<point x="-238" y="365" type="line"/>
			<point x="-204" y="317" type="line"/>
			<point x="-255" y="264" type="line"/>
			<point x="-600" y="264" type="line"/>
		</contour>
		<contour>
			<point x="135" y="364" type="line"/>
			<point x="297" y="365" type="line"/>
			<point x="615" y="365" type="line"/>
			<point x="632" y="488" type="line"/>
			<point x="211" y="488" type="line"/>
			<point x="114" y="629" type="line"/>
			<point x="-44" y="629" type="line"/>
		</contour>
		<contour>
			<point x="-129" y="0" type="line"/>
			<point x="43" y="0" type="line"/>
			<point x="179" y="141" type="line"/>
			<point x="583" y="141" type="line"/>
			<point x="601" y="264" type="line"/>
			<point x="298" y="264" type="line"/>
			<point x="121" y="265" type="line"/>
		</contour>
	</outline>
</glyph>
<glyph name="greater_greater_equal.rem" format="2">
	<advance width="600"/>
	<outline>
		<contour>
			<point x="-1146" y="0" type="line"/>
			<point x="-971" y="0" type="line"/>
			<point x="-664" y="313" type="line"/>
			<point x="-895" y="629" type="line"/>
			<point x="-1059" y="629" type="line"/>
			<point x="-832" y="321" type="line"/>
		</contour>
		<contour>
			<point x="-493" y="364" type="line"/>
			<point x="-331" y="365" type="line"/>
			<point x="455" y="365" type="line"/>
			<point x="473" y="488" type="line"/>
			<point x="-416" y="488" type="line"/>
			<point x="-513" y="629" type="line"/>
			<point x="-672" y="629" type="line"/>
		</contour>
		<contour>
			<point x="-757" y="0" type="line"/>
			<point x="-584" y="0" type="line"/>
			<point x="-449" y="141" type="line"/>
			<point x="423" y="141" type="line"/>
			<point x="441" y="264" type="line"/>
			<point x="-330" y="264" type="line"/>
			<point x="-507" y="265" type="line"/>
		</contour>
	</outline>
</glyph>
<glyph name="greater_greater_hyphen.med" format="2">
	<advance width="600"/>
	<outline>
		<contour>
			<point x="-99" y="0" type="line"/>
			<point x="77" y="0" type="line"/>
			<point x="313" y="248" type="line"/>
			<point x="598" y="248" type="line"/>
			<point x="617" y="380" type="line"/>
			<point x="327" y="380" type="line"/>
			<point x="147" y="629" type="line"/>
			<point x="-14" y="629" type="line"/>
			<point x="205" y="321" type="line"/>
		</contour>
		<contour>
			<point x="-393" y="629" type="line"/>
			<point x="-206" y="380" type="line"/>
			<point x="-584" y="380" type="line"/>
			<point x="-602" y="248" type="line"/>
			<point x="-232" y="248" type="line"/>
			<point x="-486" y="0" type="line"/>
			<point x="-316" y="0" type="line"/>
			<point x="-3" y="314" type="line"/>
			<point x="-233" y="629" type="line"/>
		</contour>
	</outline>
</glyph>
<glyph name="greater_greater_hyphen.rem" format="2">
	<advance width="600"/>
	<outline>
		<contour>
			<point x="-1118" y="0" type="line"/>
			<point x="-942" y="0" type="line"/>
			<point x="-645" y="314" type="line"/>
			<point x="-872" y="629" type="line"/>
			<point x="-1032" y="629" type="line"/>
			<point x="-814" y="321" type="line"/>
		</contour>
		<contour>
			<point x="-733" y="0" type="line"/>
			<point x="-557" y="0" type="line"/>
			<point x="-321" y="248" type="line"/>
			<point x="465" y="248" type="line"/>
			<point x="483" y="380" type="line"/>
			<point x="-307" y="380" type="line"/>
			<point x="-487" y="629" type="line"/>
			<point x="-647" y="629" type="line"/>
			<point x="-430" y="323" type="line"/>
		</contour>
	</outline>
</glyph>
<glyph name="greater_hyphen.fina" format="2">
	<advance width="600"/>
	<outline>
		<contour>
			<point x="146" y="629" type="line"/>
			<point x="334" y="380" type="line"/>
			<point x="16" y="380" type="line"/>
			<point x="-2" y="248" type="line"/>
			<point x="308" y="248" type="line"/>
			<point x="53" y="0" type="line"/>
			<point x="224" y="0" type="line"/>
			<point x="536" y="314" type="line"/>
			<point x="307" y="629" type="line"/>
		</contour>
	</outline>
</glyph>
<glyph name="greater_hyphen.init" format="2">
	<advance width="600"/>
	<outline>
		<contour>
			<point x="47" y="0" type="line"/>
			<point x="223" y="0" type="line"/>
			<point x="459" y="248" type="line"/>
			<point x="598" y="248" type="line"/>
			<point x="616" y="380" type="line"/>
			<point x="473" y="380" type="line"/>
			<point x="293" y="629" type="line"/>
			<point x="133" y="629" type="line"/>
			<point x="350" y="323" type="line"/>
		</contour>
	</outline>
</glyph>
<glyph name="greater_hyphen.med" format="2">
	<advance width="600"/>
	<outline>
		<contour>
			<point x="146" y="629" type="line"/>
			<point x="334" y="380" type="line"/>
			<point x="16" y="380" type="line"/>
			<point x="-2" y="248" type="line"/>
			<point x="308" y="248" type="line"/>
			<point x="53" y="0" type="line"/>
			<point x="224" y="0" type="line"/>
			<point x="471" y="248" type="line"/>
			<point x="598" y="248" type="line"/>
			<point x="616" y="380" type="line"/>
			<point x="488" y="380" type="line"/>
			<point x="307" y="629" type="line"/>
		</contour>
	</outline>
</glyph>
<glyph name="greater_hyphen_greater.rem" format="2">
	<advance width="600"/>
	<outline>
		<contour>
			<point x="-1113" y="0" type="line"/>
			<point x="-937" y="0" type="line"/>
			<point x="-701" y="248" type="line"/>
			<point x="254" y="248" type="line"/>
			<point x="-1" y="0" type="line"/>
			<point x="170" y="0" type="line"/>
			<point x="482" y="314" type="line"/>
			<point x="253" y="629" type="line"/>
			<point x="92" y="629" type="line"/>
			<point x="280" y="380" type="line"/>
			<point x="-687" y="380" type="line"/>
			<point x="-867" y="629" type="line"/>
			<point x="-1027" y="629" type="line"/>
			<point x="-810" y="323" type="line"/>
		</contour>
	</outline>
</glyph>
<glyph name="hyphen.init" format="2">
	<advance width="600"/>
	<outline>
		<contour>
			<point x="616" y="380" type="line"/>
			<point x="176" y="380" type="line"/>
			<point x="158" y="248" type="line"/>
			<point x="598" y="248" type="line"/>
		</contour>
	</outline>
</glyph>
<glyph name="hyphen.med" format="2">
	<advance width="600"/>
	<outline>
		<contour>
			<point x="617" y="380" type="line"/>
			<point x="17" y="380" type="line"/>
			<point x="-1" y="248" type="line"/>
			<point x="599" y="248" type="line"/>
		</contour>
	</outline>
</glyph>
<glyph name="hyphen_asciitilde.cLig" format="2">
	<advance width="600"/>
	<outline>
		<contour>
			<point x="-428" y="241" type="line"/>
			<point x="7" y="241" type="line"/>
			<point x="17" y="281"/>
			<point x="36" y="309"/>
			<point x="73" y="309" type="curve" smooth="yes"/>
			<point x="135" y="309"/>
			<point x="158" y="189"/>
			<point x="264" y="189" type="curve" smooth="yes"/>
			<point x="353" y="189"/>
			<point x="417" y="251"/>
			<point x="438" y="424" type="curve"/>
			<point x="326" y="424" type="line"/>
			<point x="319" y="357"/>
			<point x="299" y="323"/>
			<point x="263" y="323" type="curve" smooth="yes"/>
			<point x="205" y="323"/>
			<point x="175" y="440"/>
			<point x="67" y="440" type="curve" smooth="yes"/>
			<point x="20" y="440"/>
			<point x="-22" y="421"/>
			<point x="-51" y="373" type="curve"/>
			<point x="-409" y="373" type="line"/>
		</contour>
	</outline>
</glyph>
<glyph name="hyphen_greater_greater.rem" format="2">
	<advance width="600"/>
	<outline>
		<contour>
			<point x="15" y="0" type="line"/>
			<point x="192" y="0" type="line"/>
			<point x="487" y="314" type="line"/>
			<point x="260" y="629" type="line"/>
			<point x="100" y="629" type="line"/>
			<point x="318" y="322" type="line"/>
		</contour>
		<contour>
			<point x="92" y="314" type="line"/>
			<point x="-137" y="629" type="line"/>
			<point x="-298" y="629" type="line"/>
			<point x="-110" y="380" type="line"/>
			<point x="-1030" y="380" type="line"/>
			<point x="-1049" y="248" type="line"/>
			<point x="-136" y="248" type="line"/>
			<point x="-391" y="0" type="line"/>
			<point x="-220" y="0" type="line"/>
		</contour>
	</outline>
</glyph>
<glyph name="less_asciitilde.cLig" format="2">
	<advance width="600"/>
	<outline>
		<contour>
			<point x="-117" y="0" type="line"/>
			<point x="-305" y="249" type="line"/>
			<point x="99" y="249" type="line"/>
			<point x="109" y="289"/>
			<point x="128" y="317"/>
			<point x="165" y="317" type="curve" smooth="yes"/>
			<point x="227" y="317"/>
			<point x="250" y="197"/>
			<point x="356" y="197" type="curve" smooth="yes"/>
			<point x="445" y="197"/>
			<point x="509" y="259"/>
			<point x="530" y="432" type="curve"/>
			<point x="418" y="432" type="line"/>
			<point x="411" y="365"/>
			<point x="391" y="331"/>
			<point x="355" y="331" type="curve" smooth="yes"/>
			<point x="297" y="331"/>
			<point x="267" y="448"/>
			<point x="159" y="448" type="curve" smooth="yes"/>
			<point x="112" y="448"/>
			<point x="70" y="429"/>
			<point x="41" y="381" type="curve"/>
			<point x="-279" y="381" type="line"/>
			<point x="-24" y="629" type="line"/>
			<point x="-195" y="629" type="line"/>
			<point x="-507" y="315" type="line"/>
			<point x="-278" y="0" type="line"/>
		</contour>
	</outline>
</glyph>
<glyph name="less_asciitilde_greater.cLig" format="2">
	<advance width="600"/>
	<outline>
		<contour>
			<point x="-854" y="0" type="line"/>
			<point x="-694" y="0" type="line"/>
			<point x="-878" y="249" type="line"/>
			<point x="-493" y="249" type="line"/>
			<point x="-485" y="286"/>
			<point x="-461" y="322"/>
			<point x="-418" y="322" type="curve" smooth="yes"/>
			<point x="-321" y="322"/>
			<point x="-304" y="175"/>
			<point x="-165" y="175" type="curve" smooth="yes"/>
			<point x="-108" y="175"/>
			<point x="-66" y="208"/>
			<point x="-42" y="249" type="curve"/>
			<point x="266" y="249" type="line"/>
			<point x="11" y="0" type="line"/>
			<point x="182" y="0" type="line"/>
			<point x="496" y="314" type="line"/>
			<point x="267" y="629" type="line"/>
			<point x="109" y="629" type="line"/>
			<point x="294" y="381" type="line"/>
			<point x="-98" y="381" type="line"/>
			<point x="-106" y="344"/>
			<point x="-129" y="308"/>
			<point x="-173" y="308" type="curve" smooth="yes"/>
			<point x="-258" y="308"/>
			<point x="-288" y="455"/>
			<point x="-424" y="455" type="curve" smooth="yes"/>
			<point x="-482" y="455"/>
			<point x="-526" y="422"/>
			<point x="-549" y="381" type="curve"/>
			<point x="-853" y="381" type="line"/>
			<point x="-599" y="629" type="line"/>
			<point x="-769" y="629" type="line"/>
			<point x="-1084" y="315" type="line"/>
		</contour>
	</outline>
</glyph>
<glyph name="less_asterisk.cLig" format="2">
	<advance width="600"/>
	<outline>
		<contour>
			<point x="-90" y="-10" type="line"/>
			<point x="-69" y="127" type="line"/>
			<point x="-389" y="311" type="line"/>
			<point x="-19" y="489" type="line"/>
			<point x="3" y="640" type="line"/>
			<point x="-481" y="396" type="line"/>
			<point x="-504" y="233" type="line"/>
		</contour>
		<contour>
			<point x="411" y="137" type="line"/>
			<point x="495" y="255" type="line"/>
			<point x="320" y="319" type="line"/>
			<point x="514" y="383" type="line"/>
			<point x="464" y="501" type="line"/>
			<point x="296" y="372" type="line"/>
			<point x="361" y="565" type="line"/>
			<point x="225" y="565" type="line"/>
			<point x="234" y="373" type="line"/>
			<point x="103" y="501" type="line"/>
			<point x="18" y="384" type="line"/>
			<point x="196" y="318" type="line"/>
			<point x="2" y="255" type="line"/>
			<point x="53" y="138" type="line"/>
			<point x="219" y="265" type="line"/>
			<point x="156" y="73" type="line"/>
			<point x="292" y="73" type="line"/>
			<point x="282" y="263" type="line"/>
		</contour>
	</outline>
</glyph>
<glyph name="less_asterisk_greater.cLig" format="2">
	<advance width="600"/>
	<outline>
		<contour>
			<point x="-1" y="-10" type="line"/>
			<point x="483" y="234" type="line"/>
			<point x="506" y="397" type="line"/>
			<point x="92" y="641" type="line"/>
			<point x="71" y="504" type="line"/>
			<point x="391" y="319" type="line"/>
			<point x="21" y="141" type="line"/>
		</contour>
		<contour>
			<point x="-677" y="-10" type="line"/>
			<point x="-656" y="127" type="line"/>
			<point x="-976" y="311" type="line"/>
			<point x="-606" y="489" type="line"/>
			<point x="-584" y="640" type="line"/>
			<point x="-1068" y="396" type="line"/>
			<point x="-1090" y="233" type="line"/>
		</contour>
		<contour>
			<point x="-139" y="139" type="line"/>
			<point x="-55" y="257" type="line"/>
			<point x="-230" y="321" type="line"/>
			<point x="-36" y="385" type="line"/>
			<point x="-86" y="503" type="line"/>
			<point x="-254" y="374" type="line"/>
			<point x="-189" y="567" type="line"/>
			<point x="-325" y="567" type="line"/>
			<point x="-316" y="375" type="line"/>
			<point x="-447" y="503" type="line"/>
			<point x="-532" y="386" type="line"/>
			<point x="-354" y="321" type="line"/>
			<point x="-548" y="257" type="line"/>
			<point x="-497" y="140" type="line"/>
			<point x="-330" y="267" type="line"/>
			<point x="-394" y="75" type="line"/>
			<point x="-258" y="75" type="line"/>
			<point x="-268" y="265" type="line"/>
		</contour>
	</outline>
</glyph>
<glyph name="less_bar.cLig" format="2">
	<advance width="600"/>
	<outline>
		<contour>
			<point x="359" y="708" type="line"/>
			<point x="221" y="708" type="line"/>
			<point x="-344" y="396" type="line"/>
			<point x="-367" y="233" type="line"/>
			<point x="111" y="-79" type="line"/>
			<point x="249" y="-79" type="line"/>
		</contour>
		<contour>
			<point x="136" y="68" type="line"/>
			<point x="-238" y="307" type="line"/>
			<point x="203" y="546" type="line"/>
		</contour>
	</outline>
</glyph>
<glyph name="less_bar_bar.cLig" format="2">
	<advance width="600"/>
	<outline>
		<contour>
			<point x="229" y="-79" type="line"/>
			<point x="339" y="708" type="line"/>
			<point x="201" y="708" type="line"/>
			<point x="91" y="-79" type="line"/>
		</contour>
		<contour>
			<point x="-221" y="708" type="line"/>
			<point x="-359" y="708" type="line"/>
			<point x="-924" y="396" type="line"/>
			<point x="-947" y="233" type="line"/>
			<point x="-469" y="-79" type="line"/>
			<point x="-331" y="-79" type="line"/>
		</contour>
		<contour>
			<point x="-444" y="68" type="line"/>
			<point x="-818" y="307" type="line"/>
			<point x="-378" y="546" type="line"/>
		</contour>
	</outline>
</glyph>
<glyph name="less_bar_bar_bar.cLig" format="2">
	<advance width="600"/>
	<outline>
		<contour>
			<point x="-808" y="707" type="line"/>
			<point x="-945" y="707" type="line"/>
			<point x="-1511" y="395" type="line"/>
			<point x="-1533" y="232" type="line"/>
			<point x="-1055" y="-80" type="line"/>
			<point x="-918" y="-80" type="line"/>
		</contour>
		<contour>
			<point x="-241" y="708" type="line"/>
			<point x="-379" y="708" type="line"/>
			<point x="-489" y="-79" type="line"/>
			<point x="-351" y="-79" type="line"/>
		</contour>
		<contour>
			<point x="325" y="708" type="line"/>
			<point x="188" y="708" type="line"/>
			<point x="78" y="-79" type="line"/>
			<point x="215" y="-79" type="line"/>
		</contour>
		<contour>
			<point x="-1031" y="67" type="line"/>
			<point x="-1405" y="306" type="line"/>
			<point x="-964" y="545" type="line"/>
		</contour>
	</outline>
</glyph>
<glyph name="less_dollar.cLig" format="2">
	<advance width="600"/>
	<outline>
		<contour>
			<point x="105" y="-93" type="line"/>
			<point x="201" y="-93" type="line"/>
			<point x="227" y="-11" type="line"/>
			<point x="259" y="-11" type="line" smooth="yes"/>
			<point x="424" y="-11"/>
			<point x="529" y="74"/>
			<point x="529" y="224" type="curve" smooth="yes"/>
			<point x="529" y="333"/>
			<point x="465" y="372"/>
			<point x="347" y="403" type="curve"/>
			<point x="399" y="570" type="line"/>
			<point x="456" y="559"/>
			<point x="514" y="537"/>
			<point x="553" y="507" type="curve"/>
			<point x="570" y="631" type="line"/>
			<point x="541" y="651"/>
			<point x="497" y="669"/>
			<point x="446" y="681" type="curve"/>
			<point x="474" y="774" type="line"/>
			<point x="377" y="774" type="line"/>
			<point x="352" y="695" type="line"/>
			<point x="323" y="695" type="line" smooth="yes"/>
			<point x="152" y="695"/>
			<point x="55" y="612"/>
			<point x="55" y="469" type="curve" smooth="yes"/>
			<point x="55" y="351"/>
			<point x="131" y="310"/>
			<point x="234" y="284" type="curve"/>
			<point x="181" y="114" type="line"/>
			<point x="112" y="123"/>
			<point x="36" y="144"/>
			<point x="-55" y="179" type="curve" smooth="yes"/>
			<point x="-397" y="314" type="line"/>
			<point x="-52" y="455" type="line"/>
			<point x="-30" y="604" type="line"/>
			<point x="-499" y="396" type="line"/>
			<point x="-522" y="233" type="line"/>
			<point x="-109" y="66" type="line" smooth="yes"/>
			<point x="-21" y="30"/>
			<point x="57" y="9"/>
			<point x="132" y="-2" type="curve"/>
		</contour>
		<contour>
			<point x="200" y="492" type="curve" smooth="yes"/>
			<point x="200" y="549"/>
			<point x="242" y="578"/>
			<point x="319" y="578" type="curve" smooth="yes"/>
			<point x="326" y="578" type="line"/>
			<point x="277" y="421" type="line"/>
			<point x="223" y="436"/>
			<point x="200" y="451"/>
		</contour>
		<contour>
			<point x="385" y="196" type="curve" smooth="yes"/>
			<point x="385" y="137"/>
			<point x="336" y="109"/>
			<point x="258" y="109" type="curve" smooth="yes"/>
			<point x="254" y="109" type="line"/>
			<point x="304" y="269" type="line"/>
			<point x="357" y="256"/>
			<point x="385" y="241"/>
		</contour>
	</outline>
</glyph>
<glyph name="less_equal_bar.rem" format="2">
	<advance width="600"/>
	<outline>
		<contour>
			<point x="404" y="0" type="line"/>
			<point x="492" y="629" type="line"/>
			<point x="354" y="629" type="line"/>
			<point x="334" y="488" type="line"/>
			<point x="-734" y="488" type="line"/>
			<point x="-597" y="629" type="line"/>
			<point x="-769" y="629" type="line"/>
			<point x="-1069" y="318" type="line"/>
			<point x="-844" y="0" type="line"/>
			<point x="-686" y="0" type="line"/>
			<point x="-785" y="141" type="line"/>
			<point x="286" y="141" type="line"/>
			<point x="266" y="0" type="line"/>
		</contour>
		<contour>
			<point x="-906" y="312" type="line"/>
			<point x="-855" y="365" type="line"/>
			<point x="317" y="365" type="line"/>
			<point x="303" y="264" type="line"/>
			<point x="-873" y="264" type="line"/>
		</contour>
	</outline>
</glyph>
<glyph name="less_equal_greater.rem" format="2">
	<advance width="600"/>
	<outline>
		<contour>
			<point x="15" y="0" type="line"/>
			<point x="187" y="0" type="line"/>
			<point x="486" y="311" type="line"/>
			<point x="262" y="629" type="line"/>
			<point x="104" y="629" type="line"/>
			<point x="203" y="488" type="line"/>
			<point x="-738" y="488" type="line"/>
			<point x="-601" y="629" type="line"/>
			<point x="-773" y="629" type="line"/>
			<point x="-1072" y="318" type="line"/>
			<point x="-848" y="0" type="line"/>
			<point x="-690" y="0" type="line"/>
			<point x="-789" y="141" type="line"/>
			<point x="152" y="141" type="line"/>
		</contour>
		<contour>
			<point x="324" y="317" type="line"/>
			<point x="273" y="264" type="line"/>
			<point x="-876" y="264" type="line"/>
			<point x="-910" y="312" type="line"/>
			<point x="-859" y="365" type="line"/>
			<point x="290" y="365" type="line"/>
		</contour>
	</outline>
</glyph>
<glyph name="less_equal_less.rem" format="2">
	<advance width="600"/>
	<outline>
		<contour>
			<point x="282" y="265" type="line"/>
			<point x="120" y="264" type="line"/>
			<point x="-880" y="264" type="line"/>
			<point x="-914" y="312" type="line"/>
			<point x="-863" y="365" type="line"/>
			<point x="119" y="365" type="line"/>
			<point x="296" y="364" type="line"/>
			<point x="546" y="629" type="line"/>
			<point x="374" y="629" type="line"/>
			<point x="238" y="488" type="line"/>
			<point x="-742" y="488" type="line"/>
			<point x="-605" y="629" type="line"/>
			<point x="-777" y="629" type="line"/>
			<point x="-1076" y="318" type="line"/>
			<point x="-852" y="0" type="line"/>
			<point x="-694" y="0" type="line"/>
			<point x="-793" y="141" type="line"/>
			<point x="206" y="141" type="line"/>
			<point x="303" y="0" type="line"/>
			<point x="461" y="0" type="line"/>
		</contour>
	</outline>
</glyph>
<glyph name="less_exclam_hyphen_hyphen.cLig" format="2">
	<advance width="600"/>
	<outline>
		<contour>
			<point x="-1011" y="230" type="line"/>
			<point x="-905" y="230" type="line"/>
			<point x="-832" y="559" type="line"/>
			<point x="-814" y="684" type="line"/>
			<point x="-975" y="684" type="line"/>
			<point x="-993" y="559" type="line"/>
		</contour>
		<contour>
			<point x="-1277" y="0" type="line"/>
			<point x="-1465" y="249" type="line"/>
			<point x="-1147" y="249" type="line"/>
			<point x="-1129" y="381" type="line"/>
			<point x="-1439" y="381" type="line"/>
			<point x="-1184" y="629" type="line"/>
			<point x="-1355" y="629" type="line"/>
			<point x="-1667" y="315" type="line"/>
			<point x="-1438" y="0" type="line"/>
		</contour>
		<contour>
			<point x="456" y="380" type="line"/>
			<point x="-742" y="380" type="line"/>
			<point x="-760" y="248" type="line"/>
			<point x="438" y="248" type="line"/>
		</contour>
		<contour>
			<point x="-985" y="-12" type="curve" smooth="yes"/>
			<point x="-923" y="-12"/>
			<point x="-893" y="11"/>
			<point x="-886" y="65" type="curve" smooth="yes"/>
			<point x="-876" y="129"/>
			<point x="-909" y="157"/>
			<point x="-973" y="157" type="curve" smooth="yes"/>
			<point x="-1035" y="157"/>
			<point x="-1065" y="134"/>
			<point x="-1073" y="81" type="curve" smooth="yes"/>
			<point x="-1082" y="16"/>
			<point x="-1049" y="-12"/>
		</contour>
	</outline>
</glyph>
<glyph name="less_hyphen_bar.rem" format="2">
	<advance width="600"/>
	<outline>
		<contour>
			<point x="492" y="629" type="line"/>
			<point x="354" y="629" type="line"/>
			<point x="319" y="381" type="line"/>
			<point x="-826" y="381" type="line"/>
			<point x="-572" y="629" type="line"/>
			<point x="-743" y="629" type="line"/>
			<point x="-1055" y="315" type="line"/>
			<point x="-825" y="0" type="line"/>
			<point x="-665" y="0" type="line"/>
			<point x="-852" y="249" type="line"/>
			<point x="301" y="249" type="line"/>
			<point x="266" y="0" type="line"/>
			<point x="404" y="0" type="line"/>
			<point x="439" y="249" type="line"/>
			<point x="442" y="275" type="line"/>
		</contour>
	</outline>
</glyph>
<glyph name="less_hyphen_greater.rem" format="2">
	<advance width="600"/>
	<outline>
		<contour>
			<point x="-682" y="0" type="line"/>
			<point x="-870" y="249" type="line"/>
			<point x="-425" y="249" type="line"/>
			<point x="-425" y="248" type="line"/>
			<point x="258" y="248" type="line"/>
			<point x="3" y="0" type="line"/>
			<point x="174" y="0" type="line"/>
			<point x="486" y="314" type="line"/>
			<point x="257" y="629" type="line"/>
			<point x="96" y="629" type="line"/>
			<point x="284" y="380" type="line"/>
			<point x="-161" y="380" type="line"/>
			<point x="-161" y="381" type="line"/>
			<point x="-844" y="381" type="line"/>
			<point x="-589" y="629" type="line"/>
			<point x="-760" y="629" type="line"/>
			<point x="-1072" y="315" type="line"/>
			<point x="-843" y="0" type="line"/>
		</contour>
	</outline>
</glyph>
<glyph name="less_hyphen_less.rem" format="2">
	<advance width="600"/>
	<outline>
		<contour>
			<point x="-678" y="-1" type="line"/>
			<point x="-866" y="248" type="line"/>
			<point x="101" y="248" type="line"/>
			<point x="281" y="-1" type="line"/>
			<point x="441" y="-1" type="line"/>
			<point x="224" y="305" type="line"/>
			<point x="527" y="628" type="line"/>
			<point x="351" y="628" type="line"/>
			<point x="115" y="380" type="line"/>
			<point x="-840" y="380" type="line"/>
			<point x="-585" y="628" type="line"/>
			<point x="-756" y="628" type="line"/>
			<point x="-1068" y="314" type="line"/>
			<point x="-839" y="-1" type="line"/>
		</contour>
	</outline>
</glyph>
